<svg viewBox="0 0 1700 200" width="1700px" height="200px" xmlns="http://www.w3.org/2000/svg" xmlns:xlink="http://www.w3.org/1999/xlink">
  <defs>
    <path id="a" d="M0 0h1700v200H0z"/>
    <path id="d" d="M0 0h32v36H0z"/>
    <path id="f" d="M0 0h31v35H0z"/>
    <path id="h" d="M0 0h130v148H0z"/>
    <path id="j" d="M0 0h192v219H0z"/>
    <path id="l" d="M0 0h148v169H0z"/>
    <path id="n" d="M0 0h148v169H0z"/>
    <path id="p" d="M0 0h192v219H0z"/>
    <path id="r" d="M0 0h148v169H0z"/>
    <linearGradient x1="0%" y1="50.692%" x2="100%" y2="49.427%" id="b">
      <stop stop-color="#325A67" offset="0%"/>
      <stop stop-color="#437889" offset="100%"/>
    </linearGradient>
  </defs>
  <g fill="none" fill-rule="evenodd">
    <mask id="c" fill="#fff">
      <use xlink:href="#a"/>
    </mask>
    <use fill="url(#b)" xlink:href="#a"/>
    <g mask="url(#c)">
      <g opacity=".143" style="mix-blend-mode:overlay" transform="translate(752 42)">
        <mask id="e" fill="#fff">
          <use xlink:href="#d"/>
        </mask>
        <path d="M32 28.213c0 .433-.235.833-.616 1.05l-14.768 6.575c-.381.216-.85.216-1.232 0L.616 29.263A1.21 1.21 0 010 28.213V7.788c0-.434.235-.834.616-1.05L15.384.162c.381-.217.85-.217 1.232 0l14.768 6.574c.381.217.616.617.616 1.05v20.426z" fill="#FFF" mask="url(#e)"/>
      </g>
      <g opacity=".143" style="mix-blend-mode:overlay" transform="translate(1241 140)">
        <mask id="g" fill="#fff">
          <use xlink:href="#f"/>
        </mask>
        <path d="M31 27.429c0 .421-.227.81-.597 1.02l-14.306 6.393c-.37.21-.824.21-1.194 0L.597 28.45c-.37-.21-.597-.6-.597-1.021V7.57c0-.42.227-.81.597-1.02L14.903.157c.37-.21.824-.21 1.194 0L30.403 6.55c.37.21.597.6.597 1.021V27.43z" fill="#FFF" mask="url(#g)"/>
      </g>
      <g opacity=".078" style="mix-blend-mode:overlay" transform="translate(826 -97)">
        <mask id="i" fill="#fff">
          <use xlink:href="#h"/>
        </mask>
        <path d="M130 115.985c0 1.78-.954 3.426-2.502 4.317l-59.996 27.03a5.02 5.02 0 01-5.004 0l-59.996-27.03A4.981 4.981 0 010 115.985v-83.97c0-1.78.954-3.426 2.502-4.317L62.498.668a5.017 5.017 0 015.004 0l59.996 27.03A4.982 4.982 0 01130 32.015v83.97z" fill="#FFF" mask="url(#i)"/>
      </g>
      <g opacity=".073" transform="translate(713 45)">
        <mask id="k" fill="#fff">
          <use xlink:href="#j"/>
        </mask>
        <path d="M192 171.626a7.373 7.373 0 01-3.695 6.388l-88.61 39.998a7.403 7.403 0 01-7.39 0l-88.61-39.998A7.374 7.374 0 010 171.626V47.374a7.376 7.376 0 013.695-6.388L92.305.989a7.398 7.398 0 017.39 0l88.61 39.997A7.375 7.375 0 01192 47.374v124.252z" fill="#FFF" mask="url(#k)"/>
      </g>
      <g transform="translate(880 3)" opacity=".137">
        <mask id="m" fill="#fff">
          <use xlink:href="#l"/>
        </mask>
        <path d="M148 132.442a5.69 5.69 0 01-2.849 4.93l-68.303 30.866a5.701 5.701 0 01-5.696 0L2.848 137.37A5.691 5.691 0 010 132.442V36.558a5.693 5.693 0 012.848-4.93L71.152.763a5.697 5.697 0 015.696 0l68.303 30.865a5.693 5.693 0 012.849 4.93v95.884z" fill="#FFF" mask="url(#m)"/>
      </g>
      <g opacity=".073" transform="translate(1250 13)">
        <mask id="o" fill="#fff">
          <use xlink:href="#n"/>
        </mask>
        <path d="M148 132.442a5.69 5.69 0 01-2.849 4.93l-68.303 30.866a5.701 5.701 0 01-5.696 0L2.848 137.37A5.691 5.691 0 010 132.442V36.558a5.693 5.693 0 012.848-4.93L71.152.763a5.697 5.697 0 015.696 0l68.303 30.865a5.693 5.693 0 012.849 4.93v95.884z" fill="#FFF" mask="url(#o)"/>
      </g>
      <g opacity=".073" transform="translate(1124 -73)">
        <mask id="q" fill="#fff">
          <use xlink:href="#p"/>
        </mask>
        <path d="M192 171.626a7.373 7.373 0 01-3.695 6.388l-88.61 39.998a7.403 7.403 0 01-7.39 0l-88.61-39.998A7.374 7.374 0 010 171.626V47.374a7.376 7.376 0 013.695-6.388L92.305.989a7.398 7.398 0 017.39 0l88.61 39.997A7.375 7.375 0 01192 47.374v124.252z" fill="#FFF" mask="url(#q)"/>
      </g>
      <g opacity=".073" transform="translate(1414 -55)">
        <mask id="s" fill="#fff">
          <use xlink:href="#r"/>
        </mask>
        <path d="M148 132.442a5.69 5.69 0 01-2.849 4.93l-68.303 30.866a5.701 5.701 0 01-5.696 0L2.848 137.37A5.691 5.691 0 010 132.442V36.558a5.693 5.693 0 012.848-4.93L71.152.763a5.697 5.697 0 015.696 0l68.303 30.865a5.693 5.693 0 012.849 4.93v95.884z" fill="#FFF" mask="url(#s)"/>
      </g>
    </g>
  </g>
</svg>