<svg width="430" height="431" viewBox="0 0 430 431" fill="none" xmlns="http://www.w3.org/2000/svg">
  <path
    d="M256.5 255.71H254.88V245.5C270.34 233.63 279.89 215.24 280.57 195.69L281.52 168.41C281.52 168.41 281.52 168.4 281.52 168.39L282.03 153.82C284.63 153.16 286.56 150.81 286.56 148.01V107.21C291.43 106.26 298.36 103.98 303.87 98.4703C309.61 92.7403 312.52 84.9903 312.52 75.4303C312.52 65.8703 309.58 58.5903 303.77 53.0803C296.32 46.0103 286.16 44.4503 280.92 44.1303C267.56 26.6603 243.2 16.3203 215 16.3203C186.8 16.3203 162.3 26.6603 148.94 44.1303C143.69 44.4403 133.53 46.0103 126.09 53.0803C120.28 58.5903 117.34 66.1103 117.34 75.4303C117.34 84.7503 120.25 92.7403 125.99 98.4703C131.5 103.97 138.43 106.26 143.3 107.21V148.01C143.3 150.87 145.3 153.26 147.98 153.86L149.43 195.69C150.02 212.78 157.11 228.73 169.42 240.61C171.21 242.34 173.12 243.97 175.13 245.51V255.71H173.5C124.43 255.71 84.5 295.63 84.5 344.71V372.47C84.5 383.14 92.49 392.11 103.09 393.33L130.62 396.5C138.37 397.4 145.92 399.36 153.15 402.37L153.35 402.45C153.35 402.45 153.43 402.48 153.46 402.49C153.5 402.51 153.54 402.52 153.58 402.54C153.61 402.55 153.63 402.56 153.66 402.57C153.66 402.57 153.67 402.57 153.68 402.57C173.13 410.59 193.66 414.66 214.7 414.66C235.74 414.66 256.79 410.49 276.43 402.28C283.28 399.41 290.5 397.53 297.88 396.67L326.92 393.31C337.52 392.09 345.51 383.12 345.51 372.45V344.69C345.51 295.61 305.58 255.69 256.51 255.69L256.5 255.71ZM223 310.15L206.89 312.56L204.37 291.52C207.67 292.01 211.21 292.27 215 292.27C218.79 292.27 222.24 292.02 225.5 291.54L222.99 310.16L223 310.15ZM231.15 277.97C230.87 278.04 230.6 278.13 230.34 278.24C226.51 279.49 221.53 280.27 215.01 280.27C208.49 280.27 203.46 279.48 199.63 278.22C199.42 278.13 199.19 278.06 198.97 278C187.14 273.8 187.14 264.91 187.14 261.4V252.81C195.8 256.88 205.27 259.02 215.01 259.02C224.75 259.02 234.22 256.89 242.89 252.81V261.4C242.89 264.9 242.89 273.75 231.15 277.97ZM138.72 93.0803C132.41 89.7303 129.34 83.9603 129.34 75.4303C129.34 69.4703 130.96 65.0203 134.31 61.8203C140.61 55.7903 151.13 56.0303 151.72 56.0603C152.91 56.1203 154.13 55.8403 155.21 55.1803C155.99 54.7003 156.63 54.0603 157.11 53.3203C167.62 37.9003 189.79 28.3203 215.01 28.3203C240.23 28.3203 262.15 37.6803 272.81 53.3703C273.28 54.0803 273.91 54.7003 274.67 55.1803C275.76 55.8503 276.99 56.1303 278.19 56.0603C279.24 56.0403 289.41 55.9403 295.56 61.8203C298.9 65.0203 300.53 69.4703 300.53 75.4303C300.53 94.8103 283.18 95.8403 280.69 95.8803C279.63 95.8603 278.56 96.1203 277.61 96.6603C275.73 97.7203 274.57 99.7203 274.57 101.88V142.01H155.31V101.88C155.31 99.7203 154.14 97.7303 152.26 96.6603C151.34 96.1403 150.32 95.8803 149.3 95.8803H149.28C148.78 95.8703 143.62 95.6803 138.72 93.0803ZM161.43 195.27L160.68 173.72C171.62 172.69 194.77 169.06 215.07 156.34C235.24 169.04 258.39 172.7 269.32 173.76L268.57 195.27C267.97 212.38 259.55 227.78 245.46 237.52C236.48 243.73 225.94 247.01 214.99 247.01C204.04 247.01 193.5 243.73 184.54 237.53C182.12 235.85 179.83 233.98 177.75 231.96C167.7 222.25 161.9 209.22 161.42 195.26L161.43 195.27ZM104.47 381.41C99.93 380.89 96.5 377.04 96.5 372.47V344.71C96.5 302.25 131.04 267.71 173.5 267.71H175.69C177.38 276.98 182.95 283.87 191.86 287.95L195.02 314.34L155.08 320.31C155.08 320.31 155.03 320.32 155.01 320.33C154.85 320.36 154.7 320.39 154.55 320.42C154.5 320.43 154.46 320.44 154.41 320.46C154.27 320.5 154.13 320.54 153.99 320.59C153.93 320.61 153.88 320.63 153.83 320.65C153.71 320.7 153.58 320.75 153.46 320.8C153.4 320.83 153.33 320.86 153.27 320.89C153.16 320.94 153.06 321 152.96 321.06C152.89 321.1 152.82 321.14 152.76 321.18C152.67 321.24 152.58 321.3 152.49 321.37C152.42 321.42 152.35 321.47 152.29 321.52C152.21 321.59 152.13 321.65 152.05 321.72C151.98 321.78 151.92 321.84 151.86 321.9C151.78 321.97 151.71 322.05 151.64 322.13C151.58 322.19 151.52 322.25 151.47 322.32C151.4 322.4 151.33 322.49 151.26 322.57C151.21 322.64 151.16 322.7 151.11 322.77C151.05 322.86 150.99 322.95 150.93 323.04C150.89 323.11 150.84 323.18 150.8 323.25C150.75 323.34 150.7 323.44 150.65 323.53C150.61 323.61 150.57 323.69 150.54 323.77C150.5 323.86 150.46 323.96 150.42 324.05C150.38 324.14 150.35 324.23 150.32 324.32C150.29 324.41 150.26 324.49 150.24 324.58C150.21 324.69 150.18 324.79 150.16 324.9C150.14 324.98 150.13 325.05 150.11 325.13C150.09 325.25 150.07 325.38 150.05 325.5C150.05 325.57 150.03 325.64 150.03 325.71C150.02 325.84 150.01 325.98 150.01 326.11C150.01 326.15 150.01 326.18 150.01 326.22V388.43C144.18 386.58 138.17 385.27 132.05 384.56L104.52 381.39L104.47 381.41ZM333.5 372.47C333.5 377.04 330.08 380.89 325.53 381.41L296.49 384.77C288 385.75 279.69 387.93 271.8 391.22C253.62 398.82 234.41 402.68 214.7 402.68C196.57 402.68 178.86 399.41 161.97 392.96V331.41L202.41 325.36C202.41 325.36 202.51 325.36 202.56 325.35L229.24 321.35C229.24 321.35 229.24 321.35 229.25 321.35C229.54 321.31 229.82 321.23 230.1 321.15C230.15 321.13 230.21 321.12 230.26 321.1C230.53 321.01 230.8 320.9 231.05 320.77C231.09 320.75 231.12 320.73 231.16 320.71C231.41 320.58 231.64 320.43 231.86 320.27C231.88 320.26 231.9 320.25 231.91 320.23C232.14 320.06 232.35 319.87 232.55 319.68C232.59 319.64 232.63 319.6 232.67 319.56C232.86 319.36 233.04 319.15 233.2 318.93C233.23 318.89 233.25 318.86 233.27 318.82C233.42 318.6 233.55 318.38 233.67 318.15C233.69 318.12 233.71 318.08 233.72 318.05C233.85 317.79 233.95 317.53 234.04 317.25C234.06 317.2 234.07 317.16 234.08 317.11C234.16 316.83 234.23 316.54 234.27 316.24C234.27 316.24 234.27 316.22 234.27 316.21L238.07 287.97C247.01 283.89 252.6 277 254.3 267.7H256.48C298.94 267.7 333.48 302.24 333.48 344.7V372.46L333.5 372.47ZM170.43 84.1703C171.89 81.1903 175.48 79.9703 178.46 81.4203C186.42 85.3203 199.4 89.9003 216.11 89.8003C232.21 89.6603 244.74 85.1303 252.41 81.3503C255.38 79.8903 258.98 81.1103 260.44 84.0803C261.9 87.0503 260.68 90.6503 257.71 92.1103C248.92 96.4403 234.58 101.64 216.21 101.79C215.92 101.79 215.64 101.79 215.35 101.79C196.72 101.79 182.16 96.5803 173.17 92.1803C170.19 90.7203 168.96 87.1303 170.42 84.1503L170.43 84.1703ZM191.67 348.11V348.21C191.67 351.52 188.98 354.21 185.67 354.21C182.36 354.21 179.67 351.52 179.67 348.21C179.67 344.9 182.36 342.16 185.67 342.16C188.98 342.16 191.67 344.8 191.67 348.11ZM191.67 381.11V381.21C191.67 384.52 188.98 387.21 185.67 387.21C182.36 387.21 179.67 384.52 179.67 381.21C179.67 377.9 182.36 375.16 185.67 375.16C188.98 375.16 191.67 377.8 191.67 381.11Z"
    fill="url(#paint0_linear_2035_3323)" />
  <defs>
    <linearGradient id="paint0_linear_2035_3323" x1="78.08" y1="101.07" x2="351.85" y2="374.83"
      gradientUnits="userSpaceOnUse">
      <stop stop-color="#4f4fd8" />
      <stop offset="1" stop-color="#4f4fd8" />
    </linearGradient>
  </defs>
</svg>
