<svg width="146" height="24" viewBox="0 0 169 24" fill="none" xmlns="http://www.w3.org/2000/svg">
<path d="M32.8012 16.7838C33.7319 16.7838 34.2674 16.7254 35.4406 16.49L35.7281 18.3651C34.7716 18.6045 33.786 18.7232 32.7968 18.7182C28.282 18.7182 26.9805 16.0369 26.9805 12.9024C27.0211 9.84812 28.9558 7.26367 32.7749 7.26367C33.7651 7.26429 34.7507 7.38969 35.7061 7.6366L35.3122 9.49811C34.5019 9.31233 33.671 9.22069 32.8374 9.22519C30.4472 9.26269 29.2697 10.9482 29.2291 12.9055C29.2335 14.8431 29.9995 16.7838 32.8012 16.7838Z" fill="#003037"/>
<path d="M42.0465 7.27124C45.7602 7.29207 47.4064 9.91403 47.4064 12.986C47.4064 15.9819 45.9863 18.6622 42.029 18.6841C38.1506 18.6456 36.668 15.9819 36.668 12.986C36.6592 9.91403 38.3273 7.30874 42.0465 7.27124ZM42.0465 16.8038C44.4192 16.783 45.1808 14.9642 45.1808 12.9891C45.1577 11.1859 44.3566 9.15255 42.0246 9.15255C39.7573 9.17338 38.8683 11.1693 38.8683 12.9891C38.864 15.0402 39.8154 16.8038 42.0465 16.8038Z" fill="#003037"/>
<path d="M62.7653 18.4871V11.44C62.7653 9.65871 62.0662 9.17119 60.8887 9.17119C60.0832 9.17119 59.1756 9.60454 58.3525 10.2473C58.3891 10.5262 58.4096 10.8068 58.414 11.0879V18.484H56.1094V11.3608C56.1094 9.57954 55.5508 9.15036 54.3787 9.15036C53.6347 9.15036 52.6031 9.62121 51.7175 10.2473V18.4871H49.4238V7.46593H51.712V8.40346C52.4121 7.87428 53.5271 7.26905 54.7442 7.24822C56.3519 7.22739 57.2814 7.75657 57.7994 8.58055C58.7453 7.77718 59.9534 7.30681 61.2212 7.24822C64.9964 7.18884 65.0545 10.0681 65.0545 11.2817V18.484L62.7653 18.4871Z" fill="#003037"/>
<path d="M80.9118 18.487V11.4399C80.9118 9.65862 80.2127 9.1711 79.0352 9.1711C78.2296 9.1711 77.3221 9.60445 76.499 10.2472C76.5356 10.5261 76.5561 10.8068 76.5605 11.0878V18.4839H74.2559V11.3608C74.2559 9.57945 73.6973 9.15027 72.5241 9.15027C71.7811 9.15027 70.7496 9.62112 69.8639 10.2472V18.487H67.5703V7.46584H69.8585V8.40337C70.5586 7.87419 71.6736 7.26896 72.8907 7.24813C74.4984 7.22729 75.4279 7.75647 75.9459 8.58046C76.8918 7.77709 78.0999 7.30671 79.3677 7.24813C83.1428 7.19188 83.1999 10.0711 83.1999 11.2837V18.486L80.9118 18.487Z" fill="#003037"/>
<path d="M93.8779 16.4702L94.228 18.2515C93.1964 18.5838 91.7753 18.7431 90.6592 18.7431C86.0829 18.7431 84.9668 15.8264 84.9668 12.9096C84.9668 9.99287 86.3309 7.29175 90.1642 7.29175C92.5369 7.29175 94.5155 8.68242 94.5375 12.2252L94.5155 13.3805H87.2154C87.256 15.5316 88.4731 16.8431 90.7612 16.8431C91.6732 16.8441 92.6203 16.7431 93.8779 16.4702ZM87.3219 11.6929H92.4183C92.3338 9.46161 91.1607 9.01159 90.0676 9.01159C88.3315 8.9918 87.5304 10.1085 87.3219 11.6929Z" fill="#003037"/>
<path d="M102.953 9.48213C102.468 9.37325 101.97 9.32113 101.471 9.32692C100.044 9.30504 99.3055 9.97381 98.7699 10.503V18.4907H96.4785V7.4654H98.7667V8.44356C99.1137 8.09756 99.5297 7.82048 99.9905 7.62842C100.451 7.43636 100.948 7.33314 101.451 7.32477C102.104 7.30947 102.754 7.40907 103.368 7.61853L102.953 9.48213Z" fill="#003037"/>
<path d="M109.647 16.7838C110.577 16.7838 111.112 16.7254 112.281 16.49L112.569 18.3651C111.613 18.6045 110.627 18.7232 109.639 18.7182C105.123 18.7182 103.822 16.0369 103.822 12.9024C103.862 9.84812 105.798 7.26367 109.617 7.26367C110.607 7.2647 111.592 7.39045 112.547 7.63764L112.153 9.49916C111.343 9.31337 110.512 9.22173 109.678 9.22623C107.288 9.26373 106.11 10.9492 106.071 12.9066C106.086 14.8431 106.848 16.7838 109.647 16.7838Z" fill="#003037"/>
<path d="M122.415 16.4702L122.765 18.2515C121.734 18.5838 120.312 18.7431 119.196 18.7431C114.62 18.7431 113.504 15.8264 113.504 12.9096C113.504 9.99287 114.868 7.29175 118.701 7.29175C121.074 7.29175 123.053 8.68242 123.075 12.2252L123.053 13.3805H115.753C115.793 15.5316 117.01 16.8431 119.298 16.8431C120.21 16.8441 121.157 16.7431 122.415 16.4702ZM115.859 11.6929H120.95C120.865 9.46161 119.692 9.01159 118.599 9.01159C116.869 8.9918 116.063 10.1085 115.859 11.6929Z" fill="#003037"/>
<path d="M130.828 9.26782H127.672V14.617C127.672 15.7305 127.818 16.516 129.013 16.6712C129.681 16.714 130.352 16.6875 131.013 16.592L131.159 18.4671C130.484 18.5625 129.802 18.6088 129.119 18.6056C126.418 18.5087 125.406 17.1983 125.406 15.1388V9.26782H123.736V7.75945L125.406 7.5834V5.01978H127.672V7.46569H130.828V9.26782Z" fill="#003037"/>
<path d="M137.487 7.27124C141.2 7.29207 142.847 9.91403 142.847 12.986C142.847 15.9819 141.42 18.6622 137.469 18.6841C133.592 18.6456 132.109 15.9819 132.109 12.986C132.104 9.91403 133.772 7.30874 137.487 7.27124ZM137.487 16.8007C139.859 16.7799 140.62 14.9611 140.62 12.986C140.598 11.1828 139.797 9.14942 137.464 9.14942C135.198 9.17026 134.308 11.1662 134.308 12.986C134.312 15.0402 135.26 16.8038 137.487 16.8038V16.8007Z" fill="#003037"/>
<path d="M149.815 7.27124C153.529 7.29207 155.175 9.91403 155.175 12.986C155.175 15.9819 153.749 18.6622 149.793 18.6841C145.915 18.6456 144.432 15.9819 144.432 12.986C144.437 9.91403 146.109 7.30874 149.815 7.27124ZM149.815 16.8007C152.187 16.7799 152.949 14.9611 152.949 12.986C152.927 11.1828 152.126 9.14942 149.793 9.14942C147.526 9.17026 146.636 11.1662 146.636 12.986C146.644 15.0402 147.591 16.8038 149.815 16.8038V16.8007Z" fill="#003037"/>
<path d="M156.992 18.4864V3.53174H159.197V18.4864H156.992Z" fill="#003037"/>
<path d="M161.527 16.3525C162.824 16.6651 164.041 16.8234 164.807 16.8234C165.714 16.8234 166.644 16.6463 166.706 15.6088C166.768 14.5119 165.573 14.1796 164.21 13.6295C162.665 13.0243 160.991 12.2014 161.036 10.1628C161.076 9.14607 161.718 7.15017 165.139 7.24601C166.25 7.27454 167.354 7.41952 168.432 7.67831L168.042 9.4815C166.825 9.20857 165.917 9.09086 165.032 9.07002C164.044 9.07002 163.276 9.36378 163.239 10.2461C163.217 10.9899 163.837 11.3805 165.364 11.9691C166.908 12.5743 169.096 13.3597 168.994 15.6702C168.932 17.1369 167.922 18.7422 164.806 18.7047C163.818 18.6839 162.23 18.5661 161.052 18.1745L161.527 16.3525Z" fill="#003037"/>
<path d="M0.300132 18.3814C0.210445 18.4212 0.134566 18.4844 0.081403 18.5636C0.02824 18.6429 0 18.7349 0 18.8288C0 18.9228 0.02824 19.0148 0.081403 19.0941C0.134566 19.1733 0.210445 19.2365 0.300132 19.2763L10.3559 23.7483C10.4893 23.807 10.6346 23.8375 10.7817 23.8379V13.8625C10.6302 13.8627 10.4806 13.8936 10.3427 13.9532L0.300132 18.3814Z" fill="#FF761C"/>
<path d="M10.7812 13.8625V23.8379C10.9388 23.8395 11.0949 23.809 11.2389 23.7483L21.2683 19.2929C21.3577 19.2531 21.4333 19.1899 21.4862 19.1107C21.5391 19.0316 21.5672 18.9398 21.5672 18.846C21.5672 18.7523 21.5391 18.6605 21.4862 18.5813C21.4333 18.5022 21.3577 18.439 21.2683 18.3991L11.2202 13.9573C11.0827 13.8964 10.933 13.864 10.7812 13.8625Z" fill="#FF8C1E"/>
<path d="M0 5.33203C5.68529e-05 5.42584 0.0282657 5.51769 0.0813243 5.59683C0.134383 5.67598 0.210095 5.73914 0.299598 5.77892L10.3553 10.2468C10.4892 10.3048 10.634 10.3367 10.7811 10.3405C10.9093 10.342 11.0368 10.3219 11.1576 10.2811C11.2519 10.2374 11.2344 10.2468 11.4385 10.1561C12.4756 9.69987 11.7864 10.0009 21.2627 5.79142C21.3524 5.75184 21.4282 5.68873 21.4813 5.60954C21.5344 5.53035 21.5625 5.43839 21.5623 5.34453C21.5617 5.25083 21.5333 5.15918 21.4803 5.08013C21.4273 5.00108 21.3519 4.93782 21.2627 4.89764L11.2201 0.455834C11.0831 0.393463 10.9331 0.361084 10.7811 0.361084C10.6292 0.361084 10.4792 0.393463 10.3422 0.455834L0.295209 4.8841C0.206927 4.92524 0.13251 4.98898 0.0803497 5.06812C0.0281895 5.14727 0.000360262 5.23867 0 5.33203Z" fill="#00C1AD"/>
<path d="M10.7811 10.9002V13.8627C10.6297 13.8629 10.48 13.8938 10.3422 13.9534L0.299598 18.3858C0.210172 18.426 0.134565 18.4894 0.0815403 18.5686C0.0285155 18.6479 0.000244106 18.7398 0 18.8337V5.33228C5.68529e-05 5.42609 0.0282657 5.51794 0.0813243 5.59708C0.134383 5.67622 0.210095 5.73939 0.299598 5.77917L10.3553 10.247C10.4892 10.305 10.634 10.3369 10.7811 10.3408C10.9093 10.3423 11.0368 10.3221 11.1576 10.2814L11.1389 10.2897C10.8261 10.4231 10.7811 10.5606 10.7811 10.9002Z" fill="#D1D1D1"/>
</svg>
