<?xml version="1.0" encoding="UTF-8"?>
<svg width="25px" height="25px" viewBox="0 0 25 25" version="1.1" xmlns="http://www.w3.org/2000/svg" xmlns:xlink="http://www.w3.org/1999/xlink">
    <title>Custom_application_25x25</title>
    <g id="Design" stroke="none" stroke-width="1" fill="none" fill-rule="evenodd">
        <g id="-Icon" transform="translate(-364.000000, -248.000000)" fill="#003037" fill-rule="nonzero">
            <g id="Custom_application_25x25" transform="translate(364.000000, 248.000000)">
                <g id="ct-composable-commerce" transform="translate(1.000000, 2.000000)">
                    <path d="M0,13.943662 L10.3972603,13.943662 L10.3972603,0 L0,0 L0,13.943662 Z M0.826188164,0.818744831 L9.57107211,0.818744831 L9.57107211,13.1311671 L0.826188164,13.1311671 L0.826188164,0.818744831 Z" id="Shape"></path>
                    <path d="M12.6027397,8.05633803 L12.6027397,22 L23,22 L23,8.05633803 L12.6027397,8.05633803 Z M22.1738118,21.1812552 L13.4289279,21.1812552 L13.4289279,8.8688329 L22.1738118,8.8688329 L22.1738118,21.1812552 Z" id="Shape"></path>
                    <path d="M0,22 L10.3972603,22 L10.3972603,15.8028169 L0,15.8028169 L0,22 Z M0.826188164,16.6282614 L9.57107211,16.6282614 L9.57107211,21.1745555 L0.826188164,21.1745555 L0.826188164,16.6282614 Z" id="Shape"></path>
                    <polygon id="Path" points="17.6969797 5.88732394 18.535897 5.88732394 18.535897 3.66971916 20.7945205 3.66971916 20.7945205 2.84367726 18.535897 2.84367726 18.535897 0.61971831 17.6969797 0.61971831 17.6969797 2.84367726 15.4383562 2.84367726 15.4383562 3.66971916 17.6969797 3.66971916"></polygon>
                </g>
            </g>
        </g>
    </g>
</svg>