<?xml version="1.0" encoding="UTF-8"?>
<svg width="80px" height="80px" viewBox="0 0 80 80" version="1.1" xmlns="http://www.w3.org/2000/svg" xmlns:xlink="http://www.w3.org/1999/xlink">
    <title>Custom_application_80x80</title>
    <g id="Design" stroke="none" stroke-width="1" fill="none" fill-rule="evenodd">
        <g id="-Icon" transform="translate(-360.000000, -50.000000)" fill="#003037" fill-rule="nonzero">
            <g id="Custom_application_80x80" transform="translate(360.000000, 50.000000)">
                <g id="ct-composable-commerce" transform="translate(3.000000, 5.000000)">
                    <path d="M0,45 L33,45 L33,0 L0,0 L0,45 Z M2.62224939,2.64231286 L30.3777506,2.64231286 L30.3777506,42.3778575 L2.62224939,42.3778575 L2.62224939,2.64231286 Z" id="Shape"></path>
                    <path d="M40,26 L40,71 L73,71 L73,26 L40,26 Z M70.3777506,68.3576871 L42.6222494,68.3576871 L42.6222494,28.6221425 L70.3777506,28.6221425 L70.3777506,68.3576871 Z" id="Shape"></path>
                    <path d="M0,71 L33,71 L33,51 L0,51 L0,71 Z M2.62224939,53.6639344 L30.3777506,53.6639344 L30.3777506,68.3360656 L2.62224939,68.3360656 L2.62224939,53.6639344 Z" id="Shape"></path>
                    <polygon id="Path" points="56.1686747 19 58.8313253 19 58.8313253 11.8431846 66 11.8431846 66 9.17732207 58.8313253 9.17732207 58.8313253 2 56.1686747 2 56.1686747 9.17732207 49 9.17732207 49 11.8431846 56.1686747 11.8431846"></polygon>
                </g>
            </g>
        </g>
    </g>
</svg>