<?xml version="1.0" encoding="UTF-8"?>
<svg width="25px" height="25px" viewBox="0 0 25 25" version="1.1" xmlns="http://www.w3.org/2000/svg" xmlns:xlink="http://www.w3.org/1999/xlink">
    <title>custom_application_25x25</title>
    <g id="Color-Scheme---Products-/-Solution" stroke="none" stroke-width="1" fill="none" fill-rule="evenodd">
        <g id="Icon-final" transform="translate(-165.000000, -119.000000)" fill="#044E7C" fill-rule="nonzero">
            <g id="custom_application_25x25" transform="translate(165.000000, 119.000000)">
                <path d="M12.6788045,13.2341437 C12.5788045,13.2341437 12.5788045,13.2341437 12.4788045,13.1341437 L7.37880452,10.2341437 C7.27880452,10.1341437 7.17880452,10.0341437 7.17880452,9.93414374 L7.17880452,3.83414374 C7.17880452,3.73414374 7.27880452,3.53414374 7.37880452,3.53414374 C7.47880452,3.43414374 7.67880452,3.43414374 7.77880452,3.53414374 L12.8788045,6.43414374 C12.9788045,6.53414374 13.0788045,6.63414374 13.0788045,6.73414374 L13.0788045,12.9341437 C13.0788045,13.0341437 12.9788045,13.2341437 12.8788045,13.2341437 C12.7788045,13.2341437 12.7788045,13.2341437 12.6788045,13.2341437 Z M7.97880452,9.73414374 L12.2788045,12.2341437 L12.2788045,6.93414374 L7.97880452,4.43414374 L7.97880452,9.73414374 Z" id="Shape"></path>
                <path d="M12.8788045,13.2341437 L12.4788045,12.5341437 L17.3788045,9.73414374 L17.3788045,4.53414374 L12.8788045,7.13414374 L12.4788045,6.43414374 L17.5788045,3.53414374 C17.6788045,3.43414374 17.8788045,3.43414374 17.9788045,3.53414374 C18.0788045,3.63414374 18.1788045,3.73414374 18.1788045,3.83414374 L18.1788045,10.0341437 C18.1788045,10.1341437 18.0788045,10.3341437 17.9788045,10.3341437 L12.8788045,13.2341437 Z" id="Path"></path>
                <path d="M17.5788045,4.13414374 L12.6788045,1.33414374 L7.77880452,4.13414374 L7.37880452,3.43414374 L12.4788045,0.534143738 C12.5788045,0.434143738 12.7788045,0.434143738 12.8788045,0.534143738 L17.9788045,3.43414374 L17.5788045,4.13414374 Z" id="Path"></path>
                <path d="M6.47880452,24.5341437 C6.37880452,24.5341437 6.37880452,24.5341437 6.27880452,24.4341437 L1.17880452,21.5341437 C1.07880452,21.4341437 0.978804516,21.3341437 0.978804516,21.2341437 L0.978804516,15.0341437 C0.978804516,14.9341437 1.07880452,14.7341437 1.17880452,14.7341437 C1.27880452,14.6341437 1.47880452,14.6341437 1.57880452,14.7341437 L6.67880452,17.6341437 C6.77880452,17.7341437 6.87880452,17.8341437 6.87880452,17.9341437 L6.87880452,24.1341437 C6.87880452,24.2341437 6.77880452,24.4341437 6.67880452,24.4341437 C6.67880452,24.5341437 6.57880452,24.5341437 6.47880452,24.5341437 Z M1.77880452,21.0341437 L6.07880452,23.5341437 L6.07880452,18.2341437 L1.77880452,15.7341437 L1.77880452,21.0341437 Z" id="Shape"></path>
                <path d="M6.67880452,24.4341437 L6.27880452,23.7341437 L11.1788045,20.9341437 L11.1788045,15.6341437 L6.67880452,18.2341437 L6.27880452,17.5341437 L11.3788045,14.6341437 C11.4788045,14.5341437 11.6788045,14.5341437 11.7788045,14.6341437 C11.8788045,14.7341437 11.9788045,14.8341437 11.9788045,14.9341437 L11.9788045,21.1341437 C11.9788045,21.2341437 11.8788045,21.4341437 11.7788045,21.4341437 L6.67880452,24.4341437 Z" id="Path"></path>
                <path d="M11.3788045,15.4341437 L6.47880452,12.6341437 L1.57880452,15.4341437 L1.17880452,14.7341437 L6.27880452,11.8341437 C6.37880452,11.7341437 6.57880452,11.7341437 6.67880452,11.8341437 L11.7788045,14.7341437 L11.3788045,15.4341437 Z" id="Path"></path>
                <path d="M18.8788045,24.5341437 C18.7788045,24.5341437 18.7788045,24.5341437 18.6788045,24.4341437 L13.5788045,21.5341437 C13.4788045,21.4341437 13.3788045,21.3341437 13.3788045,21.2341437 L13.3788045,15.0341437 C13.3788045,14.9341437 13.4788045,14.7341437 13.5788045,14.7341437 C13.6788045,14.6341437 13.8788045,14.6341437 13.9788045,14.7341437 L19.0788045,17.6341437 C19.1788045,17.7341437 19.2788045,17.8341437 19.2788045,17.9341437 L19.2788045,24.1341437 C19.2788045,24.2341437 19.1788045,24.4341437 19.0788045,24.4341437 C18.9788045,24.5341437 18.8788045,24.5341437 18.8788045,24.5341437 Z M14.1788045,21.0341437 L18.4788045,23.5341437 L18.4788045,18.2341437 L14.1788045,15.7341437 L14.1788045,21.0341437 Z" id="Shape"></path>
                <path d="M19.0788045,24.4341437 L18.6788045,23.7341437 L23.5788045,20.9341437 L23.5788045,15.6341437 L19.0788045,18.2341437 L18.6788045,17.5341437 L23.7788045,14.6341437 C23.8788045,14.5341437 24.0788045,14.5341437 24.1788045,14.6341437 C24.2788045,14.7341437 24.3788045,14.8341437 24.3788045,14.9341437 L24.3788045,21.1341437 C24.3788045,21.2341437 24.2788045,21.4341437 24.1788045,21.4341437 L19.0788045,24.4341437 Z" id="Path"></path>
                <path d="M13.9788045,15.4341437 L13.5788045,14.7341437 L18.6788045,11.8341437 C18.7788045,11.7341437 18.9788045,11.7341437 19.0788045,11.8341437 L24.1788045,14.7341437 L23.7788045,15.4341437 L18.8788045,12.6341437 L13.9788045,15.4341437 Z" id="Path"></path>
            </g>
        </g>
    </g>
</svg>