<svg viewBox="0 0 25 25" width="25px" height="25px" xmlns="http://www.w3.org/2000/svg">
  <g fill="#044E7C" fill-rule="nonzero">
    <path d="M12.679 13.234c-.1 0-.1 0-.2-.1l-5.1-2.9c-.1-.1-.2-.2-.2-.3v-6.1c0-.1.1-.3.2-.3.1-.1.3-.1.4 0l5.1 2.9c.1.1.2.2.2.3v6.2c0 .1-.1.3-.2.3h-.2zm-4.7-3.5l4.3 2.5v-5.3l-4.3-2.5v5.3z"/>
    <path d="M12.879 13.234l-.4-.7 4.9-2.8v-5.2l-4.5 2.6-.4-.7 5.1-2.9c.1-.1.3-.1.4 0 .1.1.2.2.2.3v6.2c0 .1-.1.3-.2.3l-5.1 2.9z"/>
    <path d="M17.579 4.134l-4.9-2.8-4.9 2.8-.4-.7 5.1-2.9c.1-.1.3-.1.4 0l5.1 2.9-.4.7zM6.479 24.534c-.1 0-.1 0-.2-.1l-5.1-2.9c-.1-.1-.2-.2-.2-.3v-6.2c0-.1.1-.3.2-.3.1-.1.3-.1.4 0l5.1 2.9c.1.1.2.2.2.3v6.2c0 .1-.1.3-.2.3 0 .1-.1.1-.2.1zm-4.7-3.5l4.3 2.5v-5.3l-4.3-2.5v5.3z"/>
    <path d="M6.679 24.434l-.4-.7 4.9-2.8v-5.3l-4.5 2.6-.4-.7 5.1-2.9c.1-.1.3-.1.4 0 .1.1.2.2.2.3v6.2c0 .1-.1.3-.2.3l-5.1 3z"/>
    <path d="M11.379 15.434l-4.9-2.8-4.9 2.8-.4-.7 5.1-2.9c.1-.1.3-.1.4 0l5.1 2.9-.4.7zM18.879 24.534c-.1 0-.1 0-.2-.1l-5.1-2.9c-.1-.1-.2-.2-.2-.3v-6.2c0-.1.1-.3.2-.3.1-.1.3-.1.4 0l5.1 2.9c.1.1.2.2.2.3v6.2c0 .1-.1.3-.2.3-.1.1-.2.1-.2.1zm-4.7-3.5l4.3 2.5v-5.3l-4.3-2.5v5.3z"/>
    <path d="M19.079 24.434l-.4-.7 4.9-2.8v-5.3l-4.5 2.6-.4-.7 5.1-2.9c.1-.1.3-.1.4 0 .1.1.2.2.2.3v6.2c0 .1-.1.3-.2.3l-5.1 3z"/>
    <path d="M13.979 15.434l-.4-.7 5.1-2.9c.1-.1.3-.1.4 0l5.1 2.9-.4.7-4.9-2.8-4.9 2.8z"/>
  </g>
</svg>