<?xml version="1.0" encoding="UTF-8"?>
<svg width="25px" height="25px" viewBox="0 0 25 25" version="1.1" xmlns="http://www.w3.org/2000/svg" xmlns:xlink="http://www.w3.org/1999/xlink">
    <title>HTTP_API_25x25</title>
    <g id="Design" stroke="none" stroke-width="1" fill="none" fill-rule="evenodd">
        <g id="-Icon" transform="translate(-146.000000, -249.000000)" fill="#003037" fill-rule="nonzero">
            <g id="HTTP_API_25x25" transform="translate(146.000000, 249.000000)">
                <g id="ct-api-first" transform="translate(1.000000, 2.000000)">
                    <path d="M3.29640222,15.9110586 L4.76660263,15.9110586 L5.05582238,16.7323944 L5.90540541,16.7323944 L4.41110335,12.7042254 L4.41110335,12.7042254 L3.66395232,12.7042254 L2.17567568,16.696159 L2.17567568,16.7323944 L3.01320788,16.7323944 L3.29640222,15.9110586 Z M4.03150242,13.8214836 L4.49545911,15.1561543 L3.57357115,15.1561543 L4.03150242,13.8214836 Z" id="Shape"></path>
                    <path d="M7.71663115,15.4097338 L8.45972844,15.4097338 C8.65949487,15.4110507 8.85742742,15.3742187 9.04128284,15.3015162 C9.21759083,15.2354861 9.37795906,15.1373758 9.51298808,15.0129357 C9.64972627,14.8930358 9.75763337,14.7475602 9.82961214,14.5860771 C9.90707525,14.4190412 9.94667068,14.2389332 9.94593465,14.0570128 C9.94671451,13.8770294 9.90709856,13.6988757 9.82961214,13.5339607 C9.75791202,13.3705845 9.65002871,13.2230925 9.51298808,13.10109 C9.37569382,12.9792754 9.21589767,12.8815151 9.04128284,12.8125095 C8.85742742,12.739807 8.65949487,12.702975 8.45972844,12.7042577 L6.83783784,12.7042577 L6.83783784,16.7323944 L7.71663115,16.7323944 L7.71663115,15.4097338 Z M7.71663115,13.4918761 L8.45972844,13.4918761 C8.53956832,13.4907265 8.61879062,13.505059 8.6923502,13.5339607 C8.76349661,13.5691032 8.82879261,13.613655 8.88620167,13.6662268 C8.94158429,13.7191514 8.98740735,13.780058 9.0218977,13.8465896 C9.05503506,13.9125061 9.07265939,13.9842473 9.07359142,14.0570128 C9.07338382,14.1317871 9.05574713,14.2056297 9.0218977,14.2734482 C8.98574974,14.3390634 8.94009148,14.3997509 8.88620167,14.453811 C8.83048787,14.5066388 8.76476902,14.5494409 8.6923502,14.580065 C8.61898349,14.6102308 8.53992165,14.6265776 8.45972844,14.6281617 L7.71663115,14.6281617 L7.71663115,13.4918761 Z" id="Shape"></path>
                    <rect id="Rectangle" x="10.5675676" y="12.7042254" width="1" height="4.02816901"></rect>
                    <path d="M19.2346521,12.0280107 C17.8517436,12.0349398 16.6812026,13.0489258 16.4796726,14.4145232 L14.3710778,14.4145232 L14.3710778,7.64334206 L11.0136426,7.64334206 L11.0136426,5.05638756 L15.8834925,5.05638756 L19.2346521,8.35115286 L23,4.59286544 L19.2346521,0.834578026 L15.9085948,4.1669262 L10.1978172,4.1669262 L10.1978172,7.59949538 L5.62919509,7.59949538 L5.62919509,5.55749255 C7.07998964,5.34417272 8.11985664,4.04933078 8.01270997,2.58954083 C7.9055633,1.12975089 6.68773435,0 5.2212824,0 C3.75483045,0 2.53700151,1.12975089 2.42985483,2.58954083 C2.32270816,4.04933078 3.36257516,5.34417272 4.81336971,5.55749255 L4.81336971,7.64334206 L0,7.64334206 L0,22 L14.3710778,22 L14.3710778,15.2288188 L16.4545703,15.2288188 C16.6750148,16.6957369 18.0078378,17.7333793 19.4869569,17.5896223 C20.966076,17.4458653 22.0733058,16.1710718 22.0060829,14.689262 C21.93886,13.2074522 20.7207348,12.0377541 19.2346521,12.0280107 L19.2346521,12.0280107 Z M19.2346521,2.00591094 L21.820191,4.59286544 L19.2346521,7.19861139 L16.6302865,4.61792069 L19.2346521,2.00591094 Z M3.23819918,2.80767892 C3.23819918,1.71450598 4.12605578,0.828314213 5.2212824,0.828314213 C6.31650902,0.828314213 7.20436562,1.71450598 7.20436562,2.80767892 C7.20436562,3.90085186 6.31650902,4.78704363 5.2212824,4.78704363 C4.12748595,4.78360503 3.24164424,3.89942438 3.23819918,2.80767892 L3.23819918,2.80767892 Z M13.5866303,21.1857044 L0.815825375,21.1857044 L0.815825375,8.45763767 L13.5866303,8.45763767 L13.5866303,21.1857044 Z M19.2346521,16.8010357 C18.4325698,16.8010357 17.7094657,16.318779 17.4025221,15.5791411 C17.0955785,14.8395032 17.2652427,13.9881432 17.8324005,13.4220488 C18.3995583,12.8559545 19.2525178,12.6866084 19.9935452,12.9929765 C20.7345726,13.2993445 21.2177353,14.0210927 21.2177353,14.821671 C21.2177353,15.914844 20.3298787,16.8010357 19.2346521,16.8010357 L19.2346521,16.8010357 Z" id="Shape"></path>
                </g>
            </g>
        </g>
    </g>
</svg>