<svg viewBox="0 0 25 25" width="25px" height="25px" xmlns="http://www.w3.org/2000/svg">
  <g fill-rule="nonzero" fill="none">
    <path d="M12.422 23.91c-.1 0-.1 0-.2-.1l-11.4-7.4c-.1-.1-.2-.2-.2-.3 0-.1.1-.3.2-.3l2.5-1.6.4.7-2 1.3 10.7 6.9 10.7-6.9-2-1.3.4-.7 2.6 1.7c.1.1.2.2.2.3 0 .1-.1.3-.2.3l-11.4 7.4h-.3z" fill="#078CDF"/>
    <path d="M12.422 20.61c-.1 0-.1 0-.2-.1l-11.4-7.4c-.1-.1-.2-.2-.2-.3 0-.1.1-.3.2-.3l2.6-1.7.4.7-2.1 1.3 10.7 6.9 10.7-6.9-2.1-1.3.4-.7 2.6 1.7c.1.1.2.2.2.3 0 .1-.1.3-.2.3l-11.4 7.4c-.1.1-.1.1-.2.1z" fill="#078CDF"/>
    <path d="M12.422 17.31c-.1 0-.1 0-.2-.1l-11.4-7.4c-.1-.1-.2-.2-.2-.3 0-.1.1-.3.2-.3l2.7-1.7c.2-.1.4-.1.5.1.1.2.1.4-.1.5l-2.2 1.4 10.7 6.9 10.7-6.9-2.3-1.5c-.2-.1-.2-.4-.1-.5.1-.2.4-.2.5-.1l2.8 1.8c.1.1.2.2.2.3 0 .1-.1.3-.2.3l-11.4 7.4c-.1 0-.1.1-.2.1z" fill="#078CDF"/>
    <path d="M10.216 10.816H8.69l-.254-1.76H6.574l-.255 1.76H4.922L6.457 1.11h2.224l1.535 9.706zM6.764 7.733h1.461l-.73-4.906-.73 4.906zM16.392 3.51v1.258c0 1.557-.73 2.4-2.221 2.4h-.699v3.648h-1.491V1.11h2.19c1.491 0 2.221.842 2.221 2.4zm-2.92-1.014v3.285h.699c.48 0 .73-.224.73-.917v-1.45c0-.694-.25-.918-.73-.918h-.699zM18.157 1.11h1.765v9.706h-1.765z" fill="#044E7C"/>
  </g>
</svg>