<?xml version="1.0" encoding="UTF-8"?>
<svg width="80px" height="80px" viewBox="0 0 80 80" version="1.1" xmlns="http://www.w3.org/2000/svg" xmlns:xlink="http://www.w3.org/1999/xlink">
    <title>HTTP_API_25x25 Copy 4</title>
    <g id="Design" stroke="none" stroke-width="1" fill="none" fill-rule="evenodd">
        <g id="-Icon" transform="translate(-146.000000, -50.000000)" fill="#003037" fill-rule="nonzero">
            <g id="HTTP_API_25x25-Copy-4" transform="translate(146.000000, 50.000000)">
                <g id="ct-api-first" transform="translate(3.000000, 5.000000)">
                    <path d="M10.6058158,51.3493253 L15.3360258,51.3493253 L16.266559,54 L19,54 L14.1922456,41 L14.1922456,41 L11.7883683,41 L7,53.8830585 L7,54 L9.69466882,54 L10.6058158,51.3493253 Z M12.9709208,44.6056972 L14.4636511,48.9130435 L11.4975767,48.9130435 L12.9709208,44.6056972 Z" id="Shape"></path>
                    <path d="M24.827422,49.7314137 L27.2182567,49.7314137 C27.8609835,49.7356635 28.49781,49.6167967 29.0893448,49.3821658 C29.6565966,49.1690689 30.1725639,48.8524402 30.6070051,48.4508379 C31.0469454,48.0638883 31.3941248,47.5943988 31.6257086,47.0732487 C31.8749378,46.5341784 32.0023318,45.9529207 31.9999637,45.3658142 C32.0024728,44.7849584 31.8750128,44.2100079 31.6257086,43.6777823 C31.3950213,43.1505229 31.0479185,42.6745258 30.6070051,42.2807905 C30.1652758,41.8876616 29.651149,41.5721624 29.0893448,41.3494626 C28.49781,41.1148317 27.8609835,40.9959648 27.2182567,41.0001045 L22,41.0001045 L22,54 L24.827422,54 L24.827422,49.7314137 Z M24.827422,43.5419637 L27.2182567,43.5419637 C27.4751329,43.5382539 27.730022,43.5845086 27.966692,43.6777823 C28.1955978,43.7911966 28.4056806,43.9349776 28.590388,44.104641 C28.7685755,44.2754432 28.9160063,44.4720052 29.0269752,44.6867209 C29.1335911,44.8994515 29.1902954,45.1309799 29.1932941,45.3658142 C29.1926262,45.607131 29.1358821,45.8454414 29.0269752,46.0643101 C28.9106731,46.2760683 28.7637726,46.4719234 28.590388,46.64639 C28.4111349,46.8168797 28.1996916,46.955014 27.966692,47.053846 C27.7306425,47.1511994 27.4762697,47.2039549 27.2182567,47.2090673 L24.827422,47.2090673 L24.827422,43.5419637 Z" id="Shape"></path>
                    <rect id="Rectangle" x="34" y="41" width="3" height="13"></rect>
                    <path d="M61.8854025,38.817671 C57.4360448,38.840033 53.6699564,42.1124424 53.0215553,46.5195977 L46.2373806,46.5195977 L46.2373806,24.6671494 L35.4351978,24.6671494 L35.4351978,16.3183417 L51.1034106,16.3183417 L61.8854025,26.9514479 L74,14.8224294 L61.8854025,2.6934109 L51.1841746,13.4478073 L32.8103683,13.4478073 L32.8103683,24.5256442 L18.1113233,24.5256442 L18.1113233,17.9355441 C22.7790971,17.2471029 26.1247562,13.0682948 25.7800234,8.35715451 C25.4352906,3.64601424 21.5170583,0 16.7989086,0 C12.0807588,0 8.16252659,3.64601424 7.81779381,8.35715451 C7.47306104,13.0682948 10.8187201,17.2471029 15.4864939,17.9355441 L15.4864939,24.6671494 L0,24.6671494 L0,71 L46.2373806,71 L46.2373806,49.1475517 L52.9407913,49.1475517 C53.6500478,53.8816963 57.9382606,57.2304514 62.6971655,56.7665084 C67.4560705,56.3025654 71.0184621,52.1884591 70.8021797,47.4062547 C70.5858974,42.6240503 66.666712,38.8491156 61.8854025,38.817671 L61.8854025,38.817671 Z M61.8854025,6.47362166 L70.2040928,14.8224294 L61.8854025,23.2318822 L53.5061392,14.9032895 L61.8854025,6.47362166 Z M10.4185539,9.06114561 C10.4185539,5.53317838 13.275136,2.67319587 16.7989086,2.67319587 C20.3226812,2.67319587 23.1792633,5.53317838 23.1792633,9.06114561 C23.1792633,12.5891128 20.3226812,15.4490953 16.7989086,15.4490953 C13.2797374,15.4379981 10.429638,12.5845059 10.4185539,9.06114561 L10.4185539,9.06114561 Z M43.7135061,68.372046 L2.62482947,68.372046 L2.62482947,27.2951034 L43.7135061,27.2951034 L43.7135061,68.372046 Z M61.8854025,54.2215244 C59.3047899,54.2215244 56.978281,52.6651504 55.9907233,50.2781372 C55.0031656,47.891124 55.5490417,45.1435529 57.3738104,43.3166121 C59.198579,41.4896713 61.9428833,40.9431454 64.3270585,41.9318787 C66.7112336,42.9206119 68.2657572,45.2498902 68.2657572,47.8335747 C68.2657572,51.3615419 65.4091751,54.2215244 61.8854025,54.2215244 L61.8854025,54.2215244 Z" id="Shape"></path>
                </g>
            </g>
        </g>
    </g>
</svg>