<?xml version="1.0" encoding="UTF-8"?>
<svg id="Logos" xmlns="http://www.w3.org/2000/svg" viewBox="0 0 298.34 333.32">
  <defs>
    <style>
      .cls-1 {
        fill: #191741;
        stroke-width: 0px;
      }
    </style>
  </defs>
  <path class="cls-1" d="m162.74,166.62l80.92-46.72c6.58-3.8,6.58-13.3,0-17.11l-85.86-49.57c-4.07-2.35-9.09-2.35-13.17,0l-88.33,51c-4.07,2.35-6.58,6.7-6.58,11.4v103.9c0,3.53,1.88,6.78,4.93,8.55l89.98,52.03c4.08,2.36,9.11,2.36,13.18,0l85.88-49.66c6.58-3.8,6.58-13.3,0-17.1l-80.94-46.73Zm-11.52-103.9l84.22,48.62-84.22,48.62-84.22-48.62,84.22-48.62Zm-5.76,204.47l-84.22-48.62v-97.25l84.22,48.62v97.25Zm11.52-90.6l78.46,45.3-78.46,45.3v-90.6Z"/>
</svg>