<svg xmlns="http://www.w3.org/2000/svg" width="430" height="430" style="width:100%;height:100%;transform:translate3d(0,0,0);content-visibility:visible" viewBox="0 0 430 430"><defs><clipPath id="i"><path d="M0 0h430v430H0z"/></clipPath><clipPath id="p"><path d="M0 0h430v430H0z"/></clipPath><clipPath id="e"><path d="M0 0h430v430H0z"/></clipPath><clipPath id="m"><path d="M0 0h430v430H0z"/></clipPath><clipPath id="g"><path d="M0 0h430v430H0z"/></clipPath><clipPath id="j"><path d="M0 0h430v430H0z"/></clipPath><clipPath id="h"><path d="M0 0h430v430H0z"/></clipPath><mask id="f" mask-type="alpha"><use xmlns:ns1="http://www.w3.org/1999/xlink" ns1:href="#a"/></mask><mask id="r" mask-type="alpha"><use xmlns:ns2="http://www.w3.org/1999/xlink" ns2:href="#b"/></mask><mask id="n" mask-type="alpha"><use xmlns:ns3="http://www.w3.org/1999/xlink" ns3:href="#c"/></mask><mask id="l" mask-type="alpha"><use xmlns:ns4="http://www.w3.org/1999/xlink" ns4:href="#d"/></mask><filter id="q" width="300%" height="300%" x="-100%" y="-100%"><feGaussianBlur result="filter_result_0"/></filter><filter id="o" width="300%" height="300%" x="-100%" y="-100%"><feGaussianBlur result="filter_result_0" stdDeviation="52.5 52.5"/></filter><filter id="k" width="300%" height="300%" x="-100%" y="-100%"><feGaussianBlur result="filter_result_0"/></filter><g id="b" fill-opacity="0" stroke-linejoin="round" clip-path="url(#e)" style="display:none"><g stroke-linecap="round" mask="url(#f)" style="display:none"><path class="primary"/><path class="primary"/><path class="primary"/><path class="primary"/><path class="primary"/></g><path class="secondary" style="display:none"/></g><g id="c" fill-opacity="0" stroke-linejoin="round" clip-path="url(#g)" style="display:block"><path stroke="#121331" stroke-width="12" d="M-155-135c-16.569 0-30 13.431-30 30v210c0 16.569 13.431 30 30 30h310c16.569 0 30-13.431 30-30v-210c0-16.569-13.431-30-30-30h-310z" class="secondary" style="display:block" transform="translate(215 215)"/><path stroke="#08A88A" stroke-linecap="round" stroke-width="12" d="M310 165h-35m70 0h-35m0 100h-35m70 0h-35m0 0V165M187 265v-34.722m0 0V165h38.889c15.341 0 27.778 12.437 27.778 27.778v9.722c0 15.341-12.437 27.778-27.778 27.778H187zM117.196 165h7.621l23.969 71.444 10.028 28.563m-82.853-.047 10.003-28.548L109.91 165h7.286m31.688 71.462-62.938-.062" class="primary" style="display:block"/><g stroke-linecap="round" style="display:none"><path class="primary"/><path class="primary"/><path class="primary"/><path class="primary"/><path class="primary"/></g></g><g id="d" fill-opacity="0" stroke-linejoin="round" clip-path="url(#h)" style="display:none"><g stroke-linecap="round" style="display:none"><path class="primary"/><path class="primary"/><path class="primary"/><path class="primary"/><path class="primary"/></g><path class="secondary" style="display:none"/></g><path id="a" style="display:none"/></defs><g clip-path="url(#i)"><g clip-path="url(#j)" filter="url(#k)" mask="url(#l)" style="display:none"><g class="design"><path class="primary"/></g><g class="design"><path class="secondary"/></g></g><g clip-path="url(#m)" mask="url(#n)" style="display:block"><g filter="url(#o)" transform="rotate(-94 238.762 -16.565) scale(2.4)"><g class="design"><path fill="#4E4ED7" d="M0-250c137.975 0 250 112.025 250 250S137.975 250 0 250-250 137.975-250 0-137.975-250 0-250z" class="primary"/></g><g class="design"><path fill="#4E4ED7" d="M113.242-295.384c97.478 0 176.5 79.022 176.5 176.5s-79.022 176.5-176.5 176.5c-43.948 0-74.396-34.057-105.29-60.631-37.631-32.369-71.21-62.338-71.21-115.869 0-97.478 79.022-176.5 176.5-176.5z" class="secondary"/></g></g></g><g clip-path="url(#p)" filter="url(#q)" mask="url(#r)" style="display:none"><g class="design"><path class="primary"/></g><g class="design"><path class="secondary"/></g></g></g></svg>