<svg xmlns="http://www.w3.org/2000/svg" width="430" height="430" style="width:100%;height:100%;transform:translate3d(0,0,0);content-visibility:visible" viewBox="0 0 430 430"><defs><clipPath id="w"><path d="M0 0h430v430H0z"/></clipPath><clipPath id="M"><path d="M0 0h430v430H0z"/></clipPath><clipPath id="h"><path d="M0 0h430v430H0z"/></clipPath><clipPath id="i"><path d="M0 0h309v253H0z"/></clipPath><clipPath id="J"><path d="M0 0h430v430H0z"/></clipPath><clipPath id="k"><path d="M0 0h430v430H0z"/></clipPath><clipPath id="m"><path d="M0 0h309v253H0z"/></clipPath><clipPath id="l"><path d="M0 0h309v253H0z"/></clipPath><clipPath id="G"><path d="M0 0h430v430H0z"/></clipPath><clipPath id="n"><path d="M0 0h430v430H0z"/></clipPath><clipPath id="o"><path d="M0 0h309v253H0z"/></clipPath><clipPath id="D"><path d="M0 0h430v430H0z"/></clipPath><clipPath id="p"><path d="M0 0h430v430H0z"/></clipPath><clipPath id="q"><path d="M0 0h309v253H0z"/></clipPath><clipPath id="A"><path d="M0 0h430v430H0z"/></clipPath><clipPath id="r"><path d="M0 0h430v430H0z"/></clipPath><clipPath id="t"><path d="M0 0h309v253H0z"/></clipPath><clipPath id="s"><path d="M0 0h309v253H0z"/></clipPath><clipPath id="x"><path d="M0 0h430v430H0z"/></clipPath><clipPath id="u"><path d="M0 0h430v430H0z"/></clipPath><clipPath id="v"><path d="M0 0h309v253H0z"/></clipPath><mask id="j" mask-type="alpha"><use xmlns:ns1="http://www.w3.org/1999/xlink" ns1:href="#a"/></mask><mask id="O" mask-type="alpha"><use xmlns:ns2="http://www.w3.org/1999/xlink" ns2:href="#b"/></mask><mask id="K" mask-type="alpha"><use xmlns:ns3="http://www.w3.org/1999/xlink" ns3:href="#c"/></mask><mask id="I" mask-type="alpha"><use xmlns:ns4="http://www.w3.org/1999/xlink" ns4:href="#d"/></mask><mask id="F" mask-type="alpha"><use xmlns:ns5="http://www.w3.org/1999/xlink" ns5:href="#e"/></mask><mask id="C" mask-type="alpha"><use xmlns:ns6="http://www.w3.org/1999/xlink" ns6:href="#f"/></mask><mask id="z" mask-type="alpha"><use xmlns:ns7="http://www.w3.org/1999/xlink" ns7:href="#g"/></mask><filter id="N" width="300%" height="300%" x="-100%" y="-100%"><feGaussianBlur result="filter_result_0"/></filter><filter id="L" width="300%" height="300%" x="-100%" y="-100%"><feGaussianBlur result="filter_result_0" stdDeviation="52.5 52.5"/></filter><filter id="H" width="300%" height="300%" x="-100%" y="-100%"><feGaussianBlur result="filter_result_0"/></filter><filter id="E" width="300%" height="300%" x="-100%" y="-100%"><feGaussianBlur result="filter_result_0"/></filter><filter id="B" width="300%" height="300%" x="-100%" y="-100%"><feGaussianBlur result="filter_result_0"/></filter><filter id="y" width="300%" height="300%" x="-100%" y="-100%"><feGaussianBlur result="filter_result_0"/></filter><g id="b" clip-path="url(#h)" style="display:none"><path fill-opacity="0" stroke-linecap="round" class="primary" style="display:none"/><g clip-path="url(#i)" style="display:none"><g mask="url(#j)" style="display:none"><path fill-opacity="0" stroke-linejoin="round" class="secondary"/></g><path fill-opacity="0" stroke-linejoin="round" class="secondary" style="display:none"/><path fill-opacity="0" stroke-linejoin="round" class="secondary" style="display:none"/><path fill-opacity="0" stroke-linejoin="round" class="secondary" style="display:none"/></g></g><g id="c" fill-opacity="0" clip-path="url(#k)" style="display:block"><path stroke="#121331" stroke-linecap="round" stroke-width="12" d="M0 100V-73.5" class="primary" style="display:block" transform="translate(100 300)"/><g stroke-linejoin="round" clip-path="url(#l)" style="display:block" transform="translate(75.413 12.934)"><path stroke="#08A88A" stroke-width="12" d="M0-85c-43.199-21.932-86.398-22-129.597-.204l-.402.203L-130-85V85l.002-.001.642-.324C-86.237 63.001-43.119 63.109 0 85c43.333 22 86.667 22 130 0L80 10l50-95C86.667-63 43.333-63 0-85z" class="secondary" style="display:block" transform="translate(154.5 127)"/><path class="secondary" style="display:none"/></g><g stroke-linejoin="round" clip-path="url(#m)" style="display:none"><path class="secondary" style="display:none"/><path class="secondary" style="display:none"/></g></g><g id="d" fill-opacity="0" clip-path="url(#n)" style="display:none"><path stroke-linecap="round" class="primary" style="display:none"/><g stroke-linejoin="round" clip-path="url(#o)" style="display:none"><path class="secondary" style="display:none"/><path class="secondary" style="display:none"/></g></g><g id="e" fill-opacity="0" clip-path="url(#p)" style="display:none"><path stroke-linecap="round" class="primary" style="display:none"/><g stroke-linejoin="round" clip-path="url(#q)" style="display:none"><path class="secondary" style="display:none"/><path class="secondary" style="display:none"/></g><path stroke-linecap="round" stroke-linejoin="round" class="primary" style="display:none"/></g><g id="f" fill-opacity="0" clip-path="url(#r)" style="display:none"><path stroke-linecap="round" class="primary" style="display:none"/><g stroke-linejoin="round" clip-path="url(#s)" style="display:none"><path class="secondary" style="display:none"/><path class="secondary" style="display:none"/></g><g stroke-linejoin="round" clip-path="url(#t)" style="display:none"><path class="secondary" style="display:none"/><path class="secondary" style="display:none"/></g><path stroke-linecap="round" stroke-linejoin="round" class="primary" style="display:none"/></g><g id="g" fill-opacity="0" clip-path="url(#u)" style="display:none"><path stroke-linecap="round" class="primary" style="display:none"/><g stroke-linejoin="round" clip-path="url(#v)" style="display:none"><path class="secondary" style="display:none"/><path class="secondary" style="display:none"/></g><path stroke-linecap="round" stroke-linejoin="round" class="primary" style="display:none"/></g><path id="a" style="display:none"/></defs><g clip-path="url(#w)"><g clip-path="url(#x)" filter="url(#y)" mask="url(#z)" style="display:none"><g class="design"><path class="primary"/></g><g class="design"><path class="secondary"/></g></g><g clip-path="url(#A)" filter="url(#B)" mask="url(#C)" style="display:none"><g class="design"><path class="primary"/></g><g class="design"><path class="secondary"/></g></g><g clip-path="url(#D)" filter="url(#E)" mask="url(#F)" style="display:none"><g class="design"><path class="primary"/></g><g class="design"><path class="secondary"/></g></g><g clip-path="url(#G)" filter="url(#H)" mask="url(#I)" style="display:none"><g class="design"><path class="primary"/></g><g class="design"><path class="secondary"/></g></g><g clip-path="url(#J)" mask="url(#K)" style="display:block"><g filter="url(#L)" transform="rotate(-127 176.616 49.73) scale(2.4)"><g class="design"><path fill="#4E4ED7" d="M0-250c137.975 0 250 112.025 250 250S137.975 250 0 250-250 137.975-250 0-137.975-250 0-250z" class="primary"/></g><g class="design"><path fill="#4E4ED7" d="M113.242-295.384c97.478 0 176.5 79.022 176.5 176.5s-79.022 176.5-176.5 176.5c-43.948 0-74.396-34.057-105.29-60.631-37.631-32.369-71.21-62.338-71.21-115.869 0-97.478 79.022-176.5 176.5-176.5z" class="secondary"/></g></g></g><g clip-path="url(#M)" filter="url(#N)" mask="url(#O)" style="display:none"><g class="design"><path class="primary"/></g><g class="design"><path class="secondary"/></g></g></g></svg>