<svg width="430" height="430" viewBox="0 0 430 430" fill="none" xmlns="http://www.w3.org/2000/svg">
<path fill-rule="evenodd" clip-rule="evenodd" d="M365.083 233.027C364.827 233.464 364.514 233.873 364.146 234.241L219.244 379.241C218.119 380.367 216.593 380.999 215.001 381C213.409 381 211.883 380.368 210.757 379.242L69.4459 237.933C47.5772 218.108 33.8284 189.456 33.8284 157.6C33.8284 97.7321 82.3607 49.1997 142.228 49.1997C170.102 49.1997 195.527 59.7272 214.728 77.0113C233.93 59.7272 259.355 49.1997 287.228 49.1997C347.096 49.1997 395.628 97.7321 395.628 157.6C395.628 186.914 383.985 213.52 365.083 233.027ZM142.228 61.1997C88.9881 61.1997 45.8284 104.359 45.8284 157.6C45.8284 166.754 47.1036 175.61 49.4868 184H114.905C117.445 184 119.71 185.6 120.56 187.994L135.553 230.261L164.471 128.362C165.184 125.85 167.44 124.087 170.05 124.003C172.66 123.919 175.024 125.533 175.898 127.994L195.765 184H239.473C242.014 184 244.279 185.6 245.128 187.994L260.122 230.261L289.039 128.362C289.752 125.85 292.008 124.087 294.618 124.003C297.228 123.919 299.593 125.533 300.466 127.994L320.333 184H379.97C382.353 175.61 383.628 166.755 383.628 157.6C383.628 104.359 340.469 61.1997 287.228 61.1997C260.562 61.1997 236.435 72.0189 218.976 89.5216C217.851 90.6501 216.322 91.2843 214.728 91.2843C213.134 91.2843 211.606 90.6501 210.48 89.5216C193.022 72.0189 168.894 61.1997 142.228 61.1997ZM375.678 196C370.828 207.157 363.927 217.218 355.448 225.71C355.094 226.065 354.79 226.458 354.54 226.878L214.998 366.513L77.8258 229.342C77.7545 229.271 77.6815 229.202 77.6067 229.134C67.4732 219.974 59.2981 208.696 53.7784 196H110.667L130.534 252.006C131.407 254.467 133.772 256.081 136.382 255.997C138.992 255.913 141.248 254.15 141.961 251.638L170.878 149.738L185.872 192.006C186.721 194.4 188.986 196 191.527 196H235.235L255.102 252.006C255.975 254.467 258.34 256.081 260.95 255.997C263.56 255.913 265.816 254.15 266.529 251.638L295.447 149.738L310.44 192.006C311.29 194.4 313.555 196 316.095 196H375.678Z" fill="url(#paint0_linear_2176_5606)"/>
<defs>
<linearGradient id="paint0_linear_2176_5606" x1="88.2289" y1="121.691" x2="331.116" y2="374.325" gradientUnits="userSpaceOnUse">
<stop stop-color="#4E4ED7"/>
<stop offset="1" stop-color="#4E4ED7"/>
</linearGradient>
</defs>
</svg>
