<svg width="430" height="430" viewBox="0 0 430 430" fill="none" xmlns="http://www.w3.org/2000/svg">
<path d="M71 226.5C57.2 226.5 46 237.7 46 251.5C46 265.3 57.2 276.5 71 276.5C73.3 276.5 75.2 274.6 75.2 272.3V230.7C75.2 228.4 73.3 226.5 71 226.5ZM359.9 226.5C357.6 226.5 355.7 228.4 355.7 230.7V262.2C355.6 262.4 355.5 262.6 355.5 262.8L345.7 291.6V210.7C345.7 209.6 345.6 208.4 345.4 207.3C345.6 206.8 345.6 206.2 345.6 205.6L345.4 173.1C345.4 101.1 286.9 42.5 215.1 42.5C143.1 42.5 84.5 101.1 84.5 173.1V292.6C84.5 304.8 94.4 314.7 106.6 314.7H113.4C125.6 314.7 135.5 304.8 135.5 292.6V210.6C135.5 198.4 125.6 188.5 113.4 188.5H106.6C103.2 188.5 99.9 189.3 97.1 190.7V173.1C97.1 108.1 150 55.1 215.1 55.1C280 55.1 332.8 108 332.8 173.1L332.9 190.6C330 189.3 326.9 188.5 323.5 188.5H316.7C304.5 188.5 294.6 198.4 294.6 210.6V292.6C294.6 304.8 304.5 314.7 316.7 314.7H323.5C330.3 314.7 336.4 311.6 340.5 306.8L331 334.7C325 352.3 312.3 364.5 304.7 364.5H289.7C287.9 357.8 281.7 352.8 274.4 352.8H251.2C242.4 352.8 235.3 359.9 235.3 368.7V372.8C235.3 381.6 242.4 388.7 251.2 388.7H274.4C281.7 388.7 287.9 383.7 289.7 377H304.7C319.1 377 335.5 360.5 343 338.6L364.3 275.9C376 273.8 384.9 263.6 384.9 251.3C384.9 237.7 373.7 226.5 359.9 226.5ZM106.7 201.1H113.5C118.8 201.1 123 205.4 123 210.6V292.6C123 297.9 118.7 302.1 113.5 302.1H106.7C101.4 302.1 97.2 297.8 97.2 292.6V210.6C97.2 205.4 101.5 201.1 106.7 201.1ZM333.1 292.6C333.1 297.9 328.8 302.1 323.6 302.1H316.8C311.5 302.1 307.3 297.8 307.3 292.6V210.6C307.3 205.3 311.6 201.1 316.8 201.1H323.6C328.9 201.1 333.1 205.4 333.1 210.6V292.6Z" fill="url(#paint0_linear_2160_5609)"/>
<defs>
<linearGradient id="paint0_linear_2160_5609" x1="104.081" y1="99.5187" x2="348.506" y2="343.944" gradientUnits="userSpaceOnUse">
<stop stop-color="#4E4ED7"/>
<stop offset="1" stop-color="#4E4ED7"/>
</linearGradient>
</defs>
</svg>
