<svg xmlns="http://www.w3.org/2000/svg" width="500" height="500" style="width:100%;height:100%;transform:translate3d(0,0,0);content-visibility:visible" viewBox="0 0 500 500"><defs><clipPath id="f"><path d="M0 0h500v500H0z"/></clipPath><clipPath id="d"><path d="M0 0h500v500H0z"/></clipPath><filter id="a" width="100%" height="100%" x="0%" y="0%" filterUnits="objectBoundingBox"><feComponentTransfer in="SourceGraphic"><feFuncA tableValues="1.0 0.0" type="table"/></feComponentTransfer></filter><filter id="h" width="300%" height="300%" x="-100%" y="-100%"><feGaussianBlur result="filter_result_0" stdDeviation="52.5 52.5"/></filter><mask id="e" mask-type="alpha"><g filter="url(#a)"><path fill="#fff" d="M0 0h500v500H0z" opacity="0"/><use href="#b"/></g></mask><mask id="g" mask-type="alpha"><use href="#c"/></mask><g id="c" clip-path="url(#d)" style="display:block"><g mask="url(#e)" style="display:block"><path fill-opacity="0" stroke="#4AE0EB" stroke-linecap="round" stroke-linejoin="round" stroke-width="12" d="m232.6 312.45-62.4-62.4 62.5-62.5m177.7 62.5-239.9-.1"/></g><path fill-opacity="0" stroke-linecap="round" stroke-linejoin="round" style="display:none"/><path fill-opacity="0" stroke="#CA5EED" stroke-linecap="round" stroke-linejoin="round" stroke-width="12" d="M100.05-53.35v-42.1c0-21-17-38-38-38h-124.1c-21 0-38 17-38 38v190.9c0 21 17 38 38 38h124.1c21 0 38-17 38-38v-42.1" style="display:block" transform="translate(189.95 250)"/></g><g id="b" style="display:block"><path fill-opacity="0" stroke="#CA5EED" stroke-width="0" d="M90 46v409h-357V46H90z"/><path fill="red" d="M90 46v409h-357V46H90z"/></g></defs><g clip-path="url(#f)"><g mask="url(#g)" style="display:block"><g filter="url(#h)" transform="rotate(-94 262.075 8.435) scale(2.4)"><path fill="#4AE0EB" d="M0-250c137.975 0 250 112.025 250 250S137.975 250 0 250-250 137.975-250 0-137.975-250 0-250z" class="design"/><path fill="#CA5EED" d="M113.242-295.384c97.478 0 176.5 79.022 176.5 176.5s-79.022 176.5-176.5 176.5c-43.948 0-74.396-34.057-105.29-60.631-37.631-32.369-71.21-62.338-71.21-115.869 0-97.478 79.022-176.5 176.5-176.5z" class="design"/></g></g><path style="display:none"/></g></svg>
