<svg width="430" height="430" viewBox="0 0 430 430" fill="none" xmlns="http://www.w3.org/2000/svg">
<path d="M255.26 264.525L237.66 270.355L224.34 274.765C223.587 275.005 222.77 274.938 222.065 274.578C221.361 274.219 220.828 273.596 220.58 272.845L199 207.765L193.45 190.985L176.57 139.985C176.334 139.242 176.395 138.436 176.743 137.738C177.09 137.04 177.695 136.505 178.43 136.245L191.78 131.825L209.38 125.995C209.755 125.87 210.151 125.82 210.545 125.849C210.94 125.877 211.324 125.983 211.677 126.16C212.03 126.338 212.345 126.583 212.603 126.883C212.861 127.182 213.057 127.53 213.18 127.905L257.18 260.705C257.308 261.082 257.36 261.48 257.333 261.877C257.305 262.274 257.199 262.662 257.02 263.017C256.842 263.373 256.594 263.689 256.292 263.948C255.99 264.207 255.639 264.403 255.26 264.525Z" fill="#4BB3FD"/>
<path d="M388.46 211.415V310.855C388.46 311.651 388.144 312.414 387.581 312.976C387.019 313.539 386.256 313.855 385.46 313.855H44.54C43.7444 313.855 42.9813 313.539 42.4187 312.976C41.8561 312.414 41.54 311.651 41.54 310.855V211.415C41.54 210.619 41.8561 209.856 42.4187 209.294C42.9813 208.731 43.7444 208.415 44.54 208.415H77.09C77.8857 208.415 78.6487 208.731 79.2114 209.294C79.774 209.856 80.09 210.619 80.09 211.415V272.305C80.09 273.101 80.4061 273.864 80.9687 274.426C81.5313 274.989 82.2944 275.305 83.09 275.305H346.91C347.706 275.305 348.469 274.989 349.031 274.426C349.594 273.864 349.91 273.101 349.91 272.305V211.415C349.91 210.619 350.226 209.856 350.789 209.294C351.351 208.731 352.114 208.415 352.91 208.415H385.46C386.256 208.415 387.019 208.731 387.581 209.294C388.144 209.856 388.46 210.619 388.46 211.415Z" fill="#3A3347"/>
<path d="M128.27 137.255V272.255C128.27 273.051 127.954 273.814 127.391 274.376C126.829 274.939 126.065 275.255 125.27 275.255H83.0898C82.2942 275.255 81.5311 274.939 80.9685 274.376C80.4059 273.814 80.0898 273.051 80.0898 272.255V137.255C80.0889 136.485 80.3843 135.743 80.9149 135.185C81.4454 134.626 82.1705 134.293 82.9399 134.255H125.27C126.065 134.255 126.829 134.571 127.391 135.134C127.954 135.696 128.27 136.459 128.27 137.255Z" fill="#08A88A"/>
<path d="M349.91 119.445V272.315C349.91 273.111 349.594 273.874 349.031 274.436C348.469 274.999 347.706 275.315 346.91 275.315H310.08C309.31 275.316 308.568 275.02 308.01 274.49C307.451 273.959 307.118 273.234 307.08 272.465C307.075 272.415 307.075 272.365 307.08 272.315V119.445C307.075 119.395 307.075 119.345 307.08 119.295C307.109 118.719 307.304 118.163 307.641 117.695C307.978 117.227 308.443 116.866 308.98 116.655C309.326 116.513 309.696 116.442 310.07 116.445H346.9C347.274 116.442 347.644 116.513 347.99 116.655C348.554 116.872 349.039 117.255 349.381 117.753C349.724 118.251 349.908 118.841 349.91 119.445Z" fill="#FFC738"/>
<path d="M176.451 119.585V272.305C176.451 273.101 176.134 273.864 175.572 274.426C175.009 274.989 174.246 275.305 173.451 275.305H131.271C130.475 275.305 129.712 274.989 129.149 274.426C128.587 273.864 128.271 273.101 128.271 272.305V119.585C128.271 118.789 128.587 118.026 129.149 117.464C129.712 116.901 130.475 116.585 131.271 116.585H173.451C174.246 116.585 175.009 116.901 175.572 117.464C176.134 118.026 176.451 118.789 176.451 119.585Z" fill="#F9C9C0"/>
<g style="mix-blend-mode:multiply" opacity="0.5">
<path d="M237.66 270.355L224.34 274.765C223.587 275.005 222.77 274.938 222.065 274.578C221.361 274.219 220.828 273.596 220.58 272.845L199 207.765L193.45 190.985L176.57 139.985C176.334 139.242 176.395 138.436 176.743 137.738C177.09 137.04 177.695 136.504 178.43 136.245L191.78 131.825L193.45 136.825L237.66 270.355Z" fill="#4BB3FD"/>
</g>
<g style="mix-blend-mode:multiply" opacity="0.5">
<path d="M44.54 208.415H59.45V313.865H44.54C43.7444 313.865 42.9813 313.549 42.4187 312.986C41.8561 312.424 41.54 311.661 41.54 310.865V211.415C41.54 210.619 41.8561 209.856 42.4187 209.294C42.9813 208.731 43.7444 208.415 44.54 208.415Z" fill="#3A3347"/>
</g>
<g style="mix-blend-mode:multiply" opacity="0.5">
<path d="M97.9998 134.265V275.265H83.0898C82.2942 275.265 81.5311 274.949 80.9685 274.386C80.4059 273.824 80.0898 273.061 80.0898 272.265V137.265C80.0889 136.495 80.3843 135.754 80.9149 135.195C81.4454 134.637 82.1705 134.304 82.9399 134.265H97.9998Z" fill="#08A88A"/>
</g>
<g style="mix-blend-mode:multiply" opacity="0.5">
<path d="M146.18 116.585V275.305H131.271C130.475 275.305 129.712 274.989 129.149 274.426C128.587 273.864 128.271 273.101 128.271 272.305V119.585C128.271 118.789 128.587 118.026 129.149 117.464C129.712 116.901 130.475 116.585 131.271 116.585H146.18Z" fill="#F9C9C0"/>
</g>
<g style="mix-blend-mode:multiply" opacity="0.5">
<path d="M349.91 247.345V272.345C349.91 273.14 349.594 273.903 349.031 274.466C348.469 275.029 347.706 275.345 346.91 275.345H310.08C309.31 275.346 308.569 275.05 308.01 274.52C307.452 273.989 307.119 273.264 307.08 272.495V247.345H349.91Z" fill="#FFC738"/>
</g>
<g style="mix-blend-mode:multiply" opacity="0.5">
<path d="M349.91 119.445V144.555H307.09V119.295C307.119 118.719 307.314 118.163 307.651 117.695C307.988 117.227 308.453 116.866 308.99 116.655C309.336 116.513 309.706 116.442 310.08 116.445H346.91C347.284 116.442 347.654 116.513 348 116.655C348.562 116.874 349.045 117.257 349.385 117.755C349.726 118.253 349.909 118.842 349.91 119.445Z" fill="#FFC738"/>
</g>
</svg>
