<svg xmlns="http://www.w3.org/2000/svg" width="430" height="430" style="width:100%;height:100%;transform:translate3d(0,0,0);content-visibility:visible" viewBox="0 0 430 430"><defs><clipPath id="o"><path d="M0 0h430v430H0z"/></clipPath><clipPath id="v"><path d="M0 0h430v430H0z"/></clipPath><clipPath id="h"><path d="M0 0h430v430H0z"/></clipPath><clipPath id="s"><path d="M0 0h430v430H0z"/></clipPath><clipPath id="i"><path d="M0 0h430v430H0z"/></clipPath><clipPath id="p"><path d="M0 0h430v430H0z"/></clipPath><clipPath id="l"><path d="M0 0h430v430H0z"/></clipPath><mask id="x" mask-type="alpha"><use xmlns:ns1="http://www.w3.org/1999/xlink" ns1:href="#a"/></mask><mask id="k" mask-type="alpha"><use xmlns:ns2="http://www.w3.org/1999/xlink" ns2:href="#b"/></mask><mask id="j" mask-type="alpha"><use xmlns:ns3="http://www.w3.org/1999/xlink" ns3:href="#c"/></mask><mask id="t" mask-type="alpha"><use xmlns:ns4="http://www.w3.org/1999/xlink" ns4:href="#d"/></mask><mask id="n" mask-type="alpha"><use xmlns:ns5="http://www.w3.org/1999/xlink" ns5:href="#e"/></mask><mask id="m" mask-type="alpha"><use xmlns:ns6="http://www.w3.org/1999/xlink" ns6:href="#f"/></mask><mask id="r" mask-type="alpha"><use xmlns:ns7="http://www.w3.org/1999/xlink" ns7:href="#g"/></mask><path id="b" fill="red" d="M144.945 14.956c19.992-19.992 30.034-46.214 30.034-72.394 0-26.222-10.042-52.444-30.034-72.436-17.062-17.08-38.65-26.873-60.907-29.376-29.9-3.363-60.994 6.43-83.919 29.376l-.123.122-.126-.122c-19.992-19.992-46.214-30.034-72.394-30.034-26.222 0-52.44 10.042-72.432 30.034-40.029 39.988-40.029 104.842 0 144.83L-.004 159.908 144.945 14.956z" style="display:block" transform="translate(215 215)"/><path id="c" fill="red" d="M144.945 14.956c19.992-19.992 30.034-46.214 30.034-72.394 0-26.222-10.042-52.444-30.034-72.436-17.062-17.08-38.65-26.873-60.907-29.376-29.9-3.363-60.994 6.43-83.919 29.376l-.123.122-.126-.122c-19.992-19.992-46.214-30.034-72.394-30.034-26.222 0-52.44 10.042-72.432 30.034-40.029 39.988-40.029 104.842 0 144.83L-.004 159.908 144.945 14.956z" style="display:block" transform="translate(215 215)"/><path id="e" style="display:none"/><path id="f" style="display:none"/><filter id="w" width="300%" height="300%" x="-100%" y="-100%"><feGaussianBlur result="filter_result_0"/></filter><filter id="u" width="300%" height="300%" x="-100%" y="-100%"><feGaussianBlur result="filter_result_0" stdDeviation="52.5 52.5"/></filter><filter id="q" width="300%" height="300%" x="-100%" y="-100%"><feGaussianBlur result="filter_result_0"/></filter><g id="a" fill-opacity="0" stroke-linecap="round" stroke-linejoin="round" clip-path="url(#h)" style="display:none"><path class="secondary" style="display:none"/><path class="primary" style="display:none"/></g><g id="d" clip-path="url(#i)" style="display:block"><g mask="url(#j)" style="display:block"><path fill-opacity="0" stroke="#08A88A" stroke-linecap="round" stroke-linejoin="round" stroke-width="12" d="M45.249 190h69.656l21.283 60 34.054-120 21.284 60h47.947l21.284 60 34.054-120 21.284 60h68.564" class="secondary"/></g><g mask="url(#k)" style="display:none"><path fill-opacity="0" stroke-linecap="round" stroke-linejoin="round" class="secondary"/></g><path fill-opacity="0" stroke="#121331" stroke-linecap="round" stroke-linejoin="round" stroke-width="12" d="M144.945 14.956c19.992-19.992 30.034-46.214 30.034-72.394 0-26.222-10.042-52.444-30.034-72.436-17.062-17.08-38.65-26.873-60.907-29.376-29.9-3.363-60.994 6.43-83.919 29.376l-.123.122-.126-.122c-19.992-19.992-46.214-30.034-72.394-30.034-26.222 0-52.44 10.042-72.432 30.034-40.029 39.988-40.029 104.842 0 144.83L-.004 159.908 144.945 14.956z" class="primary" style="display:block" transform="translate(215 215)"/></g><g id="g" clip-path="url(#l)" style="display:none"><g mask="url(#m)" style="display:none"><path fill-opacity="0" stroke-linecap="round" stroke-linejoin="round" class="secondary"/></g><g mask="url(#n)" style="display:none"><path fill-opacity="0" stroke-linecap="round" stroke-linejoin="round" class="secondary"/></g><path fill-opacity="0" stroke-linecap="round" stroke-linejoin="round" class="primary" style="display:none"/></g></defs><g clip-path="url(#o)"><g clip-path="url(#p)" filter="url(#q)" mask="url(#r)" style="display:none"><g class="design"><path class="primary"/></g><g class="design"><path class="secondary"/></g></g><g clip-path="url(#s)" mask="url(#t)" style="display:block"><g filter="url(#u)" transform="rotate(-94 238.762 -16.565) scale(2.4)"><g class="design"><path fill="#4E4ED7" d="M0-250c137.975 0 250 112.025 250 250S137.975 250 0 250-250 137.975-250 0-137.975-250 0-250z" class="primary"/></g><g class="design"><path fill="#4E4ED7" d="M113.242-295.384c97.478 0 176.5 79.022 176.5 176.5s-79.022 176.5-176.5 176.5c-43.948 0-74.396-34.057-105.29-60.631-37.631-32.369-71.21-62.338-71.21-115.869 0-97.478 79.022-176.5 176.5-176.5z" class="secondary"/></g></g></g><g clip-path="url(#v)" filter="url(#w)" mask="url(#x)" style="display:none"><g class="design"><path class="primary"/></g><g class="design"><path class="secondary"/></g></g></g></svg>