<svg xmlns="http://www.w3.org/2000/svg" width="430" height="430" style="width:100%;height:100%;transform:translate3d(0,0,0);content-visibility:visible" viewBox="0 0 430 430"><defs><clipPath id="f"><path d="M0 0h430v430H0z"/></clipPath><clipPath id="g"><path d="M0 0h430v430H0z"/></clipPath><clipPath id="d"><path d="M0 0h430v430H0z"/></clipPath><filter id="a" width="100%" height="100%" x="0%" y="0%" filterUnits="objectBoundingBox"><feComponentTransfer in="SourceGraphic"><feFuncA tableValues="1.0 0.0" type="table"/></feComponentTransfer></filter><filter id="i" width="300%" height="300%" x="-100%" y="-100%"><feGaussianBlur result="filter_result_0" stdDeviation="52.5 52.5"/></filter><mask id="e" mask-type="alpha"><g filter="url(#a)"><path fill="#fff" d="M0 0h430v430H0z" opacity="0"/><use xmlns:ns1="http://www.w3.org/1999/xlink" ns1:href="#b"/></g></mask><mask id="h" mask-type="alpha"><use xmlns:ns2="http://www.w3.org/1999/xlink" ns2:href="#c"/></mask><g id="c" clip-path="url(#d)" style="display:block"><g mask="url(#e)" style="display:block"><path fill-opacity="0" stroke="#08A88A" stroke-linecap="round" stroke-linejoin="round" stroke-width="12" d="m197.6 277.45-62.4-62.4 62.5-62.5m177.7 62.5-239.9-.1" class="secondary"/></g><path fill-opacity="0" stroke-linecap="round" stroke-linejoin="round" class="secondary" style="display:none"/><path fill-opacity="0" stroke="#121331" stroke-linecap="round" stroke-linejoin="round" stroke-width="12" d="M100.05-53.35v-42.1c0-21-17-38-38-38h-124.1c-21 0-38 17-38 38v190.9c0 21 17 38 38 38h124.1c21 0 38-17 38-38v-42.1" class="primary" style="display:block" transform="translate(154.95 215)"/></g><g id="b" style="display:block"><path fill-opacity="0" stroke="#121331" stroke-width="0" d="M55 11v409h-357V11H55z" class="primary"/><path fill="red" d="M55 11v409h-357V11H55z"/></g></defs><g clip-path="url(#f)"><g clip-path="url(#g)" mask="url(#h)" style="display:block"><g filter="url(#i)" transform="rotate(-94 245.756 -9.065) scale(2.4)"><g class="design"><path fill="#4E4ED7" d="M0-250c137.975 0 250 112.025 250 250S137.975 250 0 250-250 137.975-250 0-137.975-250 0-250z" class="primary"/></g><g class="design"><path fill="#4E4ED7" d="M113.242-295.384c97.478 0 176.5 79.022 176.5 176.5s-79.022 176.5-176.5 176.5c-43.948 0-74.396-34.057-105.29-60.631-37.631-32.369-71.21-62.338-71.21-115.869 0-97.478 79.022-176.5 176.5-176.5z" class="secondary"/></g></g></g></g></svg>