<svg width="430" height="430" viewBox="0 0 430 430" fill="none" xmlns="http://www.w3.org/2000/svg">
<path fill-rule="evenodd" clip-rule="evenodd" d="M94 56.5C94 54.2406 95.2692 52.1728 97.2838 51.15C142.324 28.2833 187.676 28.2833 232.716 51.15C274.342 72.2833 315.658 72.2833 357.284 51.15C359.613 49.9674 362.44 50.4279 364.274 52.2886C366.107 54.1494 366.526 56.9827 365.31 59.2945L316.97 151.139L364.992 223.172C365.943 224.598 366.239 226.364 365.804 228.022C365.369 229.681 364.245 231.074 362.716 231.85C317.676 254.717 272.324 254.717 227.284 231.85C186.752 211.272 146.516 210.731 106 230.226V400C106 403.314 103.314 406 100 406C96.6863 406 94 403.314 94 400V56.5ZM106 60.2264C146.516 40.7313 186.752 41.2725 227.284 61.85C266.962 81.9943 306.882 84.3926 346.617 69.0448L304.69 148.706C303.667 150.65 303.789 152.999 305.008 154.828L351.186 224.096C311.621 242.233 272.309 241.251 232.716 221.15C190.58 199.758 148.171 198.378 106 217.012V60.2264Z" fill="url(#paint0_linear_2120_7681)"/>
<defs>
<linearGradient id="paint0_linear_2120_7681" x1="94.0997" y1="16.5019" x2="397.685" y2="134.375" gradientUnits="userSpaceOnUse">
<stop stop-color="#4E4ED7"/>
<stop offset="1" stop-color="#4E4ED7"/>
</linearGradient>
</defs>
</svg>
