<svg width="430" height="430" viewBox="0 0 430 430" fill="none" xmlns="http://www.w3.org/2000/svg">
<path d="M281.42 54.8799H60.5801C58.9232 54.8799 57.5801 56.223 57.5801 57.8799V372.12C57.5801 373.777 58.9232 375.12 60.5801 375.12H281.42C283.077 375.12 284.42 373.777 284.42 372.12V57.8799C284.42 56.223 283.077 54.8799 281.42 54.8799Z" fill="#EBE6EF"/>
<path d="M171 324.12C171 324.12 170.85 320.38 178.61 313.05C181.48 310.209 183.179 306.394 183.37 302.36C183.37 299.082 182.068 295.938 179.75 293.62C177.432 291.302 174.288 290 171.01 290C167.732 290 164.588 291.302 162.27 293.62C159.952 295.938 158.65 299.082 158.65 302.36" stroke="#F24C00" stroke-width="7" stroke-linecap="round" stroke-linejoin="round"/>
<path d="M170.94 344H170.97" stroke="#F24C00" stroke-width="10" stroke-linecap="round" stroke-linejoin="round"/>
<path d="M246.06 143.67H95.9302" stroke="#646E78" stroke-width="7" stroke-linecap="round" stroke-linejoin="round"/>
<path d="M170.94 176.76H95.9302" stroke="#646E78" stroke-width="7" stroke-linecap="round" stroke-linejoin="round"/>
<path d="M246.06 221.37H95.9302" stroke="#646E78" stroke-width="7" stroke-linecap="round" stroke-linejoin="round"/>
<path d="M170.94 254.46H95.9302" stroke="#646E78" stroke-width="7" stroke-linecap="round" stroke-linejoin="round"/>
<path d="M330.69 336.75V114.45H372.74V336.75" fill="#3A3347"/>
<g style="mix-blend-mode:multiply" opacity="0.5">
<path d="M330.69 114.45V336.75H351.715V114.45H330.69Z" fill="#3A3347"/>
</g>
<path d="M354.54 62.89L372.74 114.45H330.68L348.88 62.89C349.086 62.304 349.469 61.7964 349.976 61.4374C350.483 61.0783 351.089 60.8855 351.71 60.8855C352.331 60.8855 352.937 61.0783 353.444 61.4374C353.951 61.7964 354.334 62.304 354.54 62.89Z" fill="#EBE6EF"/>
<g style="mix-blend-mode:multiply" opacity="0.5">
<path d="M348.88 62.89L330.68 114.45H351.71V60.8855C351.089 60.8855 350.483 61.0783 349.976 61.4374C349.469 61.7964 349.086 62.304 348.88 62.89Z" fill="#EBE6EF"/>
</g>
<path d="M372.74 336.75V372.12C372.74 372.916 372.424 373.679 371.861 374.241C371.299 374.804 370.536 375.12 369.74 375.12H333.69C332.894 375.12 332.131 374.804 331.569 374.241C331.006 373.679 330.69 372.916 330.69 372.12V336.75" fill="#F9C9C0"/>
<g style="mix-blend-mode:multiply" opacity="0.5">
<path d="M331.569 374.241C332.131 374.804 332.894 375.12 333.69 375.12H351.715V336.75H330.69V372.12C330.69 372.916 331.006 373.679 331.569 374.241Z" fill="#F9C9C0"/>
</g>
<path d="M148.83 28.1899H193.17C193.966 28.1899 194.729 28.506 195.291 29.0686C195.854 29.6312 196.17 30.3943 196.17 31.1899V56.8799H145.83V31.1899C145.83 30.3943 146.146 29.6312 146.709 29.0686C147.271 28.506 148.034 28.1899 148.83 28.1899Z" fill="#FFC738"/>
<g style="mix-blend-mode:multiply" opacity="0.4">
<path d="M148.83 28.1899H193.17C193.966 28.1899 194.729 28.506 195.291 29.0686C195.854 29.6312 196.17 30.3943 196.17 31.1899V56.8799H145.83V31.1899C145.83 30.3943 146.146 29.6312 146.709 29.0686C147.271 28.506 148.034 28.1899 148.83 28.1899V28.1899Z" fill="#FFC738"/>
</g>
<path d="M224.71 48.8799H117.28C115.623 48.8799 114.28 50.223 114.28 51.8799V83.2399C114.28 84.8967 115.623 86.2399 117.28 86.2399H224.71C226.367 86.2399 227.71 84.8967 227.71 83.2399V51.8799C227.71 50.223 226.367 48.8799 224.71 48.8799Z" fill="#FFC738"/>
<path d="M362.78 86.24H340.64L348.88 62.9C349.086 62.314 349.469 61.8064 349.976 61.4474C350.483 61.0883 351.089 60.8955 351.71 60.8955C352.331 60.8955 352.937 61.0883 353.444 61.4474C353.951 61.8064 354.334 62.314 354.54 62.9L362.78 86.24Z" fill="#646E78"/>
<g style="mix-blend-mode:multiply" opacity="0.5">
<path d="M351.71 60.8955C351.089 60.8955 350.483 61.0884 349.976 61.4474C349.469 61.8064 349.086 62.314 348.88 62.9L340.64 86.24H351.71V60.8955Z" fill="#646E78"/>
</g>
<g style="mix-blend-mode:multiply" opacity="0.5">
<path d="M82.5801 54.8799V375.12H61.5801C60.5192 375.12 59.5018 374.698 58.7516 373.948C58.0015 373.198 57.5801 372.181 57.5801 371.12V58.8799C57.5801 57.819 58.0015 56.8016 58.7516 56.0515C59.5018 55.3013 60.5192 54.8799 61.5801 54.8799H82.5801Z" fill="#EBE6EF"/>
</g>
<g style="mix-blend-mode:multiply" opacity="0.5">
<path d="M166.82 28.2C166.025 28.2 165.262 28.516 164.699 29.0786C164.136 29.6412 163.82 30.4043 163.82 31.1999V48.8799H145.82V31.1999C145.82 30.4043 146.136 29.6412 146.699 29.0786C147.262 28.516 148.025 28.2 148.82 28.2H166.82Z" fill="#FFC738"/>
</g>
<g style="mix-blend-mode:multiply" opacity="0.5">
<path d="M135.28 86.2399H117.28C116.485 86.2399 115.722 85.9238 115.159 85.3612C114.596 84.7986 114.28 84.0355 114.28 83.2399V51.8799C114.28 51.0842 114.596 50.3212 115.159 49.7586C115.722 49.196 116.485 48.8799 117.28 48.8799H135.28C134.485 48.8799 133.722 49.196 133.159 49.7586C132.596 50.3212 132.28 51.0842 132.28 51.8799V83.2399C132.28 84.0355 132.596 84.7986 133.159 85.3612C133.722 85.9238 134.485 86.2399 135.28 86.2399Z" fill="#FFC738"/>
</g>
</svg>
