<svg xmlns="http://www.w3.org/2000/svg" width="430" height="430" style="width:100%;height:100%;transform:translate3d(0,0,0);content-visibility:visible" viewBox="0 0 430 430"><defs><clipPath id="i"><path d="M0 0h430v430H0z"/></clipPath><clipPath id="j"><path d="M0 0h430v430H0z"/></clipPath><clipPath id="f"><path d="M0 0h430v430H0z"/></clipPath><filter id="a" width="100%" height="100%" x="0%" y="0%" filterUnits="objectBoundingBox"><feComponentTransfer in="SourceGraphic"><feFuncA tableValues="1.0 0.0" type="table"/></feComponentTransfer></filter><filter id="c" width="100%" height="100%" x="0%" y="0%" filterUnits="objectBoundingBox"><feComponentTransfer in="SourceGraphic"><feFuncA tableValues="1.0 0.0" type="table"/></feComponentTransfer></filter><filter id="l" width="300%" height="300%" x="-100%" y="-100%"><feGaussianBlur result="filter_result_0" stdDeviation="52.5 52.5"/></filter><mask id="h" mask-type="alpha"><g filter="url(#a)"><path fill="#fff" d="M0 0h430v430H0z" opacity="0"/><use xmlns:ns1="http://www.w3.org/1999/xlink" ns1:href="#b"/></g></mask><mask id="g" mask-type="alpha"><g filter="url(#c)"><path fill="#fff" d="M0 0h430v430H0z" opacity="0"/><use xmlns:ns2="http://www.w3.org/1999/xlink" ns2:href="#d"/></g></mask><mask id="k" mask-type="alpha"><use xmlns:ns3="http://www.w3.org/1999/xlink" ns3:href="#e"/></mask><g id="e" clip-path="url(#f)" style="display:block"><path fill-opacity="0" stroke="#121331" stroke-linecap="round" stroke-linejoin="round" stroke-width="12.04" d="M-76.5-139.31h230.62v278.62h-269.43c-21.43 0-38.81-17.38-38.81-38.81 0-21.43 17.38-38.81 38.81-38.81 21.43 0 38.81 17.38 38.81 38.81" class="primary" style="display:block" transform="translate(215 220.309)"/><g fill-opacity="0" stroke="#08A88A" stroke-linecap="round" stroke-linejoin="round" stroke-width="12.04" mask="url(#g)" style="display:block"><path d="M138.745 312.27h183.922V128.348H138.745V312.27z" class="secondary"/><path d="M208.068 128.348v53.312h-15.2m-52.333 0h19.154m83.668-53.312v27.322m0 132.746v23.854m79.31-70.188h-79.31v16.124m79.31-55.61h-79.31v-16.124m-104.612 49.029c23.166 0 41.946 18.78 41.946 41.946h-41.946" class="secondary"/></g><g mask="url(#h)" style="display:block"><path fill-opacity="0" stroke="#121331" stroke-linecap="round" stroke-linejoin="round" stroke-width="12.04" d="M138.5 318.277V201.715c-.25 0 .75-.277 0-.277v-.223l.25 116.562V318s-.25.25-.25.277z" class="primary"/></g><path fill-opacity="0" stroke="#121331" stroke-linecap="round" stroke-linejoin="round" stroke-width="12.04" d="M38.81-101.405v241.62c0-21.43-17.38-38.81-38.81-38.81-21.43 0-38.81 17.38-38.81 38.81v-241.62c0-21.43 17.38-38.81 38.81-38.81 21.43 0 38.81 17.38 38.81 38.81z" class="primary" style="display:block" transform="translate(99.69 180.594)"/></g><g id="b" style="display:block"><path fill="#FFF" d="M138.5 79.189v241.62c0-21.43-17.38-38.81-38.81-38.81-21.43 0-38.81 17.38-38.81 38.81V79.189c0-21.43 17.38-38.81 38.81-38.81 21.43 0 38.81 17.38 38.81 38.81z"/><path fill-opacity="0" stroke="#121331" stroke-linecap="round" stroke-linejoin="round" stroke-width="0" d="M138.5 79.189v241.62c0-21.43-17.38-38.81-38.81-38.81-21.43 0-38.81 17.38-38.81 38.81V79.189c0-21.43 17.38-38.81 38.81-38.81 21.43 0 38.81 17.38 38.81 38.81z" class="primary"/></g><g id="d" style="display:block"><path fill="#FFF" d="M138.5 79.189v241.62c0-21.43-17.38-38.81-38.81-38.81-21.43 0-38.81 17.38-38.81 38.81V79.189c0-21.43 17.38-38.81 38.81-38.81 21.43 0 38.81 17.38 38.81 38.81z"/><path fill-opacity="0" stroke="#121331" stroke-linecap="round" stroke-linejoin="round" stroke-width="0" d="M138.5 79.189v241.62c0-21.43-17.38-38.81-38.81-38.81-21.43 0-38.81 17.38-38.81 38.81V79.189c0-21.43 17.38-38.81 38.81-38.81 21.43 0 38.81 17.38 38.81 38.81z" class="primary"/><path fill="#FFF" d="m-91 15 229 4v303s-3 15.059-18.496 15.059c-17.004 0-205.254-3.309-205.254-3.309L-91 15z"/><path fill-opacity="0" stroke="#121331" stroke-width="0" d="m-91 15 229 4v303s-3 15.059-18.496 15.059c-17.004 0-205.254-3.309-205.254-3.309L-91 15z" class="primary"/></g></defs><g clip-path="url(#i)"><g clip-path="url(#j)" mask="url(#k)" style="display:block"><g filter="url(#l)" transform="rotate(-94 238.295 -17.065) scale(2.4)"><g class="design"><path fill="#4E4ED7" d="M0-250c137.975 0 250 112.025 250 250S137.975 250 0 250-250 137.975-250 0-137.975-250 0-250z" class="primary"/></g><g class="design"><path fill="#4E4ED7" d="M113.242-295.384c97.478 0 176.5 79.022 176.5 176.5s-79.022 176.5-176.5 176.5c-43.948 0-74.396-34.057-105.29-60.631-37.631-32.369-71.21-62.338-71.21-115.869 0-97.478 79.022-176.5 176.5-176.5z" class="secondary"/></g></g></g></g></svg>