<svg width="430" height="430" viewBox="0 0 430 430" fill="none" xmlns="http://www.w3.org/2000/svg">
<path d="M223 187.5C223 184.186 225.686 181.5 229 181.5H262C265.314 181.5 268 184.186 268 187.5C268 190.814 265.314 193.5 262 193.5H235V209.002L257.189 209.008C260.503 209.008 263.188 211.696 263.188 215.009C263.187 218.323 260.5 221.008 257.186 221.008L235 221.002V236.5H262C265.314 236.5 268 239.186 268 242.5C268 245.814 265.314 248.5 262 248.5H229C225.686 248.5 223 245.814 223 242.5V187.5Z" fill="url(#paint0_linear_2164_5067)"/>
<path d="M287 181.5C283.686 181.5 281 184.186 281 187.5V242.5C281 245.814 283.686 248.5 287 248.5H320C323.314 248.5 326 245.814 326 242.5C326 239.186 323.314 236.5 320 236.5H293V221.002L315.186 221.008C318.5 221.008 321.187 218.323 321.188 215.009C321.188 211.696 318.503 209.008 315.189 209.008L293 209.002V193.5H320C323.314 193.5 326 190.814 326 187.5C326 184.186 323.314 181.5 320 181.5H287Z" fill="url(#paint1_linear_2164_5067)"/>
<path fill-rule="evenodd" clip-rule="evenodd" d="M159 187.5C159 184.186 161.686 181.5 165 181.5H187.941C199.696 181.5 209.235 191.02 209.235 202.778V205.833C209.235 213.63 205.041 220.443 198.787 224.148L208.963 239.129C210.825 241.87 210.113 245.601 207.371 247.463C204.63 249.325 200.899 248.613 199.037 245.871L186.293 227.111H171V242.5C171 245.814 168.314 248.5 165 248.5C161.686 248.5 159 245.814 159 242.5V187.5ZM171 215.111H187.941C193.08 215.111 197.235 210.951 197.235 205.833V202.778C197.235 197.66 193.08 193.5 187.941 193.5H171V215.111Z" fill="url(#paint2_linear_2164_5067)"/>
<path d="M109 181.5C105.687 181.5 103 184.186 103 187.5V218.005L103 218.056L103 218.106V242.5C103 245.814 105.687 248.5 109 248.5C112.314 248.5 115 245.814 115 242.5V224.056H137.188C140.501 224.056 143.188 221.369 143.188 218.056C143.188 214.742 140.501 212.056 137.188 212.056H115V193.5H142C145.314 193.5 148 190.814 148 187.5C148 184.186 145.314 181.5 142 181.5H109Z" fill="url(#paint3_linear_2164_5067)"/>
<path fill-rule="evenodd" clip-rule="evenodd" d="M180.174 45.9269C191.214 41.3538 203.046 39 214.996 39C226.946 39 238.778 41.3538 249.818 45.9269C260.096 50.1845 269.5 56.2882 277.567 63.929C288.676 64.2308 299.643 66.5651 309.922 70.8234C320.964 75.3972 330.996 82.1011 339.446 90.5523C347.896 99.0036 354.599 109.037 359.172 120.078C363.429 130.359 365.762 141.326 366.062 152.434C382.043 169.312 390.982 191.695 390.982 215C390.982 238.305 382.043 260.688 366.062 277.566C365.762 288.674 363.429 299.642 359.172 309.922C354.599 320.964 347.896 330.996 339.446 339.448C330.996 347.899 320.964 354.603 309.922 359.177C299.643 363.435 288.676 365.769 277.567 366.071C269.5 373.712 260.096 379.815 249.818 384.073C238.778 388.646 226.946 391 214.996 391C203.046 391 191.214 388.646 180.174 384.073C169.896 379.816 160.492 373.712 152.425 366.071C141.316 365.771 130.348 363.437 120.067 359.18C109.025 354.606 98.9914 347.903 90.54 339.451C82.0887 331 75.385 320.966 70.8118 309.924C66.554 299.643 64.2206 288.675 63.92 277.566C47.9396 260.688 39 238.305 39 215C39 191.695 47.9396 169.312 63.92 152.434C64.2206 141.325 66.554 130.357 70.8118 120.076C75.385 109.034 82.0887 99.0001 90.54 90.5488C98.9914 82.0974 109.025 75.3937 120.067 70.8205C130.348 66.5628 141.316 64.2294 152.425 63.9287C160.492 56.288 169.896 50.1845 180.174 45.9269ZM214.996 51C204.622 51 194.35 53.0433 184.766 57.0134C175.182 60.9834 166.474 66.8023 159.139 74.1379C158.014 75.2634 156.487 75.8956 154.896 75.8954C144.52 75.8943 134.245 77.9371 124.659 81.9073C115.073 85.8774 106.362 91.6971 99.0253 99.034C91.6884 106.371 85.8687 115.081 81.8986 124.668C77.9284 134.254 75.8856 144.528 75.8867 154.904C75.8869 156.496 75.255 158.022 74.13 159.147C59.3199 173.962 51 194.052 51 215C51 235.948 59.3199 256.038 74.13 270.853C75.255 271.978 75.8869 273.504 75.8867 275.096C75.8856 285.472 77.9284 295.746 81.8986 305.332C85.8687 314.919 91.6884 323.629 99.0253 330.966C106.362 338.303 115.073 344.123 124.659 348.093C134.245 352.063 144.52 354.106 154.896 354.105C156.487 354.104 158.014 354.737 159.139 355.862C166.474 363.198 175.182 369.017 184.766 372.987C194.35 376.957 204.622 379 214.996 379C225.37 379 235.642 376.957 245.226 372.987C254.81 369.017 263.518 363.198 270.853 355.862C271.978 354.737 273.504 354.105 275.096 354.105C285.471 354.105 295.744 352.061 305.33 348.09C314.915 344.12 323.624 338.3 330.96 330.963C338.296 323.626 344.115 314.916 348.085 305.33C352.054 295.745 354.097 285.471 354.096 275.096C354.095 273.504 354.727 271.978 355.852 270.853C370.663 256.038 378.982 235.948 378.982 215C378.982 194.052 370.663 173.962 355.852 159.147C354.727 158.022 354.095 156.496 354.096 154.904C354.097 144.529 352.054 134.255 348.085 124.67C344.115 115.084 338.296 106.374 330.96 99.0371C323.624 91.7004 314.915 85.8805 305.33 81.9098C295.744 77.9391 285.471 75.8954 275.096 75.8954C273.504 75.8954 271.978 75.2632 270.853 74.1379C263.518 66.8023 254.81 60.9834 245.226 57.0134C235.642 53.0433 225.37 51 214.996 51Z" fill="url(#paint4_linear_2164_5067)"/>
<defs>
<linearGradient id="paint0_linear_2164_5067" x1="90.0543" y1="90.3523" x2="339.506" y2="340.735" gradientUnits="userSpaceOnUse">
<stop stop-color="#4E4ED7"/>
<stop offset="1" stop-color="#4E4ED7"/>
</linearGradient>
<linearGradient id="paint1_linear_2164_5067" x1="90.0543" y1="90.3523" x2="339.506" y2="340.735" gradientUnits="userSpaceOnUse">
<stop stop-color="#4E4ED7"/>
<stop offset="1" stop-color="#4E4ED7"/>
</linearGradient>
<linearGradient id="paint2_linear_2164_5067" x1="90.0543" y1="90.3523" x2="339.506" y2="340.735" gradientUnits="userSpaceOnUse">
<stop stop-color="#4E4ED7"/>
<stop offset="1" stop-color="#4E4ED7"/>
</linearGradient>
<linearGradient id="paint3_linear_2164_5067" x1="90.0543" y1="90.3523" x2="339.506" y2="340.735" gradientUnits="userSpaceOnUse">
<stop stop-color="#4E4ED7"/>
<stop offset="1" stop-color="#4E4ED7"/>
</linearGradient>
<linearGradient id="paint4_linear_2164_5067" x1="90.0543" y1="90.3523" x2="339.506" y2="340.735" gradientUnits="userSpaceOnUse">
<stop stop-color="#4E4ED7"/>
<stop offset="1" stop-color="#4E4ED7"/>
</linearGradient>
</defs>
</svg>
