<svg width="430" height="430" viewBox="0 0 430 430" fill="none" xmlns="http://www.w3.org/2000/svg">
  <path
    d="M340.2 108.5C340.4 108.3 340.5 108.1 340.6 107.9C340.6 107.8 340.7 107.8 340.7 107.7C340.8 107.5 340.9 107.4 341 107.2C341 107.1 341.1 107.1 341.1 107C341.2 106.8 341.3 106.6 341.4 106.3C341.4 106.2 341.4 106.2 341.4 106.2C341.4 106 341.5 105.8 341.5 105.6C341.5 105.5 341.5 105.4 341.5 105.4C341.5 105.2 341.5 105 341.5 104.8C341.5 104.7 341.5 104.7 341.5 104.6V55.5C341.5 52.2 338.8 49.5 335.5 49.5H94C90.7 49.5 88 52.2 88 55.5V104.6C88 104.7 88 104.7 88 104.8C88 105 88 105.2 88.1 105.4C88.1 105.5 88.1 105.6 88.1 105.6C88.1 105.8 88.2 106 88.2 106.2C88.2 106.3 88.2 106.3 88.2 106.3C88.3 106.5 88.4 106.8 88.5 107C88.5 107.1 88.6 107.1 88.6 107.2C88.7 107.4 88.8 107.5 88.9 107.7C88.9 107.8 89 107.8 89 107.9C89.1 108.1 89.3 108.3 89.4 108.5C89.4 108.5 89.4 108.6 89.5 108.6L184.3 216.3V325.3V374.5C184.3 376.9 185.8 379.1 188 380C188.7 380.3 189.5 380.5 190.3 380.5C191.9 380.5 193.4 379.9 194.6 378.7L243.7 329.5C244.8 328.4 245.5 326.9 245.5 325.3V216.3L340.2 108.5C340.2 108.6 340.2 108.6 340.2 108.5ZM100 61.5H329.7V98.6H100V61.5ZM234.9 210.1C234.8 210.3 234.7 210.3 234.6 210.4C234.5 210.5 234.5 210.5 234.4 210.6C234.3 210.7 234.3 210.8 234.2 210.9C234.1 211 234.1 211.1 234.1 211.2C234 211.3 234 211.4 234 211.5C233.9 211.6 233.9 211.7 233.9 211.8C233.9 211.9 233.8 212 233.8 212.1C233.8 212.2 233.7 212.3 233.7 212.4C233.7 212.5 233.6 212.6 233.6 212.7C233.6 212.8 233.5 212.9 233.5 213C233.5 213.1 233.5 213.2 233.4 213.3C233.4 213.4 233.4 213.5 233.3 213.6C233.3 213.7 233.3 213.8 233.3 213.9C233.3 214 233.3 214.1 233.3 214.2V214.3V323.1L196.2 360.2V214.3V214.2C196.2 214.1 196.2 214 196.2 213.9C196.2 213.8 196.2 213.7 196.2 213.6C196.2 213.5 196.2 213.4 196.1 213.3C196.1 213.2 196.1 213.1 196 213C196 212.9 195.9 212.8 195.9 212.7C195.9 212.6 195.8 212.5 195.8 212.4C195.8 212.3 195.7 212.2 195.7 212.1C195.7 212 195.6 211.9 195.6 211.8C195.6 211.7 195.5 211.6 195.5 211.5C195.5 211.4 195.4 211.3 195.4 211.2C195.3 211.1 195.3 211 195.3 210.9C195.2 210.8 195.2 210.7 195.1 210.6C195 210.5 195 210.5 194.9 210.4C194.8 210.3 194.8 210.2 194.7 210.2C194.7 210.2 194.7 210.1 194.6 210.1L107.3 110.6H322.4L234.9 210.1Z"
    fill="url(#paint0_linear_2119_4326)" />
  <defs>
    <linearGradient id="paint0_linear_2119_4326" x1="94.4988" y1="46.5187" x2="310.605" y2="262.625"
      gradientUnits="userSpaceOnUse">
      <stop stop-color="#0bbfbf" />
      <stop offset="1" stop-color="#0bbfbf" />
    </linearGradient>
  </defs>
</svg>
