<svg width="430" height="430" viewBox="0 0 430 430" fill="none" xmlns="http://www.w3.org/2000/svg">
<path d="M352.8 49H77.4C61.8 49 49 61.7 49 77.4V352.8C49 368.5 61.7 381.2 77.4 381.2H352.8C368.5 381.2 381.2 368.5 381.2 352.8V77.4C381.2 61.7 368.5 49 352.8 49ZM77.4 61H352.8C361.8 61 369.2 68.4 369.2 77.4V100.4H61V77.4C61 68.4 68.4 61 77.4 61ZM352.8 369.2H77.4C68.3 369.2 61 361.8 61 352.8V112.4H369.2V352.9C369.2 361.9 361.9 369.2 352.8 369.2ZM192 236.6C193.1 237.7 193.8 239.2 193.8 240.8C193.8 242.4 193.2 243.9 192 245L139.4 297.6C138.2 298.8 136.7 299.4 135.2 299.4C133.7 299.4 132.1 298.8 131 297.6C128.7 295.3 128.7 291.5 131 289.1L179.4 240.7L131 192.3C128.7 190 128.7 186.2 131 183.8C133.3 181.4 137.1 181.5 139.5 183.8L192 236.6ZM134 80.7C134 75.7 138 71.7 143 71.7H143.1C148.1 71.7 152.1 75.7 152.1 80.7C152.1 85.7 148.1 89.7 143.1 89.7H143C138 89.7 134 85.7 134 80.7ZM77.7 80.7C77.7 75.7 81.7 71.7 86.7 71.7H86.8C91.8 71.7 95.8 75.7 95.8 80.7C95.8 85.7 91.8 89.7 86.8 89.7H86.7C81.7 89.7 77.7 85.7 77.7 80.7ZM105.8 80.7C105.8 75.7 109.8 71.7 114.8 71.7H115C120 71.7 124 75.7 124 80.7C124 85.7 120 89.7 115 89.7H114.9C109.9 89.7 105.8 85.7 105.8 80.7ZM309.1 293.5C309.1 296.8 306.4 299.5 303.1 299.5H212.9C209.6 299.5 206.9 296.8 206.9 293.5C206.9 290.2 209.6 287.5 212.9 287.5H303.1C306.4 287.5 309.1 290.1 309.1 293.5Z" fill="url(#paint0_linear_2119_2408)"/>
<defs>
<linearGradient id="paint0_linear_2119_2408" x1="57.3315" y1="57.3297" x2="372.91" y2="372.908" gradientUnits="userSpaceOnUse">
<stop stop-color="#4E4ED7"/>
<stop offset="1" stop-color="#4E4ED7"/>
</linearGradient>
</defs>
</svg>
