<svg xmlns="http://www.w3.org/2000/svg" width="500" height="500" style="width:100%;height:100%;transform:translate3d(0,0,0);content-visibility:visible" viewBox="0 0 500 500"><defs><clipPath id="c"><path d="M0 0h500v500H0z"/></clipPath><clipPath id="b"><path d="M0 0h500v500H0z"/></clipPath><filter id="e" width="300%" height="300%" x="-100%" y="-100%"><feGaussianBlur result="filter_result_0" stdDeviation="52.5 52.5"/></filter><mask id="d" mask-type="alpha"><use xmlns:ns1="http://www.w3.org/1999/xlink" ns1:href="#a"/></mask><g id="a" fill-opacity="0" stroke-linecap="round" stroke-linejoin="round" stroke-width="12" clip-path="url(#b)" style="display:block"><path stroke="#08A88A" d="M-68.004-31.131h21.12c10.13 0 18.43 7.51 18.43 16.69 0 4.58-2.08 8.75-5.42 11.78-3.34 3.02-7.95 4.9-13.01 4.9h-21.12m-.003-33.369v62.261m-25.765 0-26.043-62.702-27.831 62.702m47.466-15.428h-40.618M0 31.131v-62.262" style="display:block" transform="translate(317.822 249.865)"/><path stroke="#121331" d="M107.598 113.063h-215.196c-28.222 0-51.1-22.878-51.1-51.1V-61.963c0-28.222 22.878-51.1 51.1-51.1h215.196c28.222 0 51.1 22.878 51.1 51.1V61.963c0 28.222-22.878 51.1-51.1 51.1z" style="display:block" transform="translate(250 250)"/></g></defs><g clip-path="url(#c)"><g mask="url(#d)" style="display:block"><g filter="url(#e)" transform="rotate(-94 262.075 8.435) scale(2.4)"><path fill="#00B39E" d="M0-250c137.975 0 250 112.025 250 250S137.975 250 0 250-250 137.975-250 0-137.975-250 0-250z" class="design"/><path fill="#068BDF" d="M113.242-295.384c97.478 0 176.5 79.022 176.5 176.5s-79.022 176.5-176.5 176.5c-43.948 0-74.396-34.057-105.29-60.631-37.631-32.369-71.21-62.338-71.21-115.869 0-97.478 79.022-176.5 176.5-176.5z" class="design"/></g></g><path style="display:none"/></g></svg>