<svg xmlns="http://www.w3.org/2000/svg" width="500" height="500" style="width:100%;height:100%;transform:translate3d(0,0,0);content-visibility:visible" viewBox="0 0 500 500"><defs><clipPath id="b"><path d="M0 0h500v500H0z"/></clipPath><filter id="d" width="300%" height="300%" x="-100%" y="-100%"><feGaussianBlur result="filter_result_0" stdDeviation="52.5 52.5"/></filter><mask id="c" mask-type="alpha"><use href="#a"/></mask><g id="a" style="display:block"><path fill-opacity="0" stroke="#08A88A" stroke-linecap="round" stroke-linejoin="round" stroke-width="12" d="M123.712 279.746s88.442 90.056 123.112 99.555c21.203 5.809 27.593-4.647 27.593-4.647m-52.863-56.929c47.635 53.444 55.171 65.92 69.71 58.091 7.552-4.066 13.941-12.78 16.846-17.718m-51.167-55.145c47.635 53.444 55.171 65.92 69.71 58.091 7.552-4.066 13.941-12.78 16.846-17.718m-58.672-58.963c47.635 53.444 55.17 65.921 69.709 58.092 1.573-.847 6.323-4.822 7.652-6.415 7.606-9.12 3.123-21.793-5.492-29.966-18.485-17.538-62.451-56.773-87.233-77.245 0 0-31.643 29.933-54.008 28.481-22.365-1.452-22.033-23.527-16.39-35.726 5.643-12.199 38.464-48.507 59.958-48.797 21.494-.29 89.314 15.104 89.314 15.104m-197.073-4.938h82.489m151.598 110.608-23.417 18.854"/><path fill-opacity="0" stroke="#08A88A" stroke-linecap="round" stroke-linejoin="round" stroke-width="12" d="M68.484 149.857v149.806h49.958l35.436-133.926s-12.004-7.474-42.697-12.991c-21.01-3.776-42.697-2.889-42.697-2.889zm370.27 0v149.806h-49.958l-43.508-120.195s15.104-18.589 50.769-26.722c20.812-4.746 42.697-2.889 42.697-2.889z"/><path fill="#08A88A" d="M116.99 187.891c0 5.775-4.681 10.456-10.456 10.456-5.775 0-10.457-4.681-10.457-10.456 0-5.775 4.682-10.456 10.457-10.456s10.456 4.681 10.456 10.456zm273.258 0c0 5.775 4.682 10.456 10.457 10.456s10.456-4.681 10.456-10.456c0-5.775-4.681-10.456-10.456-10.456-5.775 0-10.457 4.681-10.457 10.456z"/></g></defs><g clip-path="url(#b)"><g mask="url(#c)" style="display:block"><g filter="url(#d)" transform="rotate(-94 262.075 8.435) scale(2.4)"><path fill="#4AE0EB" d="M0-250c137.975 0 250 112.025 250 250S137.975 250 0 250-250 137.975-250 0-137.975-250 0-250z" class="design"/><path fill="#CA5EED" d="M113.242-295.384c97.478 0 176.5 79.022 176.5 176.5s-79.022 176.5-176.5 176.5c-43.948 0-74.396-34.057-105.29-60.631-37.631-32.369-71.21-62.338-71.21-115.869 0-97.478 79.022-176.5 176.5-176.5z" class="design"/></g></g><path style="display:none"/></g></svg>
