<svg width="430" height="430" viewBox="0 0 430 430" fill="none" xmlns="http://www.w3.org/2000/svg">
<path d="M191 404.631V361H139V404.631C139 406.978 141.573 408.416 143.572 407.186L165 394L186.428 407.186C188.427 408.416 191 406.978 191 404.631Z" fill="#FF8A00"/>
<g style="mix-blend-mode:multiply" opacity="0.5">
<path d="M139 361V404.631C139 406.978 141.573 408.416 143.572 407.186L165 394V361H139Z" fill="#FF8A00"/>
</g>
<path d="M93 58.6665V332.438C93 340.389 96.2433 347.504 101.37 352.63C106.601 357.861 113.715 361 121.666 361H334.459C336.116 361 337.459 359.657 337.459 358V58.6665" fill="#11095C"/>
<g style="mix-blend-mode:multiply" opacity="0.5">
<path d="M93 332.438V58.6665H113V332.438C113 340.389 116.243 347.504 121.37 352.63C126.601 357.861 133.715 361 141.666 361H121.666C113.715 361 106.601 357.861 101.37 352.63C96.2433 347.504 93 340.389 93 332.438Z" fill="#11095C"/>
</g>
<path d="M121.666 87.3329H337.459V33C337.459 31.3431 336.116 30 334.459 30H121.666C105.869 30 93 42.8685 93 58.6665C93 74.4644 105.869 87.3329 121.666 87.3329Z" fill="#F7F1EA"/>
<g style="mix-blend-mode:multiply" opacity="0.5">
<path d="M159.666 87.3329H121.666C105.869 87.3329 93 74.4644 93 58.6665C93 42.8685 105.869 30 121.666 30H159.666C143.869 30 131 42.8685 131 58.6665C131 74.4644 143.869 87.3329 159.666 87.3329Z" fill="#EBE6EF"/>
</g>
<path fill-rule="evenodd" clip-rule="evenodd" d="M337.459 87.3329H121.666C105.869 87.3329 93 74.4644 93 58.6665C93 42.8685 105.869 30 121.666 30H334.459C336.116 30 337.459 31.3431 337.459 33V87.3329ZM337.459 40H121.666C111.391 40 103 48.3914 103 58.6665C103 68.9416 111.391 77.3329 121.666 77.3329H337.459V40Z" fill="#11095C"/>
<g style="mix-blend-mode:multiply" opacity="0.5">
<path fill-rule="evenodd" clip-rule="evenodd" d="M337.459 87.3329H121.666C105.869 87.3329 93 74.4644 93 58.6665C93 42.8685 105.869 30 121.666 30H334.459C336.116 30 337.459 31.3431 337.459 33V87.3329ZM337.459 40H121.666C111.391 40 103 48.3914 103 58.6665C103 68.9416 111.391 77.3329 121.666 77.3329H337.459V40Z" fill="#11095C"/>
</g>
<g style="mix-blend-mode:multiply" opacity="0.5">
<path d="M333.934 62.1665H337.434V55.1665H333.934V62.1665ZM154.611 55.1665C152.678 55.1665 151.111 56.7335 151.111 58.6665C151.111 60.5995 152.678 62.1665 154.611 62.1665V55.1665ZM333.934 55.1665H154.611V62.1665H333.934V55.1665Z" fill="#EBE6EF"/>
</g>
<path d="M285 270H145M259.136 305H170.864" stroke="#F7F1EA" stroke-width="7" stroke-miterlimit="10" stroke-linecap="round" stroke-linejoin="round"/>
<path d="M145 143C145 141.343 146.343 140 148 140H282C283.657 140 285 141.343 285 143V187C285 188.657 283.657 190 282 190H148C146.343 190 145 188.657 145 187V143Z" fill="#F7F1EA"/>
<g style="mix-blend-mode:multiply" opacity="0.5">
<path fill-rule="evenodd" clip-rule="evenodd" d="M277 148H153V182H277V148ZM148 140C146.343 140 145 141.343 145 143V187C145 188.657 146.343 190 148 190H282C283.657 190 285 188.657 285 187V143C285 141.343 283.657 140 282 140H148Z" fill="#F9C9C0"/>
</g>
</svg>
