<svg width="430" height="430" viewBox="0 0 430 430" fill="none" xmlns="http://www.w3.org/2000/svg">
<path fill-rule="evenodd" clip-rule="evenodd" d="M93 88C75.3137 88 61 102.314 61 120V310.9C61 328.586 75.3137 342.9 93 342.9H217.1C234.786 342.9 249.1 328.586 249.1 310.9V268.8C249.1 265.486 251.786 262.8 255.1 262.8C258.414 262.8 261.1 265.486 261.1 268.8V310.9C261.1 335.214 241.414 354.9 217.1 354.9H93C68.6863 354.9 49 335.214 49 310.9V120C49 95.6863 68.6863 76 93 76H217.1C241.414 76 261.1 95.6863 261.1 120V162.1C261.1 165.414 258.414 168.1 255.1 168.1C251.786 168.1 249.1 165.414 249.1 162.1V120C249.1 102.314 234.786 88 217.1 88H93ZM202.043 148.757C204.387 151.101 204.387 154.899 202.043 157.243L149.78 209.506L375.203 209.6C378.517 209.601 381.202 212.289 381.201 215.603C381.199 218.916 378.512 221.601 375.198 221.6L149.792 221.506L201.943 273.657C204.287 276 204.287 279.799 201.943 282.143C199.6 284.486 195.801 284.486 193.458 282.143L131.058 219.743C130.482 219.167 130.048 218.503 129.755 217.794C129.462 217.087 129.3 216.311 129.301 215.497C129.301 214.685 129.463 213.909 129.756 213.202C130.049 212.495 130.483 211.832 131.058 211.257L193.558 148.757C195.901 146.414 199.7 146.414 202.043 148.757Z" fill="url(#paint0_linear_2115_1781)"/>
<defs>
<linearGradient id="paint0_linear_2115_1781" x1="42.0061" y1="156.83" x2="203.779" y2="449.811" gradientUnits="userSpaceOnUse">
<stop stop-color="#4E4ED7"/>
<stop offset="1" stop-color="#4E4ED7"/>
</linearGradient>
</defs>
</svg>
