<svg width="430" height="430" viewBox="0 0 430 430" fill="none" xmlns="http://www.w3.org/2000/svg">
<path d="M352.71 54.88H77.29C64.9133 54.88 54.88 64.9133 54.88 77.29V352.71C54.88 365.087 64.9133 375.12 77.29 375.12H352.71C365.087 375.12 375.12 365.087 375.12 352.71V77.29C375.12 64.9133 365.087 54.88 352.71 54.88Z" fill="#EBE6EF"/>
<path d="M210.966 276.594C210.966 274.937 212.309 273.594 213.966 273.594H306.794C308.451 273.594 309.794 274.937 309.794 276.594V293.714C309.794 295.371 308.451 296.714 306.794 296.714H213.966C212.309 296.714 210.966 295.371 210.966 293.714V276.594Z" fill="#08A88A"/>
<path d="M131.401 185.64V213.97C131.401 214.27 131.541 214.56 131.771 214.75L162.781 239.9C163.271 240.3 163.271 241.05 162.781 241.45L131.771 266.6C131.541 266.79 131.401 267.08 131.401 267.38V295.71C131.401 296.55 132.381 297.02 133.031 296.49L200.881 241.46C201.371 241.06 201.371 240.31 200.881 239.91L133.031 184.88C132.381 184.35 131.401 184.82 131.401 185.66V185.64Z" fill="#08A88A"/>
<path d="M352.71 54.88H77.29C71.3465 54.88 65.6464 57.2411 61.4437 61.4437C57.2411 65.6464 54.88 71.3465 54.88 77.29V106.29H375.12V77.29C375.12 71.3465 372.759 65.6464 368.556 61.4437C364.354 57.2411 358.654 54.88 352.71 54.88Z" fill="#3A3347"/>
<g style="mix-blend-mode:multiply" opacity="0.5">
<path d="M97.4 77.29C97.4 71.3465 99.7611 65.6464 103.964 61.4437C108.166 57.2411 113.866 54.88 119.81 54.88H77.29C71.3465 54.88 65.6464 57.2411 61.4437 61.4437C57.2411 65.6464 54.88 71.3465 54.88 77.29V106.29H97.4V77.29Z" fill="#3A3347"/>
</g>
<path d="M142.86 80.5699H143" stroke="#08A88A" stroke-width="15" stroke-linecap="round" stroke-linejoin="round"/>
<path d="M86.57 80.5699H86.7" stroke="#F24C00" stroke-width="15" stroke-linecap="round" stroke-linejoin="round"/>
<path d="M114.72 80.5699H114.85" stroke="#FFC738" stroke-width="15" stroke-linecap="round" stroke-linejoin="round"/>
</svg>
