<svg width="430" height="430" viewBox="0 0 430 430" fill="none" xmlns="http://www.w3.org/2000/svg">
<path fill-rule="evenodd" clip-rule="evenodd" d="M212.735 49.4437C214.185 48.853 215.808 48.8521 217.258 49.4412L377.208 114.421C377.273 114.447 377.337 114.473 377.401 114.501C377.542 114.563 377.68 114.63 377.815 114.701C378.806 115.226 379.599 116.001 380.145 116.914C380.462 117.442 380.697 118.019 380.84 118.623C380.955 119.11 381.01 119.613 381 120.121V310C381 312.442 379.52 314.64 377.258 315.559L217.258 380.559C215.825 381.141 214.204 381.153 212.742 380.559L52.7417 315.559C50.4796 314.64 49 312.442 49 310V120.155C48.9378 117.725 50.3665 115.4 52.7529 114.437L107.905 92.1645L107.922 92.1574L212.735 49.4437ZM215.003 61.4777L359.058 120L324.84 133.901L180.842 75.3993L215.003 61.4777ZM115 102.231L112.433 103.277L112.416 103.284L70.9822 120.017L215 178.524L258.89 160.693L115 102.231ZM268.83 169.608L221 189.039V366.086L369 305.961V128.914L330.83 144.42V250.38C330.83 251.778 330.342 253.132 329.45 254.209L304.45 284.371C302.795 286.367 300.046 287.075 297.633 286.125L272.633 276.288C270.339 275.385 268.83 273.17 268.83 270.704V169.608ZM209 189.039L61 128.914V305.961L209 366.086V189.039ZM130.919 95.7464L164.929 81.8868L318.83 144.412V248.216L297.984 273.368L280.83 266.618V160.694C280.83 158.252 279.351 156.054 277.089 155.135L130.919 95.7464Z" fill="url(#paint0_linear_2107_14406)"/>
<defs>
<linearGradient id="paint0_linear_2107_14406" x1="135.745" y1="109.079" x2="287.473" y2="329.129" gradientUnits="userSpaceOnUse">
<stop stop-color="#4E4ED7"/>
<stop offset="1" stop-color="#4E4ED7"/>
</linearGradient>
</defs>
</svg>
