<svg xmlns="http://www.w3.org/2000/svg" width="430" height="430" style="width:100%;height:100%;transform:translate3d(0,0,0);content-visibility:visible" viewBox="0 0 430 430"><defs><clipPath id="f"><path d="M0 0h430v430H0z"/></clipPath><clipPath id="m"><path d="M0 0h430v430H0z"/></clipPath><clipPath id="d"><path d="M0 0h430v430H0z"/></clipPath><clipPath id="j"><path d="M0 0h430v430H0z"/></clipPath><clipPath id="g"><path d="M0 0h430v430H0z"/></clipPath><clipPath id="e"><path d="M0 0h430v430H0z"/></clipPath><filter id="n" width="300%" height="300%" x="-100%" y="-100%"><feGaussianBlur result="filter_result_0"/></filter><filter id="l" width="300%" height="300%" x="-100%" y="-100%"><feGaussianBlur result="filter_result_0" stdDeviation="52.5 52.5"/></filter><filter id="h" width="300%" height="300%" x="-100%" y="-100%"><feGaussianBlur result="filter_result_0"/></filter><mask id="o" mask-type="alpha"><use xmlns:ns1="http://www.w3.org/1999/xlink" ns1:href="#a"/></mask><mask id="k" mask-type="alpha"><use xmlns:ns2="http://www.w3.org/1999/xlink" ns2:href="#b"/></mask><mask id="i" mask-type="alpha"><use xmlns:ns3="http://www.w3.org/1999/xlink" ns3:href="#c"/></mask><g id="a" fill-opacity="0" stroke-linecap="round" stroke-linejoin="round" clip-path="url(#d)" style="display:none"><g style="display:none"><path class="secondary"/><path class="primary"/></g><g style="display:none"><path class="secondary"/><path class="secondary"/></g></g><g id="b" fill-opacity="0" stroke-linecap="round" stroke-linejoin="round" style="display:block"><path stroke="#121331" stroke-width="12" d="M352.712 375.12H77.288c-12.375 0-22.407-10.033-22.407-22.408V77.288c0-12.375 10.032-22.407 22.407-22.407h275.424c12.375 0 22.407 10.032 22.407 22.407v275.424c0 12.375-10.032 22.408-22.407 22.408zm20.407-268.866H54.881" class="primary"/><path stroke="#08A88A" stroke-width="15" d="M142.864 80.567H143m-56.432 0h.136m28.012 0h.136" class="secondary"/><path stroke="#08A88A" stroke-width="12" d="M212.76 293.335H303m-167.996 0 52.648-52.649-52.648-52.649" class="secondary"/></g><g id="c" fill-opacity="0" stroke-linecap="round" stroke-linejoin="round" clip-path="url(#e)" style="display:none"><g style="display:none"><path class="primary"/><path class="secondary"/><path class="secondary"/><path class="secondary"/></g><g style="display:none"><path class="primary"/><path class="primary"/><path class="primary"/><path class="primary"/><path class="primary"/><path class="primary"/><path class="primary"/><path class="primary"/><path class="primary"/><path class="primary"/><path class="primary"/><path class="secondary"/><path class="secondary"/><path class="secondary"/><path class="secondary"/><path class="primary"/><path class="primary"/><path class="primary"/><path class="primary"/><path class="primary"/><path class="primary"/><path class="primary"/><path class="primary"/><path class="primary"/><path class="secondary"/><path class="secondary"/><path class="secondary"/></g></g></defs><g clip-path="url(#f)"><g clip-path="url(#g)" filter="url(#h)" mask="url(#i)" style="display:none"><g class="design"><path class="primary"/></g><g class="design"><path class="secondary"/></g></g><g clip-path="url(#j)" mask="url(#k)" style="display:block"><g filter="url(#l)" transform="rotate(-94 238.762 -16.565) scale(2.4)"><g class="design"><path fill="#4E4ED7" d="M0-250c137.975 0 250 112.025 250 250S137.975 250 0 250-250 137.975-250 0-137.975-250 0-250z" class="primary"/></g><g class="design"><path fill="#4E4ED7" d="M113.242-295.384c97.478 0 176.5 79.022 176.5 176.5s-79.022 176.5-176.5 176.5c-43.948 0-74.396-34.057-105.29-60.631-37.631-32.369-71.21-62.338-71.21-115.869 0-97.478 79.022-176.5 176.5-176.5z" class="secondary"/></g></g></g><g clip-path="url(#m)" filter="url(#n)" mask="url(#o)" style="display:none"><g class="design"><path class="primary"/></g><g class="design"><path class="secondary"/></g></g></g></svg>