<svg width="430" height="431" viewBox="0 0 430 431" fill="none" xmlns="http://www.w3.org/2000/svg">
<path d="M295.06 343.43H134.94C131.62 343.43 128.94 346.12 128.94 349.43C128.94 352.74 131.62 355.43 134.94 355.43H295.06C298.37 355.43 301.06 352.75 301.06 349.43C301.06 346.11 298.37 343.43 295.06 343.43ZM295.06 290.06H134.94C131.62 290.06 128.94 292.75 128.94 296.06C128.94 299.37 131.62 302.06 134.94 302.06H295.06C298.37 302.06 301.06 299.37 301.06 296.06C301.06 292.75 298.37 290.06 295.06 290.06ZM295.06 236.69H134.94C131.62 236.69 128.94 239.37 128.94 242.69C128.94 246.01 131.62 248.69 134.94 248.69H295.06C298.37 248.69 301.06 246 301.06 242.69C301.06 239.38 298.37 236.69 295.06 236.69ZM134.94 248.69H295.06C298.37 248.69 301.06 246 301.06 242.69C301.06 239.38 298.37 236.69 295.06 236.69H134.94C131.62 236.69 128.94 239.37 128.94 242.69C128.94 246.01 131.62 248.69 134.94 248.69ZM295.06 290.06H134.94C131.62 290.06 128.94 292.75 128.94 296.06C128.94 299.37 131.62 302.06 134.94 302.06H295.06C298.37 302.06 301.06 299.37 301.06 296.06C301.06 292.75 298.37 290.06 295.06 290.06ZM295.06 343.43H134.94C131.62 343.43 128.94 346.12 128.94 349.43C128.94 352.74 131.62 355.43 134.94 355.43H295.06C298.37 355.43 301.06 352.75 301.06 349.43C301.06 346.11 298.37 343.43 295.06 343.43ZM134.94 248.69H295.06C298.37 248.69 301.06 246 301.06 242.69C301.06 239.38 298.37 236.69 295.06 236.69H134.94C131.62 236.69 128.94 239.37 128.94 242.69C128.94 246.01 131.62 248.69 134.94 248.69ZM295.06 290.06H134.94C131.62 290.06 128.94 292.75 128.94 296.06C128.94 299.37 131.62 302.06 134.94 302.06H295.06C298.37 302.06 301.06 299.37 301.06 296.06C301.06 292.75 298.37 290.06 295.06 290.06ZM295.06 343.43H134.94C131.62 343.43 128.94 346.12 128.94 349.43C128.94 352.74 131.62 355.43 134.94 355.43H295.06C298.37 355.43 301.06 352.75 301.06 349.43C301.06 346.11 298.37 343.43 295.06 343.43ZM354.42 135.78C354.42 135.68 354.41 135.59 354.41 135.49C354.39 135.29 354.37 135.09 354.33 134.89C354.32 134.84 354.32 134.79 354.31 134.74C354.26 134.5 354.19 134.26 354.11 134.02C354.09 133.95 354.06 133.88 354.03 133.81C353.96 133.61 353.87 133.42 353.78 133.23C353.75 133.19 353.74 133.14 353.71 133.1C353.59 132.88 353.46 132.67 353.32 132.47C353.27 132.41 353.23 132.35 353.18 132.29C353.03 132.09 352.88 131.91 352.71 131.74C352.7 131.73 352.69 131.71 352.67 131.7L246.01 25.0299C245.78 24.7899 245.53 24.5799 245.26 24.3799C245.26 24.3799 245.24 24.3599 245.23 24.3599C244.77 24.0099 244.25 23.7399 243.7 23.5399C243.18 23.3499 242.62 23.2399 242.04 23.2099C242.01 23.2099 241.98 23.1999 241.96 23.1999C241.87 23.1999 241.79 23.1899 241.7 23.1899H81.5703C78.2503 23.1899 75.5703 25.8799 75.5703 29.1899V402.33C75.5703 405.64 78.2503 408.33 81.5703 408.33H348.43C351.74 408.33 354.43 405.64 354.43 402.33V135.94C354.43 135.94 354.43 135.83 354.43 135.78H354.42ZM342.43 396.33H87.5703V35.1899H235.68V135.94C235.68 139.25 238.37 141.94 241.68 141.94H342.43V396.33Z" fill="url(#paint0_linear_2121_10696)"/>
<defs>
<linearGradient id="paint0_linear_2121_10696" x1="24.0703" y1="78.1999" x2="352.56" y2="406.69" gradientUnits="userSpaceOnUse">
<stop stop-color="#4E4ED7"/>
<stop offset="1" stop-color="#4E4ED7"/>
</linearGradient>
</defs>
</svg>
