<svg width="430" height="430" viewBox="0 0 430 430" fill="none" xmlns="http://www.w3.org/2000/svg">
<path d="M399.7 142.7C399.3 142.3 398.8 141.9 398.2 141.6C397.9 141.4 397.6 141.3 397.2 141.2L216.9 77.3999C215.5 76.8999 214 76.8999 212.7 77.3999L33.2 141.1C30.7 142 29 144.4 29 147.1C29 147.6 29 148 29.1 148.5L29 176.1C29 178.8 30.7 181.2 33.2 182.1L100.4 205.9C100.4 208.3 100.5 208.5 100.4 209.8L100 296.1C100 297.2 100.3 298.3 100.8 299.2C101.1 299.8 108.7 313 126.7 326.1C143.1 338 171.7 352.3 215.1 352.4C215.3 352.4 215.5 352.4 215.7 352.4C258.2 352.4 286.2 338.2 302.2 326.2C319.9 313 327.3 299.6 327.7 299.1C328.2 298.2 328.5 297.1 328.5 296.1L328.9 209.8C328.9 208.5 329 208.3 329 206L397.3 181.8C399.8 180.9 401.5 178.5 401.5 175.9V147.2C401.6 145.5 400.9 143.9 399.7 142.7ZM214.8 89.9999L376.3 147.1L299.1 174.4V174.1C299.1 171.5 297.4 169.1 295 168.2L218 140.2C214.7 139 211.1 140.7 209.9 144C208.7 147.3 210.4 150.9 213.7 152.1L286.5 178.6V179L214.8 204.3L54.1 147.1L214.8 89.9999ZM41.7 156L212.7 216.8C214.1 217.3 215.6 217.3 216.9 216.8L286.5 192.2V207.7L214.8 233.1L41.6 171.6L41.7 156ZM215.8 339.8C215.6 339.8 215.4 339.8 215.2 339.8C175.6 339.7 149.6 326.9 134.8 316.3C121.9 307 114.9 297.6 112.7 294.3L113.1 210.4L212.7 245.8C213.4 246 214.1 246.2 214.8 246.2C215.5 246.2 216.2 246.1 216.9 245.8L286.5 221.1V273.2C284 275.1 282.3 278.2 282.3 281.6V305.4C282.3 311.2 287 315.9 292.8 315.9C293.8 315.9 294.7 315.8 295.7 315.5C295.2 315.8 294.8 316.2 294.3 316.5C273.3 332 246.9 339.8 215.8 339.8ZM316 294.3C314.3 296.9 309.9 303.1 302.2 310.1C302.9 308.7 303.3 307.1 303.3 305.4V281.6C303.3 278.2 301.7 275.1 299.1 273.2V216.6L316.4 210.5L316 294.3ZM389 171.4L299.1 203.3V187.8L389 156V171.4Z" fill="url(#paint0_linear_2164_6441)"/>
<defs>
<linearGradient id="paint0_linear_2164_6441" x1="100.676" y1="72.7898" x2="329.075" y2="301.189" gradientUnits="userSpaceOnUse">
<stop stop-color="#4E4ED7"/>
<stop offset="1" stop-color="#4E4ED7"/>
</linearGradient>
</defs>
</svg>
