<svg width="430" height="430" viewBox="0 0 430 430" fill="none" xmlns="http://www.w3.org/2000/svg">
<path d="M251 211C247.686 211 245 213.686 245 217C245 220.314 247.686 223 251 223H283L245.2 273.4C243.836 275.218 243.617 277.651 244.633 279.683C245.65 281.716 247.727 283 250 283H296C299.314 283 302 280.314 302 277C302 273.686 299.314 271 296 271H262L299.8 220.6C301.164 218.782 301.383 216.349 300.367 214.317C299.35 212.284 297.273 211 295 211H251Z" fill="url(#paint0_linear_3030_7249)"/>
<path d="M191 247.5C191 244.186 193.686 241.5 197 241.5H232C235.314 241.5 238 244.186 238 247.5C238 250.814 235.314 253.5 232 253.5H197C193.686 253.5 191 250.814 191 247.5Z" fill="url(#paint1_linear_3030_7249)"/>
<path fill-rule="evenodd" clip-rule="evenodd" d="M149.623 211C147.061 211 144.782 212.627 143.949 215.05L123.326 275.05C122.249 278.183 123.916 281.597 127.05 282.674C130.184 283.751 133.597 282.084 134.674 278.95L138.954 266.5H169.044L173.326 278.951C174.404 282.085 177.818 283.752 180.952 282.674C184.085 281.596 185.752 278.182 184.674 275.049L164.037 215.049C163.204 212.626 160.925 211 158.363 211H149.623ZM164.916 254.5H143.078L153.906 223H154.082L164.916 254.5Z" fill="url(#paint2_linear_3030_7249)"/>
<path fill-rule="evenodd" clip-rule="evenodd" d="M74 61.6615C74 40.8993 90.8993 24 111.661 24H350C353.314 24 356 26.6863 356 30V400C356 403.314 353.314 406 350 406H111.661C101.247 406 91.8749 401.872 85.0016 394.998C78.2726 388.269 74 378.908 74 368.454V61.6615ZM111.661 99.3229H344V394H111.661C104.512 394 98.1688 391.195 93.4869 386.513C88.8917 381.918 86 375.564 86 368.454V89.2003C92.7311 95.4769 101.757 99.3229 111.661 99.3229ZM111.661 36C97.5267 36 86 47.5267 86 61.6615C86 75.7962 97.5267 87.3229 111.661 87.3229H344V36H111.661Z" fill="url(#paint3_linear_3030_7249)"/>
<defs>
<linearGradient id="paint0_linear_3030_7249" x1="70.3207" y1="33.2327" x2="408.962" y2="273.512" gradientUnits="userSpaceOnUse">
<stop stop-color="#4e4ed7"/>
<stop offset="1" stop-color="#4e4ed7"/>
</linearGradient>
<linearGradient id="paint1_linear_3030_7249" x1="70.3207" y1="33.2327" x2="408.962" y2="273.512" gradientUnits="userSpaceOnUse">
<stop stop-color="#4e4ed7"/>
<stop offset="1" stop-color="#4e4ed7"/>
</linearGradient>
<linearGradient id="paint2_linear_3030_7249" x1="70.3207" y1="33.2327" x2="408.962" y2="273.512" gradientUnits="userSpaceOnUse">
<stop stop-color="#4e4ed7"/>
<stop offset="1" stop-color="#4e4ed7"/>
</linearGradient>
<linearGradient id="paint3_linear_3030_7249" x1="70.3207" y1="33.2327" x2="408.962" y2="273.512" gradientUnits="userSpaceOnUse">
<stop stop-color="#4e4ed7"/>
<stop offset="1" stop-color="#4e4ed7"/>
</linearGradient>
</defs>
</svg>
