<svg xmlns="http://www.w3.org/2000/svg" width="430" height="430" style="width:100%;height:100%;transform:translate3d(0,0,0);content-visibility:visible" viewBox="0 0 430 430"><defs><clipPath id="e"><path d="M0 0h430v430H0z"/></clipPath><clipPath id="i"><path d="M0 0h430v430H0z"/></clipPath><clipPath id="c"><path d="M0 0h430v430H0z"/></clipPath><clipPath id="f"><path d="M0 0h430v430H0z"/></clipPath><clipPath id="d"><path d="M0 0h430v430H0z"/></clipPath><filter id="j" width="300%" height="300%" x="-100%" y="-100%"><feGaussianBlur result="filter_result_0"/></filter><filter id="h" width="300%" height="300%" x="-100%" y="-100%"><feGaussianBlur result="filter_result_0" stdDeviation="52.5 52.5"/></filter><mask id="k" mask-type="alpha"><use xmlns:ns1="http://www.w3.org/1999/xlink" ns1:href="#a"/></mask><mask id="g" mask-type="alpha"><use xmlns:ns2="http://www.w3.org/1999/xlink" ns2:href="#b"/></mask><g id="a" fill-opacity="0" stroke-linecap="round" stroke-linejoin="round" clip-path="url(#c)" style="display:none"><g style="display:none"><path class="primary"/><path class="primary"/><path class="primary"/><path class="secondary"/><path class="secondary"/><path class="primary"/><path class="primary"/><path class="secondary"/><path class="secondary"/></g><g style="display:none"><path class="secondary"/><path class="primary"/></g></g><g id="b" fill-opacity="0" stroke-linecap="round" stroke-linejoin="round" clip-path="url(#d)" style="display:block"><g style="display:block"><path stroke="#121331" stroke-width="12.04" d="M352.712 375.119H77.288c-12.375 0-22.407-10.032-22.407-22.407V77.288c0-12.375 10.032-22.407 22.407-22.407h275.424c12.375 0 22.407 10.032 22.407 22.407v275.424c0 12.375-10.032 22.407-22.407 22.407zm20.407-268.865H54.881" class="primary"/><path stroke="#08A88A" stroke-width="15.05" d="M145.864 80.567H146m-56.432 0h.136m28.012 0h.136" class="secondary"/></g><g stroke-width="12.04" style="display:block"><path stroke="#121331" d="M150.5 191.084v146.25m93.125-146.25v146.25m93.125-146.25v146.25H93.25V191.002" class="primary"/><path stroke="#08A88A" d="M93.25 191.084v-48.75h243.5v48.75m0 0H93.25" class="secondary"/><path stroke="#121331" d="M336.75 239.834H93.25m243.5 48.75H93.25" class="primary"/><path stroke="#08A88A" d="M150.5 142.334v48.75m93.126-48.75v48.75" class="secondary"/></g><path class="primary" style="display:none"/><path class="primary" style="display:none"/><path class="primary" style="display:none"/><path class="primary" style="display:none"/><path class="primary" style="display:none"/><path class="primary" style="display:none"/><path class="primary" style="display:none"/><path class="primary" style="display:none"/><path class="primary" style="display:none"/><path stroke="#08A88A" stroke-width="12.04" d="M0 0" class="secondary" style="display:block" transform="translate(204.125 210.5)"/><path stroke="#08A88A" stroke-width="12.04" d="M0 0" class="secondary" style="display:block" transform="translate(295.5 210.5)"/><path stroke="#08A88A" stroke-width="12.04" d="M0 0" class="secondary" style="display:block" transform="translate(388.25 210.5)"/></g></defs><g clip-path="url(#e)"><g clip-path="url(#f)" mask="url(#g)" style="display:block"><g filter="url(#h)" transform="rotate(-94 238.762 -16.565) scale(2.4)"><g class="design"><path fill="#4E4ED7" d="M0-250c137.975 0 250 112.025 250 250S137.975 250 0 250-250 137.975-250 0-137.975-250 0-250z" class="primary"/></g><g class="design"><path fill="#4E4ED7" d="M113.242-295.384c97.478 0 176.5 79.022 176.5 176.5s-79.022 176.5-176.5 176.5c-43.948 0-74.396-34.057-105.29-60.631-37.631-32.369-71.21-62.338-71.21-115.869 0-97.478 79.022-176.5 176.5-176.5z" class="secondary"/></g></g></g><g clip-path="url(#i)" filter="url(#j)" mask="url(#k)" style="display:none"><g class="design"><path class="primary"/></g><g class="design"><path class="secondary"/></g></g></g></svg>