<svg width="430" height="430" viewBox="0 0 430 430" fill="none" xmlns="http://www.w3.org/2000/svg">
<path d="M401.1 93.9003C400.2 93.8003 378 92.0003 356.5 96.9003C319.2 105.4 302.9 125 302.2 125.8C301.3 126.9 300.8 128.3 300.8 129.7C280.6 125.4 237.6 116.6 220.7 116.8C212.6 116.9 203.5 121 194.7 127H119.3L121.8 117.7C122.5 115 121.4 112.2 119 110.7C118.5 110.4 105.6 102.5 74.1 96.9003C52.7 93.0003 31 93.8003 30 93.9003C26.7 94.0003 24 96.8003 24 100.2V250C24 253.5 26.8 256.3 30.3 256.3H80.3C83.2 256.3 85.7 254.4 86.4 251.6L88.9 242.3C111.5 264.7 177 327.5 207.1 335.7C212.2 337.1 216.7 337.7 220.5 337.7C228.8 337.7 234.2 335.1 237.5 332.6C243.8 335.6 249.7 335.2 256.2 331.7C262.8 328.1 268.3 321.9 271.7 317.2C278.5 320.8 284.6 320.6 291.6 316.9C298.9 313 304.7 305.9 308.1 301.2C311.8 301.4 315.6 300.5 319.5 298.3C321.9 297 327.3 292.4 329 290.4C335.5 282.6 335.5 273 331.9 264.4L345.6 253.4C346.8 255.2 348.7 256.3 350.9 256.3H400.9C404.4 256.3 407.2 253.5 407.2 250V100.2C406.9 96.9003 404.4 94.2003 401.1 93.9003ZM36.6 243.7V106.4C44.3 106.4 58.3 106.8 71.9 109.3C91.1 112.8 102.7 117 108.3 119.5L75.4 243.7H36.6ZM319.2 282.3C318.4 283.3 314.5 286.6 313.4 287.2C311.9 288 310.6 288.6 309.1 288.6C308.9 288.5 308.7 288.3 308.5 288.2C307.4 287.6 306.2 287.3 305 287.3C304 286.7 302.8 286 301.5 284.9C294.5 279.4 284.9 268.5 268.9 250.4C263.7 244.5 257.9 237.9 251.2 230.4C248.9 227.8 244.9 227.6 242.3 229.9C239.7 232.2 239.5 236.2 241.8 238.8C248.4 246.2 254.3 252.9 259.4 258.7C275.9 277.4 285.8 288.6 293.7 294.8C294.4 295.3 295 295.8 295.7 296.3C292.8 300 289.1 303.7 285.4 305.7C282.3 307.4 280.1 308.2 274.7 304.2C274.2 303.7 273.7 303.2 273.1 302.8C273 302.7 272.8 302.6 272.7 302.6C265.8 296.9 256.3 286.2 241.1 268.9C235.9 263 230.1 256.4 223.4 248.9C221.1 246.3 217.1 246.1 214.5 248.4C211.9 250.7 211.7 254.7 214 257.3C220.6 264.7 226.4 271.3 231.6 277.2C245.1 292.6 254.2 302.9 261.4 309.5C258.3 313.7 254.2 318.1 250 320.4C246.7 322.2 244.4 323 238.2 318.1C231.2 312.6 221.6 301.7 205.6 283.6C200.4 277.7 194.6 271.1 187.9 263.6C185.6 261 181.6 260.8 179 263.1C176.4 265.4 176.2 269.4 178.5 272C185.1 279.4 190.9 286 196.1 291.9C209.6 307.2 218.7 317.5 225.8 324.1C222.6 325 217.6 325.3 210.1 323.3C183.9 316.1 118.5 254.4 92.3 227.9L116 139.5H179.3C167.5 150.6 158.1 162.8 155.2 169.2C151 178.3 149.4 191.9 155.2 201.8C158.2 206.9 164.4 213 176.9 213.8C177.6 213.8 178.2 213.9 178.9 213.9C198.6 213.9 221.9 195.7 231.5 187.4C256.2 208.1 296.3 243.9 314.2 260.9C315.7 262.3 317.1 263.9 318.2 265.7C318.3 266 318.5 266.2 318.7 266.5C321.9 271.7 323 277.7 319.2 282.3ZM324.8 253.8C324.2 253.1 323.5 252.4 322.8 251.8C303.7 233.7 259.6 194.4 235.2 174.3C232.8 172.3 229.2 172.4 226.9 174.6C218.6 182.4 193.7 202.4 177.6 201.4C171.9 201 168.1 199.1 166 195.5C162.6 189.9 163.7 180.7 166.6 174.6C172.2 162.4 203.6 129.7 220.9 129.5C221.1 129.5 221.3 129.5 221.5 129.5C239.9 129.5 291.7 140.7 305.4 143.7L340.7 241.1L324.8 253.8ZM394.3 243.7H355L314.4 131.3C319.7 126.3 334 114.9 359.3 109.2C372.7 106.2 386.7 106 394.3 106.2V243.7ZM78.8 138.2C78.8 144 74.1 148.7 68.3 148.7C62.5 148.7 57.8 144 57.8 138.2C57.8 132.4 62.5 127.7 68.3 127.7C74.1 127.7 78.8 132.4 78.8 138.2ZM373 138.2C373 144 368.3 148.7 362.5 148.7C356.7 148.7 352 144 352 138.2C352 132.4 356.7 127.7 362.5 127.7C368.3 127.7 373 132.4 373 138.2Z" fill="url(#paint0_linear_2035_1664)"/>
<defs>
<linearGradient id="paint0_linear_2035_1664" x1="80.9644" y1="40.598" x2="349.907" y2="309.541" gradientUnits="userSpaceOnUse">
<stop stop-color="#4E4ED7"/>
<stop offset="1" stop-color="#4E4ED7"/>
</linearGradient>
</defs>
</svg>
