<svg width="430" height="431" viewBox="0 0 430 431" fill="none" xmlns="http://www.w3.org/2000/svg">
  <path
    d="M369.2 80.6H144.4C142.3 57.9 123.1 40 99.8 40C75.1 40 55 60.1 55 84.8V326.4C55 351.1 75.1 371.2 99.8 371.2H369.2C372.5 371.2 375.2 368.5 375.2 365.2V86.6C375.2 83.3 372.5 80.6 369.2 80.6ZM193 193.3H208.2C211.5 193.3 214.2 190.6 214.2 187.3V140H237.5V161.3C237.5 164.6 240.2 167.3 243.5 167.3C246.8 167.3 249.5 164.6 249.5 161.3V140H316.8V202.3H249.5V192.2C249.5 188.9 246.8 186.2 243.5 186.2C240.2 186.2 237.5 188.9 237.5 192.2V208.3C237.5 211.6 240.2 214.3 243.5 214.3H316.8V241.8H243.5C240.2 241.8 237.5 244.5 237.5 247.8V263.9C237.5 267.2 240.2 269.9 243.5 269.9C246.8 269.9 249.5 267.2 249.5 263.9V253.8H316.8V312H249.5V294C249.5 290.7 246.8 288 243.5 288C240.2 288 237.5 290.7 237.5 294V311.9H144.9V289.1H180.8C184.1 289.1 186.8 286.4 186.8 283.1C186.8 258.7 168.5 238.5 144.9 235.5V193.3H159.8C163.1 193.3 165.8 190.6 165.8 187.3C165.8 184 163.1 181.3 159.8 181.3H144.9V140H202.2V181.3H193C189.7 181.3 187 184 187 187.3C187 190.6 189.7 193.3 193 193.3ZM144.9 247.6C159.9 250.1 171.8 262 174.3 277H144.9V247.6ZM67 295.9V84.8C67 66.7 81.7 52 99.8 52C117.9 52 132.6 66.7 132.6 84.8V86.6V92.6V295.9C124.4 287.1 112.7 281.6 99.8 281.6C99 281.6 98.2 281.6 97.4 281.7C97.1 281.7 96.9 281.7 96.6 281.8C96.1 281.8 95.6 281.9 95.1 281.9C94.8 281.9 94.5 282 94.2 282C93.7 282.1 93.3 282.1 92.8 282.2C92.5 282.2 92.1 282.3 91.8 282.4C91.4 282.5 90.9 282.5 90.5 282.6C90.2 282.7 89.8 282.7 89.5 282.8C89.1 282.9 88.7 283 88.3 283.1C88 283.2 87.6 283.3 87.3 283.4C86.9 283.5 86.5 283.6 86.1 283.8C85.8 283.9 85.4 284 85.1 284.1C84.7 284.2 84.3 284.4 84 284.5C83.7 284.6 83.3 284.8 83 284.9C82.6 285 82.3 285.2 81.9 285.4C81.6 285.5 81.3 285.7 80.9 285.8C80.5 286 80.2 286.1 79.8 286.3C79.5 286.5 79.2 286.6 78.9 286.8C78.6 287 78.2 287.2 77.9 287.4C77.6 287.6 77.3 287.7 77 287.9C76.7 288.1 76.3 288.3 76 288.5C75.7 288.7 75.4 288.9 75.1 289.1C74.8 289.3 74.4 289.5 74.1 289.8C73.8 290 73.5 290.2 73.3 290.4C73 290.6 72.7 290.9 72.4 291.1C72.1 291.3 71.9 291.5 71.6 291.7C71.3 292 71 292.2 70.7 292.5C70.4 292.7 70.2 292.9 69.9 293.2C69.6 293.5 69.3 293.7 69 294C68.8 294.2 68.5 294.5 68.3 294.7C68 295 67.7 295.3 67.4 295.6C67.3 295.6 67.2 295.8 67 295.9ZM363.2 359.2H99.8C81.7 359.2 67 344.5 67 326.4C67 308.3 81.7 293.6 99.8 293.6C117.9 293.6 132.6 308.3 132.6 326.4C132.6 329.7 135.3 332.4 138.6 332.4C141.9 332.4 144.6 329.7 144.6 326.4V323.9H322.8C326.1 323.9 328.8 321.2 328.8 317.9V134C328.8 130.7 326.1 128 322.8 128H144.6V92.6H363.2V359.2Z"
    fill="url(#paint0_linear_2121_10234)" />
  <defs>
    <linearGradient id="paint0_linear_2121_10234" x1="60.9238" y1="60.3537" x2="371.766" y2="371.196"
      gradientUnits="userSpaceOnUse">
      <stop stop-color="#00B39E" />
      <stop offset="1" stop-color="#068BDF" />
    </linearGradient>
  </defs>
</svg>