<svg width="430" height="430" viewBox="0 0 430 430" fill="none" xmlns="http://www.w3.org/2000/svg">
<path d="M352.8 49H77.4C61.8 49 49 61.7 49 77.4V352.8C49 368.5 61.7 381.2 77.4 381.2H352.8C368.5 381.2 381.2 368.5 381.2 352.8V77.4C381.2 61.7 368.5 49 352.8 49ZM77.4 61H352.8C361.8 61 369.2 68.4 369.2 77.4V100.4H61V77.4C61 68.4 68.4 61 77.4 61ZM352.8 369.2H77.4C68.3 369.2 61 361.8 61 352.8V112.4H369.2V352.9C369.2 361.9 361.9 369.2 352.8 369.2ZM137 80.7C137 75.7 141 71.7 146 71.7H146.1C151.1 71.7 155.1 75.7 155.1 80.7C155.1 85.7 151.1 89.7 146.1 89.7H146C141 89.7 137 85.7 137 80.7ZM80.7 80.7C80.7 75.7 84.7 71.7 89.7 71.7H89.8C94.8 71.7 98.8 75.7 98.8 80.7C98.8 85.7 94.8 89.7 89.8 89.7H89.7C84.7 89.7 80.7 85.7 80.7 80.7ZM108.8 80.7C108.8 75.7 112.8 71.7 117.8 71.7H118C123 71.7 127 75.7 127 80.7C127 85.7 123 89.7 118 89.7H117.9C112.9 89.7 108.8 85.7 108.8 80.7ZM336.9 136.4H93.4C90.1 136.4 87.4 139.1 87.4 142.4V191.1V191.2V337.5C87.4 340.8 90.1 343.5 93.4 343.5H336.9C340.2 343.5 342.9 340.8 342.9 337.5V191.2V142.4C342.9 139.1 340.2 136.4 336.9 136.4ZM156.6 282.7V245.9H237.7V282.7H156.6ZM237.7 294.7V331.5H156.6V294.7H237.7ZM156.6 197.2H237.7V234H156.6V197.2ZM249.7 197.2H330.8V234H249.7V197.2ZM237.8 185.2H156.7V148.4H237.8V185.2ZM144.6 233.9H99.4V197.1H144.6V233.9ZM99.4 245.9H144.6V282.7H99.4V245.9ZM249.7 245.9H330.8V282.7H249.7V245.9ZM330.9 185.2H249.8V148.4H330.9V185.2ZM144.6 148.4V185.2H99.4V148.4H144.6ZM99.4 294.7H144.6V331.5H99.4V294.7ZM249.7 331.4V294.6H330.8V331.4H249.7Z" fill="url(#paint0_linear_2119_2303)"/>
<defs>
<linearGradient id="paint0_linear_2119_2303" x1="57.3315" y1="57.3297" x2="372.91" y2="372.908" gradientUnits="userSpaceOnUse">
<stop stop-color="#4E4ED7"/>
<stop offset="1" stop-color="#4E4ED7"/>
</linearGradient>
</defs>
</svg>
