<svg xmlns="http://www.w3.org/2000/svg" width="430" height="430" style="width:100%;height:100%;transform:translate3d(0,0,0);content-visibility:visible" viewBox="0 0 430 430"><defs><clipPath id="A"><path d="M0 0h430v430H0z"/></clipPath><clipPath id="K"><path d="M0 0h430v430H0z"/></clipPath><clipPath id="l"><path d="M0 0h430v430H0z"/></clipPath><clipPath id="m"><path d="M0 0h430v430H0z"/></clipPath><clipPath id="H"><path d="M0 0h430v430H0z"/></clipPath><clipPath id="o"><path d="M0 0h430v430H0z"/></clipPath><clipPath id="p"><path d="M0 0h430v430H0z"/></clipPath><clipPath id="E"><path d="M0 0h430v430H0z"/></clipPath><clipPath id="q"><path d="M0 0h430v430H0z"/></clipPath><clipPath id="s"><path d="M0 0h430v430H0z"/></clipPath><clipPath id="r"><path d="M0 0h430v430H0z"/></clipPath><clipPath id="B"><path d="M0 0h430v430H0z"/></clipPath><clipPath id="u"><path d="M0 0h430v430H0z"/></clipPath><clipPath id="y"><path d="M0 0h430v430H0z"/></clipPath><clipPath id="z"><path fill="#fff"/></clipPath><clipPath id="v"><path d="M0 0h430v430H0z"/></clipPath><mask id="n" mask-type="alpha"><use xmlns:ns1="http://www.w3.org/1999/xlink" ns1:href="#a"/></mask><mask id="M" mask-type="alpha"><use xmlns:ns2="http://www.w3.org/1999/xlink" ns2:href="#b"/></mask><mask id="J" mask-type="alpha"><use xmlns:ns3="http://www.w3.org/1999/xlink" ns3:href="#c"/></mask><mask id="t" mask-type="alpha"><g filter="url(#d)"><path fill="#fff" d="M0 0h430v430H0z" opacity="0"/><use xmlns:ns4="http://www.w3.org/1999/xlink" ns4:href="#e"/></g></mask><mask id="F" mask-type="alpha"><use xmlns:ns5="http://www.w3.org/1999/xlink" ns5:href="#f"/></mask><mask id="x" mask-type="alpha"><g filter="url(#g)"><path fill="#fff" d="M0 0h430v430H0z" opacity="0"/><use xmlns:ns6="http://www.w3.org/1999/xlink" ns6:href="#h"/></g></mask><mask id="w" mask-type="alpha"><g filter="url(#i)"><path fill="#fff" d="M0 0h430v430H0z" opacity="0"/><use xmlns:ns7="http://www.w3.org/1999/xlink" ns7:href="#j"/></g></mask><mask id="D" mask-type="alpha"><use xmlns:ns8="http://www.w3.org/1999/xlink" ns8:href="#k"/></mask><filter id="L" width="300%" height="300%" x="-100%" y="-100%"><feGaussianBlur result="filter_result_0"/></filter><filter id="I" width="300%" height="300%" x="-100%" y="-100%"><feGaussianBlur result="filter_result_0"/></filter><filter id="d" width="100%" height="100%" x="0%" y="0%" filterUnits="objectBoundingBox"><feComponentTransfer in="SourceGraphic"><feFuncA tableValues="1.0 0.0" type="table"/></feComponentTransfer></filter><filter id="G" width="300%" height="300%" x="-100%" y="-100%"><feGaussianBlur result="filter_result_0" stdDeviation="52.5 52.5"/></filter><filter id="g" width="100%" height="100%" x="0%" y="0%" filterUnits="objectBoundingBox"><feComponentTransfer in="SourceGraphic"><feFuncA tableValues="1.0 0.0" type="table"/></feComponentTransfer></filter><filter id="i" width="100%" height="100%" x="0%" y="0%" filterUnits="objectBoundingBox"><feComponentTransfer in="SourceGraphic"><feFuncA tableValues="1.0 0.0" type="table"/></feComponentTransfer></filter><filter id="C" width="300%" height="300%" x="-100%" y="-100%"><feGaussianBlur result="filter_result_0"/></filter><g id="b" clip-path="url(#l)" style="display:none"><g fill-opacity="0" stroke-linecap="round" stroke-linejoin="round" clip-path="url(#m)" mask="url(#n)" style="display:none"><path class="secondary" style="display:none"/><path class="secondary" style="display:none"/><path class="secondary" style="display:none"/></g><path fill-opacity="0" stroke-linecap="round" stroke-linejoin="round" class="primary" style="display:none"/><path fill-opacity="0" stroke-linecap="round" stroke-linejoin="round" class="primary" style="display:none"/><g style="display:none"><path/><path fill-opacity="0" stroke-linecap="round" stroke-linejoin="round" class="primary"/><path fill-opacity="0" stroke-linecap="round" stroke-linejoin="round" class="primary"/></g></g><g id="c" clip-path="url(#o)" style="display:none"><g fill-opacity="0" stroke-linecap="round" stroke-linejoin="round" clip-path="url(#p)" style="display:none"><path class="secondary" style="display:none"/><path class="secondary" style="display:none"/><path class="secondary" style="display:none"/></g><path fill-opacity="0" stroke-linecap="round" stroke-linejoin="round" class="primary" style="display:none"/><g style="display:none"><path/><path fill-opacity="0" stroke-linecap="round" stroke-linejoin="round" class="primary"/><path fill-opacity="0" stroke-linecap="round" stroke-linejoin="round" class="primary"/></g><path fill-opacity="0" stroke-linecap="round" stroke-linejoin="round" class="primary" style="display:none"/></g><g id="f" clip-path="url(#q)" style="display:block"><g fill-opacity="0" stroke-linecap="round" stroke-linejoin="round" clip-path="url(#r)" style="display:none"><path class="secondary" style="display:none"/><path class="secondary" style="display:none"/><path class="secondary" style="display:none"/></g><g fill-opacity="0" stroke="#08A88A" stroke-linecap="round" stroke-linejoin="round" stroke-width="12" clip-path="url(#s)" mask="url(#t)" style="display:block"><path d="M-80.06 0H80.06" class="secondary" style="display:block" transform="translate(215 241.687)"/><path d="M-80.06 0H80.06" class="secondary" style="display:block" transform="translate(215 295.06)"/><path d="M-80.06 0H80.06" class="secondary" style="display:block" transform="translate(215 348.433)"/></g><path fill="red" d="M26.69-186.57h.06v106.81h106.68v-.06L26.69-186.57z" style="display:block" transform="translate(214 214.76)"/><g fill-opacity="0" stroke="#121331" stroke-linecap="round" stroke-linejoin="round" stroke-width="12" style="display:block"><path d="M241.69 28.19H81.57v373.14h266.86V134.94L241.69 28.19z" class="primary"/><path d="M241.687 28.194V134.94h106.746" class="primary"/></g><g style="display:block"><path fill="red" d="M241.69 28.19s3.3 2.32 53 52.75c50.31 51.06 53.74 54 53.74 54"/><path fill-opacity="0" stroke="#121331" stroke-linecap="round" stroke-linejoin="round" stroke-width="12" d="M241.687 28.194s3.306 2.315 53 52.746c50.313 51.06 53.746 54 53.746 54" class="primary"/></g></g><g id="k" clip-path="url(#u)" style="display:none"><g fill-opacity="0" stroke-linecap="round" stroke-linejoin="round" clip-path="url(#v)" mask="url(#w)" style="display:none"><path class="secondary" style="display:none"/><path class="secondary" style="display:none"/><path class="secondary" style="display:none"/></g><g mask="url(#x)" style="display:none"><path fill-opacity="0" stroke-linecap="round" stroke-linejoin="round" class="primary"/><path/><path fill-opacity="0" stroke-linecap="round" stroke-linejoin="round" class="primary"/><path fill-opacity="0" stroke-linecap="round" stroke-linejoin="round" class="primary"/></g><g clip-path="url(#y)" style="display:none"><g fill-opacity="0" stroke-linecap="round" stroke-linejoin="round" clip-path="url(#z)"><path class="secondary" style="display:none"/><path class="secondary" style="display:none"/><path class="secondary" style="display:none"/></g></g><path fill-opacity="0" stroke-linecap="round" stroke-linejoin="round" class="primary" style="display:none"/><g style="display:none"><path/><path fill-opacity="0" stroke-linecap="round" stroke-linejoin="round" class="primary"/><path fill-opacity="0" stroke-linecap="round" stroke-linejoin="round" class="primary"/></g><path fill-opacity="0" stroke-linecap="round" stroke-linejoin="round" class="primary" style="display:none"/></g><g id="h" style="display:none"><path fill-opacity="0"/><path/></g><g id="j" style="display:none"><path fill-opacity="0"/><path/></g><path id="a" style="display:none"/><path id="e" fill="red" d="M26.69-186.57h.06v106.81h106.68v-.06L26.69-186.57z" style="display:block" transform="translate(214 214.76)"/></defs><g clip-path="url(#A)"><g clip-path="url(#B)" filter="url(#C)" mask="url(#D)" style="display:none"><g class="design"><path class="primary"/></g><g class="design"><path class="secondary"/></g></g><g clip-path="url(#E)" mask="url(#F)" style="display:block"><g filter="url(#G)" transform="rotate(-94 243.424 -11.565) scale(2.4)"><g class="design"><path fill="#4E4ED7" d="M0-250c137.975 0 250 112.025 250 250S137.975 250 0 250-250 137.975-250 0-137.975-250 0-250z" class="primary"/></g><g class="design"><path fill="#4E4ED7" d="M113.242-295.384c97.478 0 176.5 79.022 176.5 176.5s-79.022 176.5-176.5 176.5c-43.948 0-74.396-34.057-105.29-60.631-37.631-32.369-71.21-62.338-71.21-115.869 0-97.478 79.022-176.5 176.5-176.5z" class="secondary"/></g></g></g><g clip-path="url(#H)" filter="url(#I)" mask="url(#J)" style="display:none"><g class="design"><path class="primary"/></g><g class="design"><path class="secondary"/></g></g><g clip-path="url(#K)" filter="url(#L)" mask="url(#M)" style="display:none"><g class="design"><path class="primary"/></g><g class="design"><path class="secondary"/></g></g></g></svg>