<svg xmlns="http://www.w3.org/2000/svg" width="430" height="430" style="width:100%;height:100%;transform:translate3d(0,0,0);content-visibility:visible" viewBox="0 0 430 430"><defs><clipPath id="e"><path d="M0 0h430v430H0z"/></clipPath><clipPath id="i"><path d="M0 0h430v430H0z"/></clipPath><clipPath id="c"><path d="M0 0h430v430H0z"/></clipPath><clipPath id="f"><path d="M0 0h430v430H0z"/></clipPath><clipPath id="d"><path d="M0 0h430v430H0z"/></clipPath><filter id="j" width="300%" height="300%" x="-100%" y="-100%"><feGaussianBlur result="filter_result_0"/></filter><filter id="h" width="300%" height="300%" x="-100%" y="-100%"><feGaussianBlur result="filter_result_0" stdDeviation="52.5 52.5"/></filter><mask id="k" mask-type="alpha"><use xmlns:ns1="http://www.w3.org/1999/xlink" ns1:href="#a"/></mask><mask id="g" mask-type="alpha"><use xmlns:ns2="http://www.w3.org/1999/xlink" ns2:href="#b"/></mask><g id="a" fill-opacity="0" stroke-linecap="round" stroke-linejoin="round" clip-path="url(#c)" style="display:none"><path class="primary" style="display:none"/><path class="primary" style="display:none"/><path class="secondary" style="display:none"/><path class="secondary" style="display:none"/></g><g id="b" fill-opacity="0" stroke-linecap="round" stroke-linejoin="round" clip-path="url(#d)" style="display:block"><path stroke="#121331" stroke-width="12.6" d="m98.395-30.292-.401 86.297S70.507 106.292-9.055 106.034c-80.665-.262-108.846-50.029-108.846-50.029l.401-86.297" class="primary" style="display:block" transform="translate(224 236.999)"/><path stroke="#121331" stroke-width="12.6" d="M180.44-92.969.021-156.781-179.469-93 .021-29.219l180.419-63.75zm-357.657-.061-2.098-.001-.154 29.031L.021-.219 180.47-64.25s0 0 0 0l.03-28.687-5.922-.002" class="primary" style="display:block" transform="translate(214.5 236.999)"/><g stroke="#08A88A" style="display:block"><path stroke-width="12.6" d="m215.5 142.999 77 28v105m0 2.5v23.844" class="secondary"/><path stroke-width="21" d="M292.5 278.499v23.844" class="secondary"/></g></g></defs><g clip-path="url(#e)"><g clip-path="url(#f)" mask="url(#g)" style="display:block"><g filter="url(#h)" transform="rotate(-94 243.424 -11.565) scale(2.4)"><g class="design"><path fill="#4E4ED7" d="M0-250c137.975 0 250 112.025 250 250S137.975 250 0 250-250 137.975-250 0-137.975-250 0-250z" class="primary"/></g><g class="design"><path fill="#4E4ED7" d="M113.242-295.384c97.478 0 176.5 79.022 176.5 176.5s-79.022 176.5-176.5 176.5c-43.948 0-74.396-34.057-105.29-60.631-37.631-32.369-71.21-62.338-71.21-115.869 0-97.478 79.022-176.5 176.5-176.5z" class="secondary"/></g></g></g><g clip-path="url(#i)" filter="url(#j)" mask="url(#k)" style="display:none"><g class="design"><path class="primary"/></g><g class="design"><path class="secondary"/></g></g></g></svg>