<?xml version="1.0" encoding="UTF-8"?>
<svg width="25px" height="25px" viewBox="0 0 25 25" version="1.1" xmlns="http://www.w3.org/2000/svg" xmlns:xlink="http://www.w3.org/1999/xlink">
    <title>MC_25x25</title>
    <g id="Design" stroke="none" stroke-width="1" fill="none" fill-rule="evenodd">
        <g id="-Icon" transform="translate(-674.000000, -249.000000)">
            <g id="MC_25x25" transform="translate(674.000000, 249.000000)">
                <g id="Custom_application_80x80"></g>
                <g id="ct-minimize-effort" transform="translate(0.937500, 2.562500)" fill="#003037" fill-rule="nonzero">
                    <path d="M2.87207063,1.4315239 C2.87549643,0.794030433 3.37357,0.279123518 3.98678712,0.279133466 L19.1195305,0.279133466 C19.7317321,0.279133466 20.2280195,0.795076239 20.2280195,1.4315239 L20.2280195,8.90911355 L21.0625,8.90911355 L21.0625,1.4315239 C21.0590819,0.331730174 20.2023364,-0.558946519 19.1444403,-0.5625 L3.98678712,-0.5625 C2.92786797,-0.558971704 2.06932633,0.330683762 2.0625,1.4315239 L2.0625,12.4375 L2.87207063,12.4375 L2.87207063,1.4315239 Z" id="Path"></path>
                    <rect id="Rectangle" x="11.0625" y="2.4375" width="2" height="1"></rect>
                    <path d="M0.0625,14.8595779 C0.0625,16.8356097 1.59908105,18.4375 3.49454983,18.4375 L11.0625,18.4375 L11.0625,17.5933442 L3.49454983,17.5933442 C2.20345803,17.5907701 1.10530567,16.6110623 0.903383352,15.2816558 L11.0625,15.2816558 L11.0625,14.4375 L0.0625,14.4375 L0.0625,14.8595779 Z" id="Path"></path>
                    <path d="M18.55643,14.4375 C17.7288032,14.4408508 17.0602795,15.1139023 17.0625055,15.941537 C17.0647427,16.7691717 17.7368861,17.4386083 18.5645189,17.4375 C19.3921517,17.4363835 20.0625055,16.7651425 20.0625055,15.9375 C20.0591556,15.1080936 19.3858436,14.4375 18.55643,14.4375 L18.55643,14.4375 Z M18.55643,16.6480333 C18.1648259,16.6446861 17.8497626,16.3251048 17.8519776,15.9334907 C17.854216,15.5418767 18.172893,15.2258988 18.5645098,15.2270021 C18.9561267,15.2281112 19.2730135,15.5458844 19.2730278,15.9375048 C19.2730278,16.1270056 19.197343,16.3086578 19.0627774,16.4420837 C18.9282118,16.5755096 18.7459229,16.649653 18.55643,16.6480333 L18.55643,16.6480333 Z" id="Shape"></path>
                    <path d="M21.7513218,15.9375 C21.7573415,15.8182052 21.7573415,15.6986553 21.7513218,15.5793605 L23.0625,14.1468023 L22.0292674,12.2281977 L20.2165785,12.7078488 C20.026625,12.5697901 19.8242288,12.4519679 19.6123489,12.3561047 L19.0987538,10.4375 L17.0262462,10.4375 L16.5066088,12.3561047 C16.2945525,12.4515843 16.0921211,12.5694271 15.9023792,12.7078488 L14.0896903,12.2281977 L13.0625,14.1468023 L14.3978474,15.5793605 C14.3978474,15.7008721 14.3978474,15.8159884 14.3978474,15.9375 C14.3978474,16.0590116 14.3978474,16.1741279 14.3978474,16.2956395 L13.0685423,17.7281977 L14.0957326,19.6468023 L15.9084215,19.1607558 C16.0980166,19.3012094 16.3004388,19.4211892 16.5126511,19.5188953 L17.0322885,21.4375 L19.0927115,21.4375 L19.6063066,19.5188953 C19.8176396,19.4193228 20.019897,19.2994406 20.2105363,19.1607558 L22.0232251,19.6468023 L23.0564577,17.7281977 L21.7452795,16.2956395 C21.7533128,16.1764585 21.7553298,16.0569086 21.7513218,15.9375 L21.7513218,15.9375 Z M22.0655211,17.8561047 L21.6486027,18.6555233 L20.0292674,18.2270349 L19.8721677,18.3549419 C19.6527848,18.5397408 19.40835,18.6885032 19.1470921,18.7962209 L18.9718656,18.8729651 L18.5126511,20.5741279 L17.6183912,20.5741279 L17.1591767,18.8729651 L16.9779079,18.7962209 C16.7173045,18.6870618 16.473063,18.538417 16.2528323,18.3549419 L16.1017749,18.2270349 L14.4824396,18.6555233 L14.041352,17.8497093 L15.2075151,16.5706395 L15.1773036,16.3787791 C15.1582321,16.2325318 15.1481405,16.0851296 15.1470921,15.9375 C15.1476958,15.789852 15.1577896,15.6424185 15.1773036,15.4962209 L15.2075151,15.2915698 L14.041352,14.0125 L14.4824396,13.2130814 L16.1017749,13.6415698 L16.2528323,13.5136628 C16.473063,13.3301876 16.7173045,13.1815429 16.9779079,13.0723837 L17.1591767,12.9956395 L17.6183912,11.2944767 L18.4945242,11.2944767 L18.9537387,12.9956395 L19.1289653,13.0723837 C19.3921038,13.1800521 19.6385386,13.3287921 19.8600831,13.5136628 L20.0111405,13.6415698 L21.6486027,13.2194767 L22.083648,14.0188953 L20.9235272,15.2979651 L20.9235272,15.5026163 C20.948113,15.6482577 20.9602467,15.7959482 20.959781,15.9438953 C20.9597734,16.0918212 20.9476433,16.2394675 20.9235272,16.3851744 L20.9235272,16.5898256 L22.0655211,17.8561047 Z" id="Shape"></path>
                </g>
            </g>
        </g>
    </g>
</svg>