<?xml version="1.0" encoding="UTF-8"?>
<svg width="80px" height="80px" viewBox="0 0 80 80" version="1.1" xmlns="http://www.w3.org/2000/svg" xmlns:xlink="http://www.w3.org/1999/xlink">
    <title>MC_80x80</title>
    <g id="Design" stroke="none" stroke-width="1" fill="none" fill-rule="evenodd">
        <g id="-Icon" transform="translate(-673.000000, -50.000000)">
            <g id="MC_80x80" transform="translate(673.000000, 50.000000)">
                <g id="MC"></g>
                <g id="ct-minimize-effort" transform="translate(3.000000, 5.000000)" fill="#003037" fill-rule="nonzero">
                    <path d="M9.59914782,6.13545817 C9.61014642,4.17393979 11.2092247,2.58961082 13.1779744,2.58964143 L61.7620452,2.58964143 C63.7275345,2.58964143 65.3208784,4.17715766 65.3208784,6.13545817 L65.3208784,29.1434263 L68,29.1434263 L68,6.13545817 C67.9890261,2.75147746 65.2384221,0.0109337873 61.842019,0 L13.1779744,0 C9.77828665,0.0108562968 7.02191612,2.74825773 7,6.13545817 L7,40 L9.59914782,40 L9.59914782,6.13545817 Z" id="Path"></path>
                    <rect id="Rectangle" x="35" y="7" width="5" height="3"></rect>
                    <path d="M0,47.2662338 C0,53.1943292 4.88912152,58 10.9201586,58 L35,58 L35,55.4675325 L10.9201586,55.4675325 C6.81213917,55.4598104 3.31801804,52.520687 2.67553794,48.5324675 L35,48.5324675 L35,46 L0,46 L0,47.2662338 Z" id="Path"></path>
                    <path d="M57.9797666,47 C55.2210107,47.0111692 52.9925985,49.2546752 53.0000185,52.0134588 C53.0074756,54.7722425 55.2479538,57.0036988 58.0067298,57 C60.7655057,56.9962828 63,54.7588118 63,52.0000181 C62.988852,49.2353131 60.7444788,47 57.9797666,47 L57.9797666,47 Z M57.9797666,54.3684478 C56.6744195,54.3572905 55.6242088,53.2920189 55.631592,51.9866381 C55.6390534,50.6812572 56.7013099,49.6279971 58.0066995,49.6316748 C59.312089,49.6353718 60.3683783,50.6946162 60.368426,52.0000181 C60.368426,52.6316878 60.1161434,53.2371954 59.6675913,53.6819486 C59.2190392,54.1267018 58.6114097,54.3738467 57.9797666,54.3684478 L57.9797666,54.3684478 Z" id="Shape"></path>
                    <path d="M69.6731118,52 C69.6929769,51.6312705 69.6929769,51.2617527 69.6731118,50.8930233 L74,46.4651163 L70.5903323,40.5348837 L64.6084592,42.0174419 C63.9816126,41.5907149 63.3137051,41.226537 62.6145015,40.9302326 L60.9196375,35 L54.0803625,35 L52.3655589,40.9302326 C51.6657733,41.2253515 50.9977495,41.5895927 50.3716012,42.0174419 L44.3897281,40.5348837 L41,46.4651163 L45.4066465,50.8930233 C45.4066465,51.2686047 45.4066465,51.6244186 45.4066465,52 C45.4066465,52.3755814 45.4066465,52.7313953 45.4066465,53.1069767 L41.0199396,57.5348837 L44.4096677,63.4651163 L50.3915408,61.9627907 C51.0172049,62.3969198 51.6851982,62.7677667 52.3854985,63.0697674 L54.1003021,69 L60.8996979,69 L62.5945619,63.0697674 C63.2919608,62.7619977 63.9594101,62.3914529 64.5885196,61.9627907 L70.5703927,63.4651163 L73.9800604,57.5348837 L69.6531722,53.1069767 C69.6796823,52.7385991 69.6863383,52.3690811 69.6731118,52 L69.6731118,52 Z M70.7099698,57.9302326 L69.334139,60.4011628 L63.9903323,59.0767442 L63.4719033,59.472093 C62.7479398,60.0432898 61.9413049,60.5031009 61.0791541,60.8360465 L60.5009063,61.0732558 L58.9854985,66.3313953 L56.0344411,66.3313953 L54.5190332,61.0732558 L53.9208459,60.8360465 C53.0608548,60.4986456 52.2548577,60.0391981 51.5280967,59.472093 L51.0296073,59.0767442 L45.6858006,60.4011628 L44.2302115,57.9104651 L48.0785498,53.9569767 L47.978852,53.3639535 C47.915916,52.9119166 47.8826135,52.4563096 47.8791541,52 C47.8811461,51.5436335 47.9144556,51.08793 47.978852,50.6360465 L48.0785498,50.0034884 L44.2302115,46.05 L45.6858006,43.5790698 L51.0296073,44.9034884 L51.5280967,44.5081395 C52.2548577,43.9410345 53.0608548,43.481587 53.9208459,43.144186 L54.5190332,42.9069767 L56.0344411,37.6488372 L58.9256798,37.6488372 L60.4410876,42.9069767 L61.0193353,43.144186 C61.8876926,43.4769791 62.7009275,43.9367211 63.4320242,44.5081395 L63.9305136,44.9034884 L69.334139,43.5988372 L70.7697885,46.0697674 L66.9413897,50.0232558 L66.9413897,50.655814 C67.022523,51.1059784 67.0625641,51.5624763 67.0610272,52.0197674 C67.0610021,52.4769926 67.020973,52.9333541 66.9413897,53.3837209 L66.9413897,54.0162791 L70.7099698,57.9302326 Z" id="Shape"></path>
                </g>
            </g>
        </g>
    </g>
</svg>