<svg viewBox="0 0 25 25" width="25px" height="25px" xmlns="http://www.w3.org/2000/svg">
  <g fill-rule="nonzero" fill="none">
    <path d="M5.6 12.5h-.8V6c0-.6.5-1.2 1.2-1.2h4.2v.8H6c-.2 0-.4.2-.4.4v6.5zM12.5 20.2H6c-.6 0-1.2-.5-1.2-1.2v-4.2h.8V19c0 .2.2.4.4.4h6.5v.8zM19 20.2h-4.2v-.8H19c.2 0 .4-.2.4-.4v-6.5h.8V19c0 .7-.5 1.2-1.2 1.2zM20.2 10.2h-.8V6c0-.2-.2-.4-.4-.4h-6.5v-.8H19c.6 0 1.2.5 1.2 1.2v4.2z" fill="gray"/>
    <path d="M12.5 5.6c-1.3 0-2.3-1-2.3-2.3 0-1.3 1-2.3 2.3-2.3 1.3 0 2.3 1 2.3 2.3 0 1.3-1 2.3-2.3 2.3zm0-3.9c-.8 0-1.5.7-1.5 1.5s.7 1.5 1.5 1.5S14 4 14 3.2s-.7-1.5-1.5-1.5zM21.7 14.8c-1.3 0-2.3-1-2.3-2.3 0-1.3 1-2.3 2.3-2.3 1.3 0 2.3 1 2.3 2.3 0 1.3-1 2.3-2.3 2.3zm0-3.8c-.8 0-1.5.7-1.5 1.5s.7 1.5 1.5 1.5 1.5-.7 1.5-1.5-.6-1.5-1.5-1.5zM12.5 24c-1.3 0-2.3-1-2.3-2.3 0-1.3 1-2.3 2.3-2.3 1.3 0 2.3 1 2.3 2.3 0 1.3-1 2.3-2.3 2.3zm0-3.8c-.8 0-1.5.7-1.5 1.5s.7 1.5 1.5 1.5 1.5-.7 1.5-1.5-.7-1.5-1.5-1.5zM3.3 14.8c-1.3 0-2.3-1-2.3-2.3 0-1.3 1-2.3 2.3-2.3 1.3 0 2.3 1 2.3 2.3 0 1.3-1 2.3-2.3 2.3zm0-3.8c-.8 0-1.5.7-1.5 1.5S2.4 14 3.3 14s1.5-.7 1.5-1.5S4.1 11 3.3 11z" fill="gray"/>
    <path fill="#044E7C" d="M9.5 14.7l-2.2-2.2 2.2-2.2.6.6-1.7 1.6 1.7 1.6zM15.5 14.7l-.6-.6 1.7-1.6-1.7-1.6.6-.6 2.2 2.2zM10.206 15.802l3.839-6.905.874.485-3.838 6.905z"/>
  </g>
</svg>