<?xml version="1.0" encoding="UTF-8"?>
<svg width="80px" height="80px" viewBox="0 0 80 80" version="1.1" xmlns="http://www.w3.org/2000/svg" xmlns:xlink="http://www.w3.org/1999/xlink">
    <title>OpenSource_80x80</title>
    <defs>
        <polygon id="path-1" points="0 0 19 0 19 35 0 35"></polygon>
        <polygon id="path-3" points="0 0 35 0 35 19 0 19"></polygon>
    </defs>
    <g id="Design" stroke="none" stroke-width="1" fill="none" fill-rule="evenodd">
        <g id="-Icon" transform="translate(-953.000000, -50.000000)">
            <g id="OpenSource_80x80" transform="translate(953.000000, 50.000000)">
                <g id="Custom_application_80x80"></g>
                <g id="Group-17" transform="translate(3.000000, 2.999988)">
                    <g id="Group-3" transform="translate(0.000000, 0.000012)">
                        <mask id="mask-2" fill="white">
                            <use xlink:href="#path-1"></use>
                        </mask>
                        <g id="Clip-2"></g>
                        <path d="M9.5,2.54383565 C13.395498,2.54383565 16.553654,5.758815 16.553654,9.72440299 C16.553654,13.689991 13.395498,16.9049703 9.5,16.9049703 C5.60450203,16.9049703 2.44634602,13.689991 2.44634602,9.72440299 L2.44634602,9.72440299 C2.44634602,5.758815 5.60450203,2.54383565 9.5,2.54383565 M8.27736664,19.2601964 L8.27736664,35 L10.7226334,35 L10.7226334,19.2601964 C15.9254085,18.5727768 19.5951896,13.7225429 18.9199198,8.42615641 C18.24465,3.12976995 13.4801418,-0.606039883 8.27736664,0.0813797631 C3.07459147,0.768799409 -0.595189571,5.61903329 0.0800802364,10.9154198 C0.634967683,15.267801 4.00191185,18.6953251 8.27736664,19.2601964" id="Fill-1" fill="#003037" mask="url(#mask-2)"></path>
                    </g>
                    <path d="M64.303969,2.44556077 C68.2740084,2.44556077 71.4925965,5.60406573 71.4925965,9.49999412 C71.4925965,13.3959225 68.2740084,16.5544275 64.303969,16.5544275 C60.3339296,16.5544275 57.1153414,13.3959225 57.1153414,9.49999412 C57.1153414,5.60406573 60.3339296,2.44556077 64.303969,2.44556077 M64.303969,19.0000119 C69.6503909,19.0074891 73.992322,14.7616608 74,9.51504357 C74.0076577,4.26842635 69.6810624,0.00754860988 64.3346405,1.19215183e-05 C59.4636264,-0.00750084791 55.3459806,3.53664646 54.7191322,8.27722567 L39,8.27722567 L39,10.7227626 L54.7574716,10.7227626 C55.3402297,15.4576982 59.4425398,19.0150138 64.303969,19.0000119" id="Fill-4" fill="#003037"></path>
                    <g id="Group-8" transform="translate(0.000000, 55.000012)">
                        <mask id="mask-4" fill="white">
                            <use xlink:href="#path-3"></use>
                        </mask>
                        <g id="Clip-7"></g>
                        <path d="M9.69602366,16.5544474 C5.72598313,16.5544474 2.50739402,13.3959376 2.50739402,9.50000319 C2.50739402,5.60406881 5.72598313,2.445559 9.69602366,2.445559 C13.6660642,2.445559 16.8846533,5.60406881 16.8846533,9.50000319 C16.8846533,13.3959376 13.6660642,16.5544474 9.69602366,16.5544474 M9.69602366,-1.687539e-13 C4.34960018,-0.00750639279 0.00766787162,4.23832842 -1.0176384e-05,9.48495371 C-0.00766787162,14.731579 4.31892869,18.9924633 9.66535217,19 C14.5363676,19.0075128 18.6540147,15.46336 19.2808632,10.7227735 L35,10.7227735 L35,8.37129212 L19.2425238,8.37129212 C18.7038558,3.59872548 14.5900427,-0.00938757791 9.69602366,-1.687539e-13" id="Fill-6" fill="#003037" mask="url(#mask-4)"></path>
                    </g>
                    <path d="M64.4059513,71.4560452 C60.5104533,71.4560452 57.3522973,68.2410789 57.3522973,64.2755069 C57.3522973,60.3099349 60.5104533,57.0949685 64.4059513,57.0949685 C68.3014492,57.0949685 71.4596053,60.3099349 71.4596053,64.2755069 C71.4596053,68.2410789 68.3014492,71.4560452 64.4059513,71.4560452 L64.4059513,71.4560452 Z M65.6285846,54.739752 L65.6285846,39.0000119 L63.2773666,39.0000119 L63.2773666,54.739752 C58.0745915,55.4271688 54.4048104,60.2773831 55.0800802,65.5737482 C55.75535,70.8701133 60.5198582,74.605908 65.7226334,73.9184912 C70.9254085,73.2310743 74.5951896,68.38086 73.9199198,63.0844949 C73.3650323,58.7321313 69.9980882,55.304621 65.7226334,54.739752 L65.6285846,54.739752 Z" id="Fill-9" fill="#003037"></path>
                    <polygon id="Fill-11" fill="#003037" points="32 51.3374833 39.608572 22.0000119 42 22.6625405 34.391428 52.0000119"></polygon>
                    <polygon id="Fill-13" fill="#003037" points="47.7661431 45.0000119 57 35.4901264 47.7661431 26.0000119 46 27.8189505 53.4677138 35.4901264 46 43.1810733"></polygon>
                    <polygon id="Fill-15" fill="#003037" points="28 43.1810733 20.5384615 35.4901264 28 27.8189505 26.25 26.0000119 17 35.4901264 26.25 45.0000119"></polygon>
                </g>
            </g>
        </g>
    </g>
</svg>