<?xml version="1.0" encoding="UTF-8"?>
<svg width="25px" height="25px" viewBox="0 0 25 25" version="1.1" xmlns="http://www.w3.org/2000/svg" xmlns:xlink="http://www.w3.org/1999/xlink">
    <title>opensource_25x25</title>
    <defs>
        <polygon id="path-1" points="0 0 6 0 6 11 0 11"></polygon>
        <polygon id="path-3" points="0 0 11 0 11 6 0 6"></polygon>
    </defs>
    <g id="Design" stroke="none" stroke-width="1" fill="none" fill-rule="evenodd">
        <g id="-Icon" transform="translate(-957.000000, -249.000000)">
            <g id="opensource_25x25" transform="translate(957.000000, 249.000000)">
                <g id="Custom_application_80x80"></g>
                <g id="Group-17" transform="translate(1.000000, 1.000000)">
                    <g id="Group-3">
                        <mask id="mask-2" fill="white">
                            <use xlink:href="#path-1"></use>
                        </mask>
                        <g id="Clip-2"></g>
                        <path d="M3,0.799491206 C4.23015725,0.799491206 5.22746968,1.80991329 5.22746968,3.05624094 C5.22746968,4.30256859 4.23015725,5.31299067 3,5.31299067 C1.76984275,5.31299067 0.772530323,4.30256859 0.772530323,3.05624094 L0.772530323,3.05624094 C0.772530323,1.80991329 1.76984275,0.799491206 3,0.799491206 M2.61390526,6.05320458 L2.61390526,11 L3.38609474,11 L3.38609474,6.05320458 C5.02907638,5.83715841 6.1879546,4.31279919 5.9747115,2.64822059 C5.76146841,0.983641984 4.25688689,-0.190469677 2.61390526,0.025576497 C0.970923622,0.241622671 -0.187954601,1.76598189 0.0252884957,3.43056049 C0.20051611,4.79845173 1.26376164,5.87567361 2.61390526,6.05320458" id="Fill-1" fill="#003037" mask="url(#mask-2)"></path>
                    </g>
                    <path d="M19.9526737,0.772279943 C21.2004,0.772279943 22.2119559,1.76969945 22.2119559,2.9999888 C22.2119559,4.23027814 21.2004,5.22769765 19.9526737,5.22769765 C18.7049474,5.22769765 17.6933914,4.23027814 17.6933914,2.9999888 C17.6933914,1.76969945 18.7049474,0.772279943 19.9526737,0.772279943 M19.9526737,5.99998507 C21.6329772,6.00234627 22.9975837,4.66156257 23,3.00474124 C23.0024035,1.34791991 21.6426168,0.00238376412 19.9623133,3.76467826e-06 C18.4314236,-0.00236868143 17.1373067,1.11683225 16.9402973,2.61385259 L12,2.61385259 L12,3.386125 L16.9523468,3.386125 C17.1354993,4.88136318 18.4247964,6.00472249 19.9526737,5.99998507" id="Fill-4" fill="#003037"></path>
                    <g id="Group-8" transform="translate(0.000000, 17.000000)">
                        <mask id="mask-4" fill="white">
                            <use xlink:href="#path-3"></use>
                        </mask>
                        <g id="Clip-7"></g>
                        <path d="M3.04732172,5.22772023 C1.7995947,5.22772023 0.78803812,4.23029608 0.78803812,3.00000101 C0.78803812,1.76970594 1.7995947,0.77228179 3.04732172,0.77228179 C4.29504875,0.77228179 5.30660532,1.76970594 5.30660532,3.00000101 C5.30660532,4.23029608 4.29504875,5.22772023 3.04732172,5.22772023 M3.04732172,-5.33841973e-14 C1.3670172,-0.00237043983 0.00240990251,1.3384195 -3.1982921e-06,2.99524854 C-0.00240990251,4.65207758 1.35737759,5.99761999 3.03768211,6 C4.56857268,6.00237246 5.86269033,4.88316632 6.05969986,3.38613901 L10.9999968,3.38613901 L10.9999968,2.64356593 L6.04765035,2.64356593 C5.87835469,1.13643962 4.585442,-0.00296449829 3.04732172,-5.33841973e-14" id="Fill-6" fill="#003037" mask="url(#mask-4)"></path>
                    </g>
                    <path d="M19.9703004,22.2004676 C18.7401432,22.2004676 17.7428307,21.1900496 17.7428307,19.943727 C17.7428307,18.6974044 18.7401432,17.6869864 19.9703004,17.6869864 C21.2004577,17.6869864 22.1977701,18.6974044 22.1977701,19.943727 C22.1977701,21.1900496 21.2004577,22.2004676 19.9703004,22.2004676 L19.9703004,22.2004676 Z M20.3563951,16.9467754 L20.3563951,12 L19.6139053,12 L19.6139053,16.9467754 C17.9709236,17.1628207 16.8120454,18.6871738 17.0252885,20.3517457 C17.2385316,22.0163176 18.7431131,23.1904245 20.3860947,22.9743792 C22.0290764,22.7583339 23.1879546,21.2339808 22.9747115,19.5694089 C22.7994839,18.2015232 21.7362384,17.1243057 20.3860947,16.9467754 L20.3563951,16.9467754 Z" id="Fill-9" fill="#003037"></path>
                    <polygon id="Fill-11" fill="#003037" points="10 15.8012414 12.2825716 7 13 7.19875858 10.7174284 16"></polygon>
                    <polygon id="Fill-13" fill="#003037" points="15.4816754 14 18 10.9968783 15.4816754 8 15 8.57440166 17.0366492 10.9968783 15 13.4255983"></polygon>
                    <polygon id="Fill-15" fill="#003037" points="8 13.4255983 5.96503497 10.9968783 8 8.57440166 7.52272727 8 5 10.9968783 7.52272727 14"></polygon>
                </g>
            </g>
        </g>
    </g>
</svg>