<?xml version="1.0" encoding="UTF-8"?>
<svg width="25px" height="25px" viewBox="0 0 25 25" version="1.1" xmlns="http://www.w3.org/2000/svg" xmlns:xlink="http://www.w3.org/1999/xlink">
    <title>ct-tutorials_25x25</title>
    <g id="Design" stroke="none" stroke-width="1" fill="none" fill-rule="evenodd">
        <g id="-Icon" transform="translate(-1191.000000, -249.000000)" fill="#003037" fill-rule="nonzero">
            <g id="ct-tutorials_25x25" transform="translate(1191.000000, 249.000000)">
                <path d="M21.5732782,6 L3.42672176,6 C2.08545608,6.00350208 1,7.0946613 1,8.43946188 L1,20.5668909 C1.00348193,21.9092112 2.08792526,22.9965089 3.42672176,23 L21.5732782,23 C22.9120747,22.9965089 23.9965181,21.9092112 24,20.5668909 L24,8.43946188 C24,7.0946613 22.9145439,6.00350208 21.5732782,6 Z M23.1763085,20.5668909 C23.1728355,21.453104 22.4571648,22.1706583 21.5732782,22.1741405 L3.42672176,22.1741405 C2.54283516,22.1706583 1.82716453,21.453104 1.82369146,20.5668909 L1.82369146,8.43946188 C1.82369146,7.55076892 2.54036865,6.82935828 3.42672176,6.82585949 L21.5732782,6.82585949 C22.4596314,6.82935828 23.1763085,7.55076892 23.1763085,8.43946188 L23.1763085,20.5668909 Z" id="Shape"></path>
                <path d="M10,19 L16,15 L10,11 L10,19 Z M10.8085106,12.5540541 L14.4559271,15 L10.8085106,17.4527027 L10.8085106,12.5540541 Z" id="Shape"></path>
                <rect id="Rectangle" x="5" y="2" width="15" height="1"></rect>
            </g>
        </g>
    </g>
</svg>