<?xml version="1.0" encoding="UTF-8"?>
<svg width="80px" height="80px" viewBox="0 0 80 80" version="1.1" xmlns="http://www.w3.org/2000/svg" xmlns:xlink="http://www.w3.org/1999/xlink">
    <title>ct-tutorials_80x80</title>
    <g id="Design" stroke="none" stroke-width="1" fill="none" fill-rule="evenodd">
        <g id="-Icon" transform="translate(-1188.000000, -50.000000)" fill="#003037" fill-rule="nonzero">
            <g id="ct-tutorials_80x80" transform="translate(1188.000000, 50.000000)">
                <path d="M69.0867769,19 L9.91322314,19 C5.53953068,19.0113303 2,22.5415513 2,26.8923767 L2,66.1281764 C2.01135413,70.4709775 5.54758236,73.9887053 9.91322314,74 L69.0867769,74 C73.4524176,73.9887053 76.9886459,70.4709775 77,66.1281764 L77,26.8923767 C77,22.5415513 73.4604693,19.0113303 69.0867769,19 Z M74.3140496,66.1281764 C74.3027244,68.9953363 71.9690158,71.3168357 69.0867769,71.3281016 L9.91322314,71.3281016 C7.03098423,71.3168357 4.69727565,68.9953363 4.68595041,66.1281764 L4.68595041,26.8923767 C4.68595041,24.0171936 7.02294124,21.683218 9.91322314,21.6718984 L69.0867769,21.6718984 C71.9770588,21.683218 74.3140496,24.0171936 74.3140496,26.8923767 L74.3140496,66.1281764 Z" id="Shape"></path>
                <path d="M32,59 L52,47 L32,35 L32,59 Z M34.6950355,39.6621622 L46.8530902,47 L34.6950355,54.3581081 L34.6950355,39.6621622 Z" id="Shape"></path>
                <rect id="Rectangle" x="15" y="6" width="48" height="3"></rect>
            </g>
        </g>
    </g>
</svg>