<svg viewBox="0 0 25 25" width="25px" height="25px" xmlns="http://www.w3.org/2000/svg">
  <g fill="none" fill-rule="evenodd">
    <path d="M4.2 23.9h-.1c-.1-.1-.2-.2-.2-.4v-4.3h-2c-.5 0-.9-.4-.9-.9V1.9c0-.5.4-.9.9-.9h20.8c.5 0 .9.4.9.9v16.4c0 .5-.4.9-.9.9H9.1l-4.6 4.6c-.1.1-.2.1-.3.1zm-2.4-22c-.1 0-.1 0 0 0l-.1 16.5s0 .1.1.1h2.4c.2 0 .4.2.4.4v3.8l4.1-4.1c.1-.1.2-.1.3-.1h13.7s.1 0 .1-.1V1.9s0-.1-.1-.1H1.8v.1z" fill="#044E7C" fill-rule="nonzero"/>
    <path d="M10.5 12.9c-.1 0-.3 0-.4-.1-.2-.1-.3-.3-.3-.6V8.1c0-.2.1-.5.3-.6.2-.1.5-.1.7 0l4.1 2.1c.2.1.4.4.4.6 0 .3-.1.5-.4.6l-4.1 2.1h-.3z" fill="#078CDF" fill-rule="nonzero"/>
    <path d="M10.5 12.9c-.1 0-.3 0-.4-.1-.2-.1-.3-.3-.3-.6V8.1c0-.2.1-.5.3-.6.2-.1.5-.1.7 0l4.1 2.1c.2.1.4.4.4.6 0 .3-.1.5-.4.6l-4.1 2.1h-.3z"/>
    <path d="M12.2 16.7c-3.6 0-6.6-3-6.6-6.6 0-3.6 3-6.6 6.6-6.6 3.6 0 6.6 3 6.6 6.6 0 3.6-3 6.6-6.6 6.6zm0-12.4c-3.2 0-5.8 2.6-5.8 5.8 0 3.2 2.6 5.8 5.8 5.8 3.2 0 5.8-2.6 5.8-5.8 0-3.2-2.6-5.8-5.8-5.8z" fill="#078CDF" fill-rule="nonzero"/>
  </g>
</svg>