<?xml version="1.0" encoding="UTF-8"?>
<svg width="1700px" height="200px" viewBox="0 0 1700 200" version="1.1" xmlns="http://www.w3.org/2000/svg" xmlns:xlink="http://www.w3.org/1999/xlink">
    <title>Grey</title>
    <defs>
        <linearGradient x1="0%" y1="50.6920415%" x2="100%" y2="49.4592344%" id="linearGradient-1">
            <stop stop-color="#D1D1D1" offset="0%"></stop>
            <stop stop-color="#EFEFEF" offset="100%"></stop>
        </linearGradient>
        <rect id="path-2" x="0" y="0" width="1700" height="200"></rect>
    </defs>
    <g id="Design" stroke="none" stroke-width="1" fill="none" fill-rule="evenodd">
        <g id="Color-Scheme----Banner-/-All" transform="translate(-840.000000, -76.000000)">
            <g id="Grey" transform="translate(840.000000, 76.000000)">
                <mask id="mask-3" fill="white">
                    <use xlink:href="#path-2"></use>
                </mask>
                <use id="bg-Open-Source" fill="url(#linearGradient-1)" xlink:href="#path-2"></use>
                <g id="Group" mask="url(#mask-3)">
                    <g transform="translate(607.000000, -32.000000)" id="Group-10">
                        <g transform="translate(324.000000, 152.000000)">
                            <polygon id="Fill-1" fill="#FFFFFF" points="100.527357 40.5851622 59.1623006 20.0297641 59 20.3632156 100.527357 41 100.608277 40.9595394 142 20.3339165 141.837699 20"></polygon>
                            <polygon id="Fill-2" fill="#FFFFFF" points="101.0995 95 101.9005 95 101.9005 41 101.0995 41"></polygon>
                            <path d="M41.4465682,38.0391638 L0,58.3150841 L0,112.684916 L0.102277186,112.735009 L41.5272892,133 L60.190353,123.871646 L60.190353,96.7725719 L83,85.6136206 L83,58.2859389 L82.8977228,58.2353903 L41.5272892,38 L41.4465682,38.0391638 Z M0.367372312,112.45813 L0.367372312,58.5418698 L41.5272892,38.4057552 L82.6330863,58.5127246 L82.6330863,85.3868348 L59.8229807,96.5453308 L59.8229807,123.644405 L41.5272892,132.594245 L0.367372312,112.45813 Z" id="Fill-5" fill="#FFFFFF"></path>
                            <polygon id="Fill-6" fill="#FFFFFF" points="41.5273566 78.5851622 0.162300649 58.0297641 0 58.3632156 41.5273566 79 41.6087368 78.9595394 83 58.3339165 82.8372396 58"></polygon>
                            <polygon id="Fill-7" fill="#FFFFFF" points="41.1 133 41.9 133 41.9 79 41.1 79"></polygon>
                            <path d="M100.527289,0 L100.44611,0.0391636147 L59,20.3149867 L59,47.5856135 L59.1027347,47.6352511 L81.8098535,58.7426898 L81.8098535,85.8434558 L81.9121296,85.8935488 L100.527289,95 L100.608009,94.960381 L142,74.713703 L142,20.2858417 L141.897265,20.2357487 L100.527289,0 Z M82.1767631,85.6166711 L82.1767631,58.5163605 L82.0744871,58.4658121 L59.3673683,47.3588288 L59.3673683,20.5417713 L100.527289,0.405753264 L141.632632,20.5126263 L141.632632,74.4869183 L100.527289,94.5937913 L82.1767631,85.6166711 Z" id="Fill-8" fill="#FFFFFF"></path>
                        </g>
                        <g transform="translate(264.000000, 0.000000)">
                            <polygon id="Fill-1" fill="#FFFFFF" points="100.527357 40.5851622 59.1623006 20.0297641 59 20.3632156 100.527357 41 100.608277 40.9595394 142 20.3339165 141.837699 20"></polygon>
                            <polygon id="Fill-2" fill="#FFFFFF" points="101.0995 95 101.9005 95 101.9005 41 101.0995 41"></polygon>
                            <polygon id="Fill-3" fill="#FFFFFF" points="100.527357 117.585162 59.1623006 97.0297641 59 97.3632156 100.527357 118 100.608277 117.959539 142 97.3339165 141.837699 97"></polygon>
                            <polygon id="Fill-4" fill="#FFFFFF" points="101.0995 171 101.9005 171 101.9005 117 101.0995 117"></polygon>
                            <path d="M41.4465682,38.0391638 L0,58.3150841 L0,112.684916 L0.102277186,112.735009 L41.5272892,133 L60.190353,123.871646 L60.190353,96.7725719 L83,85.6136206 L83,58.2859389 L82.8977228,58.2353903 L41.5272892,38 L41.4465682,38.0391638 Z M0.367372312,112.45813 L0.367372312,58.5418698 L41.5272892,38.4057552 L82.6330863,58.5127246 L82.6330863,85.3868348 L59.8229807,96.5453308 L59.8229807,123.644405 L41.5272892,132.594245 L0.367372312,112.45813 Z" id="Fill-5" fill="#FFFFFF"></path>
                            <polygon id="Fill-6" fill="#FFFFFF" points="41.5273566 78.5851622 0.162300649 58.0297641 0 58.3632156 41.5273566 79 41.6087368 78.9595394 83 58.3339165 82.8372396 58"></polygon>
                            <polygon id="Fill-7" fill="#FFFFFF" points="41.1 133 41.9 133 41.9 79 41.1 79"></polygon>
                            <path d="M100.527289,0 L100.44611,0.0391636147 L59,20.3149867 L59,47.5856135 L59.1027347,47.6352511 L81.8098535,58.7426898 L81.8098535,85.8434558 L81.9121296,85.8935488 L100.527289,95 L100.608009,94.960381 L142,74.713703 L142,20.2858417 L141.897265,20.2357487 L100.527289,0 Z M82.1767631,85.6166711 L82.1767631,58.5163605 L82.0744871,58.4658121 L59.3673683,47.3588288 L59.3673683,20.5417713 L100.527289,0.405753264 L141.632632,20.5126263 L141.632632,74.4869183 L100.527289,94.5937913 L82.1767631,85.6166711 Z" id="Fill-8" fill="#FFFFFF"></path>
                            <path d="M100.527289,95.0738837 L81.9933083,86 L59,97.2573582 L59,151.669214 L59.1027347,151.719346 L100.527289,172 L100.608009,171.96035 L142,151.697926 L142,97.2281905 L141.897265,97.1776028 L119.062645,86 L100.527289,95.0738837 Z M119.062645,86.4065246 L141.632632,97.4551515 L141.632632,151.470965 L100.527289,171.593475 L59.3673683,151.442253 L59.3673683,97.4843192 L81.9933083,86.4065246 L100.527289,95.4804083 L119.062645,86.4065246 Z" id="Fill-9" fill="#FFFFFF"></path>
                        </g>
                        <g transform="translate(0.000000, 132.000000)">
                            <polygon id="Fill-1" fill="#FFFFFF" points="203.055372 82.1703244 119.328512 41.0595283 119 41.7264312 203.055372 83 203.219163 82.9190787 287 41.667833 286.671488 41"></polygon>
                            <polygon id="Fill-2" fill="#FFFFFF" points="204.199 192 205.801 192 205.801 83 204.199 83"></polygon>
                            <path d="M83.8918489,77.0791521 L0,118.057854 L0,227.942146 L0.207018882,228.043387 L84.055236,269 L121.831076,250.551117 L121.831076,195.782461 L168,173.229633 L168,117.99895 L167.792981,117.896789 L84.055236,77 L83.8918489,77.0791521 Z M0.74359697,227.4838 L0.74359697,118.5162 L84.055236,77.8200526 L167.257331,118.457296 L167.257331,172.771287 L121.087479,195.323195 L121.087479,250.09185 L84.055236,268.179947 L0.74359697,227.4838 Z" id="Fill-5" fill="#FFFFFF"></path>
                            <path d="M203.055235,0 L202.890922,0.0791517267 L119,41.0576573 L119,96.1730294 L119.207945,96.2733496 L165.169342,118.722068 L165.169342,173.494142 L165.376359,173.595383 L203.055235,192 L203.218621,191.919928 L287,151.000326 L287,40.9987537 L286.792055,40.8975131 L203.055235,0 Z M165.912002,173.035799 L165.912002,118.264644 L165.704986,118.162483 L119.743589,95.7146856 L119.743589,41.516001 L203.055235,0.820048703 L286.256411,41.4570974 L286.256411,150.541982 L203.055235,191.179031 L165.912002,173.035799 Z" id="Fill-8" fill="#FFFFFF"></path>
                        </g>
                        <g transform="translate(595.000000, 12.000000)">
                            <polygon id="Fill-1" fill="#FFFFFF" points="0 52.8586425 106.720237 105.894762 106.928874 106 214 52.9339829 213.580355 52.0765364 106.928874 104.933274 0.419645033 52"></polygon>
                            <polygon id="Fill-2" fill="#FFFFFF" points="107.199 248 108.801 248 108.801 105 107.199 105"></polygon>
                            <path d="M156.266121,152.825954 L156,152.957912 L156,224.297202 L215.086092,253.42661 L215.086092,324.170307 L263.428717,348 L370.733879,295.097962 L371,294.967193 L371,153.033996 L263.639001,100.103426 L263.428717,100 L156.266121,152.825954 Z M216.037713,323.57709 L216.037713,252.834583 L156.951622,223.703986 L156.951622,153.548751 L263.428717,101.05923 L370.048378,153.624835 L370.048378,294.375165 L263.428717,346.939582 L216.037713,323.57709 Z" id="Fill-5" fill="#FFFFFF"></path>
                            <polygon id="Fill-6" fill="#FFFFFF" points="156 152.858642 262.719048 205.894762 262.928873 206 370 152.933983 369.581536 152.076536 262.928873 204.933274 156.41965 152"></polygon>
                            <polygon id="Fill-7" fill="#FFFFFF" points="262.2 348 263.8 348 263.8 205 262.2 205"></polygon>
                            <path d="M107.429312,0 L0.266119986,52.8259544 L0,52.9567235 L0,195.042088 L107.220218,247.896574 L107.429312,248 L155.649303,224.227369 L155.914235,224.0966 L155.914235,153.349338 L214.73388,124.353077 L215,124.223496 L215,53.0328073 L107.638406,0.102237647 L107.429312,0 Z M0.951616557,194.45006 L0.951616557,53.5487508 L107.429312,1.05922957 L214.048383,53.6248346 L214.048383,123.631469 L155.228738,152.626541 L154.962618,152.758499 L154.962618,223.504573 L107.429312,246.939582 L0.951616557,194.45006 Z" id="Fill-8" fill="#FFFFFF"></path>
                        </g>
                    </g>
                </g>
            </g>
        </g>
    </g>
</svg>