<svg width="1696" height="200" viewBox="0 0 1696 200" fill="none" xmlns="http://www.w3.org/2000/svg">
<g clip-path="url(#clip0_4209_12233)">
<g clip-path="url(#clip1_4209_12233)">
<path d="M1700 0H0V200H1700V0Z" fill="url(#paint0_linear_4209_12233)"/>
<mask id="mask0_4209_12233" style="mask-type:luminance" maskUnits="userSpaceOnUse" x="0" y="0" width="1700" height="200">
<path d="M1700 0H0V200H1700V0Z" fill="white"/>
</mask>
<g mask="url(#mask0_4209_12233)">
<path fill-rule="evenodd" clip-rule="evenodd" d="M1046.53 152.585L1005.16 132.03L1005 132.363L1046.53 153L1046.61 152.96L1088 132.334L1087.84 132L1046.53 152.585Z" fill="#4242B2"/>
<path fill-rule="evenodd" clip-rule="evenodd" d="M1047.1 207H1047.9V153H1047.1V207Z" fill="#4242B2"/>
<path fill-rule="evenodd" clip-rule="evenodd" d="M987.447 150.039L946 170.315V224.685L946.102 224.735L987.527 245L1006.19 235.872V208.773L1029 197.614V170.286L1028.9 170.235L987.527 150L987.447 150.039ZM946.367 224.458V170.542L987.527 150.406L1028.63 170.513V197.387L1005.82 208.545V235.644L987.527 244.594L946.367 224.458Z" fill="#4242B2"/>
<path fill-rule="evenodd" clip-rule="evenodd" d="M987.527 190.585L946.162 170.03L946 170.363L987.527 191L987.609 190.96L1029 170.334L1028.84 170L987.527 190.585Z" fill="#4242B2"/>
<path fill-rule="evenodd" clip-rule="evenodd" d="M987.1 245H987.9V191H987.1V245Z" fill="#4242B2"/>
<path fill-rule="evenodd" clip-rule="evenodd" d="M1046.53 112L1046.45 112.039L1005 132.315V159.586L1005.1 159.635L1027.81 170.743V197.843L1027.91 197.894L1046.53 207L1046.61 206.96L1088 186.714V132.286L1087.9 132.236L1046.53 112ZM1028.18 197.617V170.516L1028.07 170.466L1005.37 159.359V132.542L1046.53 112.406L1087.63 132.513V186.487L1046.53 206.594L1028.18 197.617Z" fill="#4242B2"/>
<path fill-rule="evenodd" clip-rule="evenodd" d="M1046.53 207.074L1027.99 198L1005 209.257V263.669L1005.1 263.719L1046.53 284L1046.61 283.96L1088 263.698V209.228L1087.9 209.178L1065.06 198L1046.53 207.074ZM1065.06 198.407L1087.63 209.455V263.471L1046.53 283.593L1005.37 263.442V209.484L1027.99 198.407L1046.53 207.48L1065.06 198.407Z" fill="#4242B2"/>
<path fill-rule="evenodd" clip-rule="evenodd" d="M986.527 0.585163L945.162 -19.9702L945 -19.6368L986.527 1L986.608 0.959538L1028 -19.6661L1027.84 -20L986.527 0.585163Z" fill="#4242B2"/>
<path fill-rule="evenodd" clip-rule="evenodd" d="M987.1 55H987.901V1H987.1V55Z" fill="#4242B2"/>
<path fill-rule="evenodd" clip-rule="evenodd" d="M986.527 77.5852L945.162 57.0298L945 57.3632L986.527 78L986.608 77.9595L1028 57.3339L1027.84 57L986.527 77.5852Z" fill="#4242B2"/>
<path fill-rule="evenodd" clip-rule="evenodd" d="M987.1 131H987.901V77H987.1V131Z" fill="#4242B2"/>
<path fill-rule="evenodd" clip-rule="evenodd" d="M927.447 -1.96083L886 18.3151V72.6849L886.102 72.735L927.527 93L946.19 83.8716V56.7726L969 45.6136V18.2859L968.898 18.2354L927.527 -2L927.447 -1.96083ZM886.367 72.4581V18.5419L927.527 -1.59425L968.633 18.5127V45.3868L945.823 56.5453V83.6444L927.527 92.5942L886.367 72.4581Z" fill="#4242B2"/>
<path fill-rule="evenodd" clip-rule="evenodd" d="M927.527 38.5852L886.162 18.0298L886 18.3632L927.527 39L927.609 38.9595L969 18.3339L968.837 18L927.527 38.5852Z" fill="#4242B2"/>
<path fill-rule="evenodd" clip-rule="evenodd" d="M927.1 93H927.9V39H927.1V93Z" fill="#4242B2"/>
<path fill-rule="evenodd" clip-rule="evenodd" d="M986.527 -40L986.446 -39.9608L945 -19.685V7.58561L945.103 7.63525L967.81 18.7427V45.8435L967.912 45.8935L986.527 55L986.608 54.9604L1028 34.7137V-19.7142L1027.9 -19.7643L986.527 -40ZM968.177 45.6167V18.5164L968.074 18.4658L945.367 7.35883V-19.4582L986.527 -39.5942L1027.63 -19.4874V34.4869L986.527 54.5938L968.177 45.6167Z" fill="#4242B2"/>
<path fill-rule="evenodd" clip-rule="evenodd" d="M986.527 55.0739L967.993 46L945 57.2574V111.669L945.103 111.719L986.527 132L986.608 131.96L1028 111.698V57.2282L1027.9 57.1776L1005.06 46L986.527 55.0739ZM1005.06 46.4065L1027.63 57.4552V111.471L986.527 131.593L945.367 111.442V57.4843L967.993 46.4065L986.527 55.4804L1005.06 46.4065Z" fill="#4242B2"/>
<path fill-rule="evenodd" clip-rule="evenodd" d="M825.055 174.17L741.329 133.06L741 133.726L825.055 175L825.219 174.919L909 133.668L908.671 133L825.055 174.17Z" fill="#4242B2"/>
<path fill-rule="evenodd" clip-rule="evenodd" d="M826.199 284H827.801V175H826.199V284Z" fill="#4242B2"/>
<path fill-rule="evenodd" clip-rule="evenodd" d="M705.892 169.079L622 210.058V319.942L622.207 320.043L706.055 361L743.831 342.551V287.782L790 265.23V209.999L789.793 209.897L706.055 169L705.892 169.079ZM622.744 319.484V210.516L706.055 169.82L789.257 210.457V264.771L743.087 287.323V342.092L706.055 360.18L622.744 319.484Z" fill="#4242B2"/>
<path fill-rule="evenodd" clip-rule="evenodd" d="M825.055 92L824.891 92.0792L741 133.058V188.173L741.208 188.273L787.169 210.722V265.494L787.376 265.595L825.055 284L825.219 283.92L909 243V132.999L908.792 132.898L825.055 92ZM787.912 265.036V210.265L787.705 210.162L741.744 187.715V133.516L825.055 92.82L908.256 133.457V242.542L825.055 283.179L787.912 265.036Z" fill="#4242B2"/>
<path fill-rule="evenodd" clip-rule="evenodd" d="M1217 24.8586L1323.72 77.8948L1323.93 78L1431 24.934L1430.58 24.0765L1323.93 76.9333L1217.42 24L1217 24.8586Z" fill="#4242B2"/>
<path fill-rule="evenodd" clip-rule="evenodd" d="M1324.2 220H1325.8V77H1324.2V220Z" fill="#4242B2"/>
<path fill-rule="evenodd" clip-rule="evenodd" d="M1373.27 124.826L1373 124.958V196.297L1432.09 225.427V296.17L1480.43 320L1587.73 267.098L1588 266.967V125.034L1480.64 72.1034L1480.43 72L1373.27 124.826ZM1433.04 295.577V224.835L1373.95 195.704V125.549L1480.43 73.0592L1587.05 125.625V266.375L1480.43 318.94L1433.04 295.577Z" fill="#4242B2"/>
<path fill-rule="evenodd" clip-rule="evenodd" d="M1373 124.859L1479.72 177.895L1479.93 178L1587 124.934L1586.58 124.077L1479.93 176.933L1373.42 124L1373 124.859Z" fill="#4242B2"/>
<path fill-rule="evenodd" clip-rule="evenodd" d="M1479.2 320H1480.8V177H1479.2V320Z" fill="#4242B2"/>
<path fill-rule="evenodd" clip-rule="evenodd" d="M1324.43 -28L1217.27 24.826L1217 24.9567V167.042L1324.22 219.897L1324.43 220L1372.65 196.227L1372.91 196.097V125.349L1431.73 96.3531L1432 96.2235V25.0328L1324.64 -27.8978L1324.43 -28ZM1217.95 166.45V25.5488L1324.43 -26.9408L1431.05 25.6248V95.6315L1372.23 124.627L1371.96 124.758V195.505L1324.43 218.94L1217.95 166.45Z" fill="#4242B2"/>
<path fill-rule="evenodd" clip-rule="evenodd" d="M1324.43 218.634L1276.41 195L1217.27 224.114L1217 224.246V366.12L1324.22 418.897L1324.43 419L1431.73 366.176L1432 366.045V224.321L1372.44 195L1324.43 218.634ZM1372.44 196.059L1431.05 224.913V365.454L1324.43 417.941L1217.95 365.529V224.837L1276.41 196.059L1324.43 219.693L1372.44 196.059Z" fill="#4242B2"/>
</g>
</g>
</g>
<defs>
<linearGradient id="paint0_linear_4209_12233" x1="850" y1="0" x2="850" y2="200" gradientUnits="userSpaceOnUse">
<stop stop-color="#C2C2FF"/>
<stop offset="1" stop-color="#C2C2FF" stop-opacity="0"/>
</linearGradient>
<clipPath id="clip0_4209_12233">
<rect width="1696" height="200" fill="white"/>
</clipPath>
<clipPath id="clip1_4209_12233">
<rect width="1700" height="200" fill="white"/>
</clipPath>
</defs>
</svg>
