<?xml version="1.0" encoding="UTF-8"?>
<svg width="12px" height="12px" viewBox="0 0 12 12" version="1.1" xmlns="http://www.w3.org/2000/svg" xmlns:xlink="http://www.w3.org/1999/xlink">
    <!-- Generator: Sketch 64 (93537) - https://sketch.com -->
    <title>Component / icon / 16px / release</title>
    <desc>Created with Sketch.</desc>
    <g id="Release-notes-//-Final" stroke="none" stroke-width="1" fill="none" fill-rule="evenodd">
        <g id="Release-Notes-//-Third-Iteration-/-All" transform="translate(-995.000000, -126.000000)" fill="#999999" fill-rule="nonzero">
            <g id="Component-/-icon-/-16px-/-release" transform="translate(993.000000, 124.000000)">
                <path d="M11.1435638,4.17068122 L12.2117455,3.10426028 C12.4057256,2.9516119 12.6828814,2.96828626 12.8572583,3.14309588 C13.0316352,3.31790551 13.0482683,3.59574894 12.8959978,3.79021046 L12.8959978,3.79021046 L11.8322164,4.8566314 C11.6420503,5.04757399 11.3334837,5.04782086 11.1430137,4.85718281 C10.9525438,4.66654476 10.9522975,4.35721255 11.1424637,4.16626997 L11.1435638,4.17068122 Z M9.66990842,2.04351856 C9.51930104,1.99328458 9.34405434,1.98622106 9.18532683,2.02398695 C9.02659931,2.06175284 8.89837717,2.14102043 8.8307747,2.24317288 L8.05038034,3.43370419 C7.92294749,3.62908162 8.04488942,3.85635428 8.33009158,3.9550238 C8.56710676,4.03551956 8.8555834,4.00604402 9.0447538,3.88200208 L9.0447538,3.88200208 C9.10054578,3.845448 9.14517806,3.80214227 9.17621808,3.75444516 L9.94961966,2.56483817 C10.0770525,2.36946074 9.95511058,2.14218808 9.66990842,2.04351856 Z M13.4350344,6.04514901 L12.2301724,6.82495378 C12.0332077,6.97038366 11.9467835,7.32317346 12.0338255,7.62645593 C12.1208675,7.92973841 12.3506917,8.07660099 12.5559625,7.96011263 L13.7608245,7.17325718 C13.8086905,7.14213308 13.8522096,7.09763465 13.889081,7.04211461 C14.0208571,6.83002858 14.0370095,6.50845547 13.927918,6.26891967 C13.8188266,6.02938387 13.6138354,5.93631726 13.4350344,6.04514901 L13.4350344,6.04514901 Z M12.8322378,9.51328128 C12.976924,9.65791145 13.0334304,9.86871451 12.9804716,10.066283 C12.9275128,10.2638515 12.7731345,10.41817 12.5754894,10.4711083 C12.3778444,10.5240466 12.1669597,10.4675621 12.0222735,10.322932 L11.6863436,9.98713214 L6.25298822,12.399916 L4.70771061,13.0864401 C4.88022809,13.3125947 4.85896614,13.6314004 4.65794321,13.8326619 C4.43408672,14.0557794 4.07183536,14.0557794 3.84797886,13.8326619 L2.15961999,12.1462006 C1.95451031,11.9331762 1.94605787,11.5988563 2.14014099,11.3757471 C2.33422411,11.1526379 2.66660723,11.1145819 2.90613091,11.2880455 L6.00912799,4.31211517 L5.67319807,3.97631535 C5.50979634,3.81270682 5.46096133,3.56687124 5.54943023,3.35326759 C5.63789912,3.13966394 5.84628224,3.0002787 6.07755816,3 C6.22939005,2.99963447 6.37503672,3.06011043 6.48191824,3.16790838 L12.8322378,9.51328128 Z" id="Shape"></path>
            </g>
        </g>
    </g>
</svg>