<?xml version="1.0" encoding="UTF-8"?>
<svg width="1700px" height="200px" viewBox="0 0 1700 200" version="1.1" xmlns="http://www.w3.org/2000/svg" xmlns:xlink="http://www.w3.org/1999/xlink">
    <title>Bitmap</title>
    <defs>
        <rect id="path-1" x="0" y="0" width="1066" height="171"></rect>
    </defs>
    <g id="SLA" stroke="none" stroke-width="1" fill="none" fill-rule="evenodd">
        <g id="Bitmap">
            <mask id="mask-2" fill="white">
                <use xlink:href="#path-1"></use>
            </mask>
            <use id="Mask" fill="#FFFFFF" xlink:href="#path-1"></use>
            <g id="ct_MACH-Microservices_TextMedia2" mask="url(#mask-2)" fill-rule="nonzero">
                <g transform="translate(-44.000000, -366.000000)">
                    <polygon id="Path" fill="#003037" points="854 503 850 503 850 498.125652 850.277956 498.125652 850.277956 502.691797 853.722044 502.691797 853.722044 495.308203 850.139406 495.308203 850.139406 495 854 495"></polygon>
                    <path d="M852.710992,498 L848,498 L849.289008,495 L854,495 L852.710992,498 Z M848.471099,497.715909 L852.485466,497.715909 L853.529903,495.284091 L849.515536,495.284091 L848.471099,497.715909 Z" id="Shape" fill="#003037"></path>
                    <polygon id="Path" fill="#003037" points="858 503 854 503 854 495 857.861745 495 857.861745 495.308203 854.277363 495.308203 854.277363 502.691797 857.722637 502.691797 857.722637 498.125652 858 498.125652"></polygon>
                    <path d="M860,498 L855.287073,498 L854,495 L858.712927,495 L860,498 Z M855.513261,497.715909 L859.536614,497.715909 L858.492744,495.284091 L854.469391,495.284091 L855.513261,497.715909 Z" id="Shape" fill="#003037"></path>
                    <polygon id="Path" fill="#EFEFEF" opacity="0.312103271" points="939.637813 609 587 436.893728 739.811565 312.573171 770.806521 163 1091 347.082539 1090.92372 520.963839"></polygon>
                    <polygon id="Path-Copy-3" fill="#EFEFEF" opacity="0.596277146" points="352.637813 446 0 273.893728 152.811565 149.573171 183.806521 0 504 184.082539 503.923716 357.963839"></polygon>
                    <path d="M950.625901,525 L950.60195,524.985671 L842.166703,462.435816 L842.166703,462.408114 L842,403.574129 L893.376015,374 L893.399008,374.013373 L1002,436.30627 L1002,436.333017 L1001.97413,495.188017 L1001.95018,495.20139 L950.625901,525 Z M842.262509,462.384233 L950.625901,524.893013 L1001.88216,495.13739 L1001.90803,436.36454 L893.376015,374.109852 L842.095806,403.626667 L842.262509,462.384233 Z" id="Shape" fill="#EFEFEF"></path>
                    <path d="M888.554124,416 L849,416 C850.130796,411.980572 853.092344,408.806604 856.909153,407.523559 C860.725961,406.240513 864.903108,407.01476 868.064699,409.591274 C869.557914,405.068285 873.622585,402.02437 878.201459,402.000146 C882.780334,401.975922 886.874294,404.976674 888.411263,409.483632 C888.411263,409.483632 889.634817,413.328259 888.554124,416 Z" id="Path" fill="#6BBFFF"></path>
                    <path d="M798.554124,436 L759,436 C760.130796,431.980572 763.092344,428.806604 766.909153,427.523559 C770.725961,426.240513 774.903108,427.01476 778.064699,429.591274 C779.557914,425.068285 783.622585,422.02437 788.201459,422.000146 C792.780334,421.975922 796.874294,424.976674 798.411263,429.483632 C798.411263,429.483632 799.634817,433.328259 798.554124,436 Z" id="Path-Copy" fill="#6BBFFF"></path>
                    <path d="M712.687887,418 L685,418 C685.791557,415.416082 687.864641,413.375674 690.536407,412.550859 C693.208173,411.726044 696.132175,412.223774 698.345289,413.880105 C699.39054,410.972469 702.235809,409.015666 705.441022,409.000094 C708.646234,408.984521 711.512006,410.913576 712.587884,413.810906 C712.587884,413.810906 713.444372,416.282452 712.687887,418 Z" id="Path-Copy-2" fill="#6BBFFF"></path>
                    <path d="M1059.41745,463.816914 L1071,452.199995 L1059.37781,440.544288 L990.818752,440.72736 C979.071586,440.72736 969.548626,431.176143 969.548626,419.394119 L969.548626,418.618365 C969.555298,413.996313 968.842547,409.401545 967.436116,405 L957.997014,419.584179 L945,411.12264 C945.892675,413.520154 946.348209,416.059134 946.344852,418.618365 L946.344852,419.394119 C946.338435,431.226303 951.022004,442.575719 959.36387,450.942338 C967.705735,459.308956 979.021575,464.006423 990.818752,464 L1059.41745,463.816914 Z" id="Path" fill="#00C1AD"></path>
                    <path d="M869,511 L869,438.888463 C869,436.740924 870.721523,435 872.845129,435 L984.154871,435 C986.278477,435 988,436.740924 988,438.888463 L988,511" id="Path" fill="#3FA0EA"></path>
                    <path d="M989,511 L988.589428,511 L988.589428,439.083478 C988.589429,437.055166 986.952115,435.410294 984.930992,435.408154 L873.069008,435.408154 C871.049392,435.410291 869.412702,437.052802 869.410572,439.0796 L869.410572,510.996122 L869,510.996122 L869,439.083478 C869.002662,436.829343 870.82286,435.002671 873.069008,435 L984.930992,435 C987.17714,435.002671 988.997338,436.829343 989,439.083478 L989,511 Z" id="Path" fill="#3FA0EA"></path>
                    <path d="M981.113997,440 L876.886003,440 C875.292108,440 874,441.292805 874,442.88756 L874,506 L984,506 L984,442.88756 C984,441.292805 982.707892,440 981.113997,440 Z" id="Path" fill="#6BBFFF"></path>
                    <path d="M995,513.177653 C995,514.191316 994.586118,515.163547 993.848721,515.880403 C993.111324,516.597259 992.111092,517 991.068127,517 L868.934759,517 C867.891295,517.000743 866.89032,516.598332 866.152299,515.881395 C865.414278,515.164459 865,514.191802 865,513.177653 L865,511 L995,511 L995,513.177653 Z" id="Path" fill="#0087EB"></path>
                    <path d="M910,511 L948,511 L948,511 C948,511.795649 947.727661,512.558711 947.242896,513.12132 C946.75813,513.683929 946.100647,514 945.415085,514 L912.585885,514 C911.900323,514 911.242839,513.683929 910.758074,513.12132 C910.273308,512.558711 910.00097,511.795649 910.00097,511 L910.00097,511 L910,511 Z" id="Path" fill="#6BBFFF"></path>
                    <polygon id="Path" fill="#FFC100" points="990 514.319366 971 502 973.536281 524.030574 978.741505 518.149861 983.250013 526 987.120765 523.924119 982.622084 516.09204"></polygon>
                    <path d="M975.762965,469 L958.237035,469 C957.553839,469 957,468.328427 957,467.5 C957,466.671573 957.553839,466 958.237035,466 L975.762965,466 C976.446161,466 977,466.671573 977,467.5 C977,468.328427 976.446161,469 975.762965,469 L975.762965,469 Z" id="Path" fill="#3FA0EA"></path>
                    <path d="M975.762965,476 L958.237035,476 C957.553839,476 957,475.328427 957,474.5 C957,473.671573 957.553839,473 958.237035,473 L975.762965,473 C976.446161,473 977,473.671573 977,474.5 C977,475.328427 976.446161,476 975.762965,476 L975.762965,476 Z" id="Path" fill="#3FA0EA"></path>
                    <path d="M975.762965,483 L958.237035,483 C957.553839,483 957,482.328427 957,481.5 C957,480.671573 957.553839,480 958.237035,480 L975.762965,480 C976.446161,480 977,480.671573 977,481.5 C977,482.328427 976.446161,483 975.762965,483 L975.762965,483 Z" id="Path" fill="#3FA0EA"></path>
                    <path d="M952.762965,469 L935.237035,469 C934.553839,469 934,468.328427 934,467.5 C934,466.671573 934.553839,466 935.237035,466 L952.762965,466 C953.446161,466 954,466.671573 954,467.5 C954,468.328427 953.446161,469 952.762965,469 L952.762965,469 Z" id="Path" fill="#3FA0EA"></path>
                    <path d="M952.762965,476 L935.237035,476 C934.553839,476 934,475.328427 934,474.5 C934,473.671573 934.553839,473 935.237035,473 L952.762965,473 C953.446161,473 954,473.671573 954,474.5 C954,475.328427 953.446161,476 952.762965,476 L952.762965,476 Z" id="Path" fill="#3FA0EA"></path>
                    <path d="M952.762965,483 L935.237035,483 C934.553839,483 934,482.328427 934,481.5 C934,480.671573 934.553839,480 935.237035,480 L952.762965,480 C953.446161,480 954,480.671573 954,481.5 C954,482.328427 953.446161,483 952.762965,483 L952.762965,483 Z" id="Path" fill="#3FA0EA"></path>
                    <path d="M952.762965,489 L935.237035,489 C934.553839,489 934,488.328427 934,487.5 C934,486.671573 934.553839,486 935.237035,486 L952.762965,486 C953.446161,486 954,486.671573 954,487.5 C954,488.328427 953.446161,489 952.762965,489 L952.762965,489 Z" id="Path" fill="#3FA0EA"></path>
                    <path d="M952.762965,496 L935.237035,496 C934.553839,496 934,495.328427 934,494.5 C934,493.671573 934.553839,493 935.237035,493 L952.762965,493 C953.446161,493 954,493.671573 954,494.5 C954,495.328427 953.446161,496 952.762965,496 L952.762965,496 Z" id="Path" fill="#3FA0EA"></path>
                    <path d="M906.021618,463.017842 C911.398672,463.018166 916.16502,466.239771 917.83118,471 L926,468.529593 C923.128679,460.302225 915.289048,455 906,455 L906,463.019672 L906.021618,463.017842 Z" id="Path" fill="#FFE137"></path>
                    <path d="M925.906594,470 L917.597718,472.595611 C919.292281,477.608257 917.435647,483.100176 913,486.195653 L918.140449,493 C925.782656,487.658809 928.827144,478.645308 925.906594,470 Z" id="Path" fill="#FFD00A"></path>
                    <path d="M907.174963,486.607054 C900.643882,486.554022 895.375273,481.156554 895.369587,474.512943 C895.363902,467.869333 900.623265,462.462543 907.154245,462.397945 L907.154245,454 C902.701846,454 898.910527,455.252939 895.308491,457.914954 C886.303871,464.569513 884.308391,477.389143 890.850441,486.548622 C897.392492,495.7081 909.995381,497.737899 919,491.08334 L914.156792,484.308084 C912.127342,485.806675 909.682776,486.611619 907.174963,486.607054 L907.174963,486.607054 Z" id="Path" fill="#FFC100"></path>
                    <path d="M951.537691,402 L999,402 C997.643546,397.693359 994.090042,394.292471 989.510127,392.917699 C984.930213,391.542927 979.91786,392.372567 976.124302,395.133307 C974.33224,390.28729 969.454748,387.026077 963.960309,387.000156 C958.46587,386.974234 953.553279,390.189261 951.708782,395.018122 C951.708782,395.018122 950.235063,399.137593 951.537691,402 Z" id="Path" fill="#6BBFFF"></path>
                    <path d="M945.405937,409.598266 L958.717496,418.319433 L968,403.887377 C967.697989,403.020826 967.368406,402.161394 967.011251,401.30908 C958.827877,381.721429 938.097625,370.671647 917.455057,374.894294 C896.812489,379.116942 881.981006,397.44124 882,418.698994 L882,433 L893.541833,421.351068 L905.083647,433 L905.083647,418.698994 C905.096002,408.702416 911.972826,400.050117 921.638947,397.869407 C931.305068,395.688698 941.17752,400.562303 945.405937,409.602149 L945.405937,409.598266 Z" id="Path" fill="#32D4BC"></path>
                    <path d="M892.444991,423 L880.890958,434.49537 L880.890958,437.934402 C880.890958,449.573717 871.407277,459.009247 859.708564,459.009247 L495,459.009253 L506.554033,470.504623 L495,482 L859.709527,482 C871.458045,482.006345 882.72721,477.365776 891.034668,469.100497 C899.342126,460.835218 904.006377,449.623269 904,437.934402 L904,434.499202 L892.444991,423 Z" id="Path" fill="#72E6D1"></path>
                    <rect id="Rectangle" fill="#003037" x="866" y="383.95" width="57" height="1"></rect>
                    <path d="M992.000011,412.816313 C992.000011,412.714866 992.223864,412.632626 992.5,412.632626 L992.5,412.632626 C992.776136,412.632626 992.999989,412.714866 992.999989,412.816313 L992.999989,412.816313 C992.999989,412.917761 992.776136,413 992.5,413 L992.5,413 C992.367395,413 992.240221,412.980647 992.146455,412.946199 C992.052688,412.911751 992.000011,412.86503 992.000011,412.816313 Z M992.000011,410.907719 C992.000011,410.806272 992.223864,410.724032 992.5,410.724032 L992.5,410.724032 C992.776136,410.724032 992.999989,410.806272 992.999989,410.907719 L992.999989,410.907719 C992.999989,411.009167 992.776136,411.091406 992.5,411.091406 L992.5,411.091406 C992.223864,411.091406 992.000011,411.009167 992.000011,410.907719 Z M992.000011,409 C992.000011,408.951283 992.052688,408.904562 992.146455,408.870114 C992.240221,408.835666 992.367395,408.816313 992.5,408.816313 L992.5,408.816313 C992.776136,408.816313 992.999989,408.898553 992.999989,409 L992.999989,409 C992.999989,409.101447 992.776136,409.183687 992.5,409.183687 L992.5,409.183687 C992.226629,409.183697 992.003917,409.103045 992.000011,409.002624 L992.000011,409 Z M992.000006,407.091406 C992.000006,407.042769 992.052763,406.996137 992.146598,406.961828 C992.240433,406.927519 992.367614,406.908361 992.500006,406.908592 L992.500006,406.908592 C992.632386,406.908361 992.759567,406.927519 992.853402,406.961828 C992.947237,406.996137 992.999994,407.042769 992.999994,407.091406 L992.999994,407.091406 C993.000622,407.140274 992.948225,407.187221 992.85439,407.221858 C992.760555,407.256495 992.633019,407.275968 992.500006,407.275968 L992.500006,407.275968 C992.366981,407.275968 992.239445,407.256495 992.14561,407.221858 C992.051775,407.187221 991.999378,407.140274 992.000006,407.091406 Z M992.000011,405.183687 C992.000011,405.082239 992.223864,405 992.5,405 L992.5,405 C992.776136,405 992.999989,405.082239 992.999989,405.183687 L992.999989,405.183687 C992.999989,405.285134 992.776136,405.367374 992.5,405.367374 L992.5,405.367374 C992.223864,405.367374 992.000011,405.285134 992.000011,405.183687 Z" id="Shape" fill="#003037"></path>
                    <path d="M869.558426,449.79818 C869.558426,449.686718 869.657276,449.59636 869.779213,449.59636 L869.779213,449.59636 C869.90115,449.59636 870,449.686718 870,449.79818 L870,449.79818 C870,449.909642 869.90115,450 869.779213,450 L869.779213,450 C869.657276,450 869.558426,449.909642 869.558426,449.79818 L869.558426,449.79818 Z M867.264344,449.79818 C867.264344,449.686718 867.363193,449.59636 867.485131,449.59636 L867.485131,449.59636 C867.543687,449.59636 867.599845,449.617623 867.641251,449.655472 C867.682656,449.69332 867.705918,449.744654 867.705918,449.79818 L867.705918,449.79818 C867.705918,449.851706 867.682656,449.90304 867.641251,449.940888 C867.599845,449.978737 867.543687,450 867.485131,450 L867.485131,450 C867.363193,450 867.264344,449.909642 867.264344,449.79818 Z M864.971313,449.79818 C864.971313,449.686718 865.070162,449.59636 865.1921,449.59636 L865.1921,449.59636 C865.314037,449.59636 865.412887,449.686718 865.412887,449.79818 L865.412887,449.79818 C865.412887,449.909642 865.314037,450 865.1921,450 L865.1921,450 C865.070162,450 864.971313,449.909642 864.971313,449.79818 L864.971313,449.79818 Z M862.678282,449.79818 C862.678282,449.686718 862.777131,449.59636 862.899069,449.59636 L862.899069,449.59636 C863.021006,449.59636 863.119856,449.686718 863.119856,449.79818 L863.119856,449.79818 C863.119856,449.851706 863.096594,449.90304 863.055189,449.940888 C863.013783,449.978737 862.957625,450 862.899069,450 L862.899069,450 C862.777131,450 862.678282,449.909642 862.678282,449.79818 Z M860.575548,449.931766 C860.517728,449.923286 860.466002,449.894059 860.431853,449.850574 C860.397704,449.807089 860.383956,449.752942 860.393662,449.700153 L860.393662,449.700153 C860.40319,449.647223 860.435379,449.599938 860.483119,449.568742 C860.530858,449.537546 860.59022,449.525006 860.648093,449.533892 L860.648093,449.533892 C860.768267,449.552499 860.849213,449.656604 860.828928,449.766465 L860.828928,449.766465 C860.810976,449.863548 860.719007,449.934619 860.611295,449.934649 L860.611295,449.934649 C860.598609,449.934733 860.585941,449.933768 860.573445,449.931766 L860.575548,449.931766 Z M858.378192,449.11968 L858.378192,449.11968 C858.329728,449.089512 858.296464,449.04289 858.285802,448.990187 C858.275139,448.937483 858.287962,448.883071 858.321418,448.839055 L858.321418,448.839055 C858.354421,448.794754 858.405425,448.764348 858.463081,448.754602 C858.520738,448.744855 858.580264,448.756576 858.628417,448.787158 L858.628417,448.787158 C858.728335,448.850637 858.753665,448.97584 858.685191,449.067784 L858.685191,449.067784 C858.643547,449.122549 858.575216,449.155215 858.502253,449.155239 L858.502253,449.155239 C858.457175,449.155678 858.41307,449.143247 858.376089,449.11968 L858.378192,449.11968 Z M856.76119,447.534913 C856.731279,447.488795 856.722673,447.433694 856.737269,447.381767 C856.751865,447.329841 856.788464,447.285357 856.838991,447.258131 L856.838991,447.258131 C856.944154,447.201756 857.079378,447.233516 857.141784,447.329249 L857.141784,447.329249 C857.171695,447.375367 857.180301,447.430468 857.165705,447.482395 C857.151109,447.534321 857.11451,447.578805 857.063983,447.606031 L857.063983,447.606031 C857.029933,447.624452 856.991053,447.634085 856.951487,447.633901 L856.951487,447.633901 C856.872614,447.634689 856.799272,447.596956 856.759087,447.534913 L856.76119,447.534913 Z M856.025233,445.473466 C856.013647,445.362542 856.102598,445.264025 856.223941,445.253386 L856.223941,445.253386 C856.344323,445.24445 856.450405,445.325186 856.462601,445.435024 L856.462601,445.435024 C856.474187,445.545948 856.385236,445.644466 856.263893,445.655104 L856.252328,445.655104 C856.136913,445.65764 856.038847,445.57847 856.027336,445.473466 L856.025233,445.473466 Z M856,443.359161 C856,443.247699 856.09885,443.157342 856.220787,443.157342 L856.220787,443.157342 C856.342724,443.157342 856.441574,443.247699 856.441574,443.359161 L856.441574,443.359161 C856.441574,443.470624 856.342724,443.560981 856.220787,443.560981 L856.220787,443.560981 C856.099672,443.559927 856.002097,443.469877 856.002103,443.359161 L856,443.359161 Z M856,441.263117 C856,441.151655 856.09885,441.061297 856.220787,441.061297 L856.220787,441.061297 C856.342724,441.061297 856.441574,441.151655 856.441574,441.263117 L856.441574,441.263117 C856.441574,441.316643 856.418313,441.367976 856.376907,441.405825 C856.335501,441.443674 856.279343,441.464937 856.220787,441.464937 L856.220787,441.464937 C856.099672,441.463882 856.002097,441.373833 856.002103,441.263117 L856,441.263117 Z M856,439.166111 C856,439.054649 856.09885,438.964291 856.220787,438.964291 L856.220787,438.964291 C856.342724,438.964291 856.441574,439.054649 856.441574,439.166111 L856.441574,439.166111 C856.441574,439.277573 856.342724,439.367931 856.220787,439.367931 L856.220787,439.367931 C856.099672,439.366877 856.002097,439.276827 856.002103,439.166111 L856,439.166111 Z M856,437.070066 C856,436.958604 856.09885,436.868246 856.220787,436.868246 L856.220787,436.868246 C856.342724,436.868246 856.441574,436.958604 856.441574,437.070066 L856.441574,437.070066 C856.441574,437.181528 856.342724,437.271886 856.220787,437.271886 L856.220787,437.271886 C856.101292,437.270866 856.004374,437.183125 856.002103,437.073911 L856,437.070066 Z M856,434.973061 C856,434.861599 856.09885,434.771241 856.220787,434.771241 L856.220787,434.771241 C856.342724,434.771241 856.441574,434.861599 856.441574,434.973061 L856.441574,434.973061 C856.441574,435.084523 856.342724,435.174881 856.220787,435.174881 L856.220787,435.174881 C856.099672,435.173826 856.002097,435.083776 856.002103,434.973061 L856,434.973061 Z M856,432.877016 C856,432.765554 856.09885,432.675196 856.220787,432.675196 L856.220787,432.675196 C856.342724,432.675196 856.441574,432.765554 856.441574,432.877016 L856.441574,432.877016 C856.441574,432.988478 856.342724,433.078836 856.220787,433.078836 L856.220787,433.078836 C856.099672,433.077781 856.002097,432.987732 856.002103,432.877016 L856,432.877016 Z M856,430.780971 C856,430.669509 856.09885,430.579151 856.220787,430.579151 L856.220787,430.579151 C856.342724,430.579151 856.441574,430.669509 856.441574,430.780971 L856.441574,430.780971 C856.441574,430.892433 856.342724,430.982791 856.220787,430.982791 L856.220787,430.982791 C856.099672,430.981737 856.002097,430.891687 856.002103,430.780971 L856,430.780971 Z M856,428.683966 C856,428.572503 856.09885,428.482146 856.220787,428.482146 L856.220787,428.482146 C856.342724,428.482146 856.441574,428.572503 856.441574,428.683966 L856.441574,428.683966 C856.441574,428.795428 856.342724,428.885786 856.220787,428.885786 L856.220787,428.885786 C856.099672,428.884731 856.002097,428.794681 856.002103,428.683966 L856,428.683966 Z M856,426.587921 C856,426.476459 856.09885,426.386101 856.220787,426.386101 L856.220787,426.386101 C856.342724,426.386101 856.441574,426.476459 856.441574,426.587921 L856.441574,426.587921 C856.441574,426.699383 856.342724,426.789741 856.220787,426.789741 L856.220787,426.789741 C856.099672,426.788686 856.002097,426.698637 856.002103,426.587921 L856,426.587921 Z M856,424.490915 C856,424.379453 856.09885,424.289095 856.220787,424.289095 L856.220787,424.289095 C856.342724,424.289095 856.441574,424.379453 856.441574,424.490915 L856.441574,424.490915 C856.441574,424.602534 856.342894,424.693167 856.220787,424.693696 L856.220787,424.693696 C856.099503,424.69212 856.00209,424.601792 856.002103,424.490915 L856,424.490915 Z M856,422.39487 C856,422.283408 856.09885,422.19305 856.220787,422.19305 L856.220787,422.19305 C856.279343,422.19305 856.335501,422.214314 856.376907,422.252162 C856.418313,422.290011 856.441574,422.341344 856.441574,422.39487 L856.441574,422.39487 C856.441574,422.506333 856.342724,422.59669 856.220787,422.59669 L856.220787,422.59669 C856.099672,422.595636 856.002097,422.505586 856.002103,422.39487 L856,422.39487 Z M856,420.298826 C856,420.187364 856.09885,420.097006 856.220787,420.097006 L856.220787,420.097006 C856.342724,420.097006 856.441574,420.187364 856.441574,420.298826 L856.441574,420.298826 C856.441574,420.410288 856.342724,420.500646 856.220787,420.500646 L856.220787,420.500646 C856.099672,420.499591 856.002097,420.409541 856.002103,420.298826 L856,420.298826 Z M856,418.20182 C856,418.090358 856.09885,418 856.220787,418 L856.220787,418 C856.342724,418 856.441574,418.090358 856.441574,418.20182 L856.441574,418.20182 C856.441574,418.313282 856.342724,418.40364 856.220787,418.40364 L856.220787,418.40364 C856.099672,418.402586 856.002097,418.312536 856.002103,418.20182 L856,418.20182 Z" id="Shape" fill="#003037"></path>
                    <path d="M971.765011,461 L935.234989,461 C934.552923,461 934,460.328427 934,459.5 C934,458.671573 934.552923,458 935.234989,458 L971.765011,458 C972.447077,458 973,458.671573 973,459.5 C973,460.328427 972.447077,461 971.765011,461 L971.765011,461 Z" id="Path" fill="#EFEFEF"></path>
                    <rect id="Rectangle" fill="#6BBFFF" x="904" y="455" width="3" height="8"></rect>
                    <polygon id="Rectangle" fill="#6BBFFF" transform="translate(922.153094, 470.518991) rotate(-18.000000) translate(-922.153094, -470.518991) " points="917.955805 469.448059 926.350383 469.448059 926.350383 471.589924 917.955805 471.589924"></polygon>
                    <polygon id="Rectangle" fill="#6BBFFF" transform="translate(916.209452, 488.802597) rotate(-36.000000) translate(-916.209452, -488.802597) " points="915.138519 484.600506 917.280385 484.600506 917.280385 493.004689 915.138519 493.004689"></polygon>
                    <polygon id="Rectangle" fill="#6BBFFF" transform="translate(922.153094, 470.518991) rotate(-18.000000) translate(-922.153094, -470.518991) " points="917.955805 469.448059 926.350383 469.448059 926.350383 471.589924 917.955805 471.589924"></polygon>
                    <polygon id="Rectangle" fill="#6BBFFF" transform="translate(916.209452, 488.801637) rotate(-36.000000) translate(-916.209452, -488.801637) " points="915.138519 484.599546 917.280385 484.599546 917.280385 493.003728 915.138519 493.003728"></polygon>
                    <rect id="Rectangle" fill="#6BBFFF" x="904" y="455" width="3" height="8"></rect>
                    <path d="M938,420 C930.268424,420 924,424.944022 924,431.043287 C924,434.137788 925.615422,436.933796 928.214739,438.938232 L926.945827,443 L931.474866,440.815146 C933.538009,441.663942 935.758178,442.097187 938,442.088464 C945.732552,442.088464 952,437.144441 952,431.045176 C952,424.945912 945.732552,420.001889 938,420.001889" id="Path" fill="#FFD00A"></path>
                    <path d="M945,432.336323 C945,431.845552 944.723354,431.399309 944.290812,431.192254 C944.689433,430.851697 944.837727,430.290615 944.66161,429.789312 C944.485493,429.288008 944.022769,428.954085 943.504602,428.954362 L940.110839,428.954362 C940.110839,428.954362 940.659402,427.1339 940.527897,425.18589 C940.526984,425.147438 940.524162,425.109059 940.519443,425.070904 L940.519443,425.061241 L940.519443,425.061241 C940.444057,424.462035 939.952891,424.010353 939.365626,424.000175 C938.778361,423.989997 938.272684,424.424404 938.177719,425.020657 L938.177719,425.020657 C938.177719,425.020657 937.644185,428.347541 935,429.755403 L935,437.236302 C935,437.236302 939.907007,438.6374 943.052789,437.64407 L943.121359,437.622812 L943.140145,437.617014 L943.140145,437.617014 C943.514274,437.478426 943.800067,437.162144 943.907139,436.768195 C944.014211,436.374246 943.92932,435.95135 943.679315,435.633252 C944.148623,435.565702 944.538141,435.226134 944.679899,434.760978 C944.821657,434.295822 944.690301,433.788274 944.342475,433.457202 C944.747334,433.238553 945.000662,432.806706 945,432.336323 L945,432.336323 Z" id="Path" fill="#FFFFFF"></path>
                    <rect id="Rectangle" fill="#FFFFFF" x="931" y="430" width="3" height="8" rx="1.5"></rect>
                    <rect id="Rectangle" fill="#003037" x="854.95" y="385" width="1" height="3"></rect>
                    <rect id="Rectangle" fill="#003037" x="854.95" y="380" width="1" height="2"></rect>
                    <rect id="Rectangle" fill="#003037" x="858.95" y="386" width="1" height="1"></rect>
                    <rect id="Rectangle" fill="#003037" x="858.95" y="379" width="1" height="4"></rect>
                    <rect id="Rectangle" fill="#003037" x="861.95" y="384" width="1" height="4"></rect>
                    <rect id="Rectangle" fill="#003037" x="861.95" y="380" width="1" height="1"></rect>
                    <path d="M856,385 L854,385 L854,381 L856,381 L856,385 Z M854.324028,384.700323 L855.675972,384.700323 L855.675972,381.300599 L854.324028,381.300599 L854.324028,384.700323 Z" id="Shape" fill="#003037"></path>
                    <path d="M860,387 L858,387 L858,383 L859.999003,383 L860,387 Z M858.324863,386.700185 L859.676134,386.700185 L859.676134,383.299815 L858.324863,383.299815 L858.324863,386.700185 Z" id="Shape" fill="#003037"></path>
                    <path d="M863,385 L861,385 L861,381 L863,381 L863,385 Z M861.32419,384.700185 L862.67581,384.700185 L862.67581,381.299815 L861.32419,381.299815 L861.32419,384.700185 Z" id="Shape" fill="#003037"></path>
                    <path d="M996,424 L988,424 L988,416 L996,416 L996,424 Z M988.296939,423.672833 L995.703061,423.672833 L995.703061,416.324147 L988.296939,416.324147 L988.296939,423.672833 Z" id="Shape" fill="#003037"></path>
                    <polygon id="Path" fill="#003037" points="986.302537 423 986 423 986 415 994 415 994 415.333976 986.302537 415.333976"></polygon>
                    <rect id="Rectangle" fill="#003037" x="988" y="418.95" width="8" height="1"></rect>
                </g>
            </g>
        </g>
    </g>
</svg>