<?xml version="1.0" encoding="UTF-8"?>
<svg width="324px" height="80px" viewBox="0 0 324 80" version="1.1" xmlns="http://www.w3.org/2000/svg" xmlns:xlink="http://www.w3.org/1999/xlink">
    <title>Option3_Card_Banner Copy 5</title>
    <defs>
        <rect id="path-1" x="0" y="0" width="324" height="80" rx="6"></rect>
        <linearGradient x1="0%" y1="50.6920415%" x2="100%" y2="49.4592344%" id="linearGradient-3">
            <stop stop-color="#A94C0A" offset="0%"></stop>
            <stop stop-color="#D9610D" offset="100%"></stop>
        </linearGradient>
        <rect id="path-4" x="0" y="0" width="1700" height="200"></rect>
        <polygon id="path-6" points="0 0 130 0 130 148 0 148"></polygon>
        <polygon id="path-8" points="0 0 192 0 192 219 0 219"></polygon>
    </defs>
    <g id="Page-1" stroke="none" stroke-width="1" fill="none" fill-rule="evenodd">
        <g id="Color-Scheme----Banner-/-All" transform="translate(-952.000000, -2581.000000)">
            <g id="Option3_Card_Banner-Copy-5" transform="translate(952.000000, 2581.000000)">
                <g id="dark-Orange">
                    <mask id="mask-2" fill="white">
                        <use xlink:href="#path-1"></use>
                    </mask>
                    <use id="Mask" fill="#078CDF" xlink:href="#path-1"></use>
                    <g mask="url(#mask-2)">
                        <g transform="translate(-603.000000, -11.000000)">
                            <mask id="mask-5" fill="white">
                                <use xlink:href="#path-4"></use>
                            </mask>
                            <use id="bg-Reserve2" stroke="none" fill="url(#linearGradient-3)" fill-rule="evenodd" xlink:href="#path-4"></use>
                            <g id="bg-pattern-5-copy" stroke="none" stroke-width="1" fill="none" fill-rule="evenodd" mask="url(#mask-5)">
                                <g transform="translate(745.000000, -151.000000)">
                                    <g id="hex2" opacity="0.078171503" style="mix-blend-mode: overlay;" transform="translate(121.000000, 96.000000)">
                                        <mask id="mask-7" fill="white">
                                            <use xlink:href="#path-6"></use>
                                        </mask>
                                        <g id="Clip-2"></g>
                                        <path d="M130,115.984756 C130,117.765573 129.046197,119.411424 127.497911,120.301664 L67.5017518,147.33232 C65.9538034,148.22256 64.046534,148.22256 62.4982482,147.33232 L2.50175184,120.301664 C0.953803431,119.411424 0,117.765573 0,115.984756 L0,32.0154119 C0,30.2345949 0.953803431,28.5890809 2.50175184,27.6981675 L62.4982482,0.668185043 C64.046534,-0.222728348 65.9538034,-0.222728348 67.5017518,0.668185043 L127.497911,27.6981675 C129.046197,28.5890809 130,30.2345949 130,32.0154119 L130,115.984756 Z" id="Fill-1" fill="#FFFFFF" mask="url(#mask-7)"></path>
                                    </g>
                                    <g id="hex-3" opacity="0.0730794271" transform="translate(0.000000, 174.000000)">
                                        <mask id="mask-9" fill="white">
                                            <use xlink:href="#path-8"></use>
                                        </mask>
                                        <g id="Clip-2"></g>
                                        <path d="M192,171.626092 C192,174.26122 190.591306,176.696634 188.304607,178.013949 L99.694895,218.012014 C97.4086943,219.329329 94.591804,219.329329 92.305105,218.012014 L3.69489502,178.013949 C1.4086943,176.696634 0,174.26122 0,171.626092 L0,47.3741569 C0,44.7390289 1.4086943,42.3041129 3.69489502,40.9858019 L92.305105,0.988733274 C94.591804,-0.329577758 97.4086943,-0.329577758 99.694895,0.988733274 L188.304607,40.9858019 C190.591306,42.3041129 192,44.7390289 192,47.3741569 L192,171.626092 Z" id="Fill-1" fill="#FFFFFF" mask="url(#mask-9)"></path>
                                    </g>
                                </g>
                            </g>
                        </g>
                    </g>
                </g>
            </g>
        </g>
    </g>
</svg>